0
SECTION
2
HEADER
9
$INSUNITS
70
4
9
$ACADVER
1
AC1014
9
$HANDSEED
5
FFFF
0
ENDSEC
0
SECTION
2
TABLES
0
TABLE
2
VPORT
5
8
100
AcDbSymbolTable
0
ENDTAB
0
TABLE
2
LTYPE
5
5
100
AcDbSymbolTable
0
LTYPE
5
14
100
AcDbSymbolTableRecord
100
AcDbLinetypeTableRecord
2
BYBLOCK
70
0
0
LTYPE
5
15
100
AcDbSymbolTableRecord
100
AcDbLinetypeTableRecord
2
BYLAYER
70
0
0
ENDTAB
0
TABLE
2
LAYER
5
2
100
AcDbSymbolTable
70
2
0
LAYER
5
50
100
AcDbSymbolTableRecord
100
AcDbLayerTableRecord
2
0
70
0
6
CONTINUOUS
0
ENDTAB
0
TABLE
2
STYLE
5
3
100
AcDbSymbolTable
70
1
0
STYLE
5
11
100
AcDbSymbolTableRecord
100
AcDbTextStyleTableRecord
2
STANDARD
70
0
0
ENDTAB
0
TABLE
2
VIEW
5
6
100
AcDbSymbolTable
70
0
0
ENDTAB
0
TABLE
2
UCS
5
7
100
AcDbSymbolTable
70
0
0
ENDTAB
0
TABLE
2
APPID
5
9
100
AcDbSymbolTable
70
2
0
APPID
5
12
100
AcDbSymbolTableRecord
100
AcDbRegAppTableRecord
2
ACAD
70
0
0
ENDTAB
0
TABLE
2
DIMSTYLE
5
A
100
AcDbSymbolTable
70
1
0
ENDTAB
0
TABLE
2
BLOCK_RECORD
5
1
100
AcDbSymbolTable
70
1
0
BLOCK_RECORD
5
1F
100
AcDbSymbolTableRecord
100
AcDbBlockTableRecord
2
*MODEL_SPACE
0
BLOCK_RECORD
5
1B
100
AcDbSymbolTableRecord
100
AcDbBlockTableRecord
2
*PAPER_SPACE
0
ENDTAB
0
ENDSEC
0
SECTION
2
BLOCKS
0
BLOCK
5
20
100
AcDbEntity
100
AcDbBlockBegin
2
*MODEL_SPACE
0
ENDBLK
5
21
100
AcDbEntity
100
AcDbBlockEnd
0
BLOCK
5
1C
100
AcDbEntity
100
AcDbBlockBegin
2
*PAPER_SPACE
0
ENDBLK
5
1D
100
AcDbEntity
100
AcDbBlockEnd
0
ENDSEC
0
SECTION
2
ENTITIES
0
CIRCLE
5
100
100
AcDbEntity
8
0
100
AcDbCircle
10
78.237859911679095
20
239.43945914104162
30
0
40
74.999999999999986
210
0
220
0
230
1
0
CIRCLE
5
101
100
AcDbEntity
8
0
100
AcDbCircle
10
78.237859911679095
20
239.43945914104162
30
0
40
74.999999999999986
210
0
220
0
230
1
0
CIRCLE
5
102
100
AcDbEntity
8
0
100
AcDbCircle
10
238.23785991167821
20
239.43945914104154
30
0
40
74.999999999999986
210
0
220
0
230
1
0
CIRCLE
5
103
100
AcDbEntity
8
0
100
AcDbCircle
10
238.23785991167821
20
239.43945914104154
30
0
40
64.999999999999986
210
0
220
0
230
1
0
CIRCLE
5
104
100
AcDbEntity
8
0
100
AcDbCircle
10
398.23785991167756
20
239.43945914104154
30
0
40
74.999999999999986
210
0
220
0
230
1
0
CIRCLE
5
105
100
AcDbEntity
8
0
100
AcDbCircle
10
398.23785991167756
20
239.43945914104154
30
0
40
64.999999999999986
210
0
220
0
230
1
0
CIRCLE
5
106
100
AcDbEntity
8
0
100
AcDbCircle
10
78.237859911679067
20
79.439459141042249
30
0
40
74.999999999999986
210
0
220
0
230
1
0
CIRCLE
5
107
100
AcDbEntity
8
0
100
AcDbCircle
10
78.245969217308939
20
149.34913143301225
30
0
40
2.6000000000000001
210
0
220
0
230
1
0
CIRCLE
5
108
100
AcDbEntity
8
0
100
AcDbCircle
10
28.237859166621249
20
30.439458410885653
30
0
40
2.6000000000000001
210
0
220
0
230
1
0
CIRCLE
5
109
100
AcDbEntity
8
0
100
AcDbCircle
10
78.237859911679067
20
79.439459141042249
30
0
40
74.999999999999986
210
0
220
0
230
1
0
CIRCLE
5
110
100
AcDbEntity
8
0
100
AcDbCircle
10
128.23786065673681
20
30.43945841088561
30
0
40
2.6000000000000001
210
0
220
0
230
1
0
CIRCLE
5
111
100
AcDbEntity
8
0
100
AcDbCircle
10
78.237859911679067
20
79.439459141042249
30
0
40
64.999999999999986
210
0
220
0
230
1
0
CIRCLE
5
112
100
AcDbEntity
8
0
100
AcDbCircle
10
238.23785991167847
20
79.439459141042235
30
0
40
74.999999999999986
210
0
220
0
230
1
0
CIRCLE
5
113
100
AcDbEntity
8
0
100
AcDbCircle
10
238.24596921730833
20
149.34913143301225
30
0
40
2.6000000000000001
210
0
220
0
230
1
0
CIRCLE
5
114
100
AcDbEntity
8
0
100
AcDbCircle
10
188.23785916662061
20
30.439458410885642
30
0
40
2.6000000000000001
210
0
220
0
230
1
0
CIRCLE
5
115
100
AcDbEntity
8
0
100
AcDbCircle
10
238.23785991167847
20
79.439459141042235
30
0
40
64.999999999999986
210
0
220
0
230
1
0
CIRCLE
5
116
100
AcDbEntity
8
0
100
AcDbCircle
10
238.23785991167847
20
79.439459141042235
30
0
40
74.999999999999986
210
0
220
0
230
1
0
CIRCLE
5
117
100
AcDbEntity
8
0
100
AcDbCircle
10
288.23786065673619
20
30.439458410885596
30
0
40
2.6000000000000001
210
0
220
0
230
1
0
LWPOLYLINE
5
118
100
AcDbEntity
8
0
100
AcDbPolyline
90
4
70
1
43
0.0
10
392.6021429753041
20
4.6515009217339021
10
392.6021429753041
20
14.684237771541637
42
-23.023729338150787
10
403.87357684805147
20
14.684237771541644
10
403.87357684805136
20
4.6515009217338932
42
26.578332430530164
0
ARC
5
119
100
AcDbEntity
8
0
100
AcDbCircle
10
398.23785991167779
20
79.439459141042221
30
0
40
74.999999999999574
210
0
220
0
230
1
100
AcDbArc
50
-85.690567390823446
51
265.69056739082333
0
LWPOLYLINE
5
120
100
AcDbEntity
8
0
100
AcDbPolyline
90
4
70
1
43
0.0
10
563.87357684805147
20
14.684237771541628
42
23.023729338150787
10
552.6021429753041
20
14.684237771541644
10
552.6021429753041
20
4.6515009217339092
42
-26.578332430530164
10
563.87357684805136
20
4.6515009217339021
0
ARC
5
121
100
AcDbEntity
8
0
100
AcDbCircle
10
558.23785991167779
20
79.439459141042221
30
0
40
74.999999999999574
210
0
220
0
230
1
100
AcDbArc
50
-85.690567390823446
51
265.69056739082333
0
CIRCLE
5
122
100
AcDbEntity
8
0
100
AcDbCircle
10
558.23785991167915
20
239.43945914104162
30
0
40
74.999999999999986
210
0
220
0
230
1
0
CIRCLE
5
123
100
AcDbEntity
8
0
100
AcDbCircle
10
558.23785991167915
20
239.43945914104162
30
0
40
74.999999999999986
210
0
220
0
230
1
0
CIRCLE
5
124
100
AcDbEntity
8
0
100
AcDbCircle
10
558.23785991167915
20
239.43945914104162
30
0
40
64.999999999999986
210
0
220
0
230
1
0
LINE
5
125
100
AcDbEntity
8
0
100
AcDbLine
10
72.602142975305384
20
324.65150092173332
30
0
11
72.602142975305384
21
334.68423777154101
31
0
0
CIRCLE
5
126
100
AcDbEntity
8
0
100
AcDbCircle
10
128.23786065673684
20
350.43945841088492
30
0
40
2.6000000000000001
210
0
220
0
230
1
0
CIRCLE
5
127
100
AcDbEntity
8
0
100
AcDbCircle
10
28.237859166621249
20
350.43945841088498
30
0
40
2.6000000000000001
210
0
220
0
230
1
0
CIRCLE
5
128
100
AcDbEntity
8
0
100
AcDbCircle
10
78.237859911679095
20
399.43945914104165
30
0
40
64.999999999999986
210
0
220
0
230
1
0
LINE
5
129
100
AcDbEntity
8
0
100
AcDbLine
10
83.873576848052721
20
334.68423777154101
30
0
11
83.873576848052693
21
324.65150092173332
31
0
0
CIRCLE
5
130
100
AcDbEntity
8
0
100
AcDbCircle
10
78.237859911679095
20
399.43945914104165
30
0
40
74.999999999999986
210
0
220
0
230
1
0
CIRCLE
5
131
100
AcDbEntity
8
0
100
AcDbCircle
10
78.237859911679095
20
399.43945914104165
30
0
40
74.999999999999986
210
0
220
0
230
1
0
CIRCLE
5
132
100
AcDbEntity
8
0
100
AcDbCircle
10
78.245969217308982
20
469.34913143301162
30
0
40
2.6000000000000001
210
0
220
0
230
1
0
LINE
5
133
100
AcDbEntity
8
0
100
AcDbLine
10
662.93577577453459
20
235.30015164294099
30
0
11
676.50446427522456
21
235.30015164294099
31
0
0
CIRCLE
5
134
100
AcDbEntity
8
0
100
AcDbCircle
10
669.72012002487963
20
238.30015164294096
30
0
40
1.5000000000000002
210
0
220
0
230
1
0
SPLINE
5
135
100
AcDbEntity
8
0
100
AcDbSpline
70
0
71
3
72
23
73
19
74
0
42
0.000000001
43
0.0000000001
44
0.0000000001
40
0
40
0
40
0
40
0
40
0.56924307448651046
40
0.56924307448651046
40
0.56924307448651046
40
1.1454489956831746
40
1.1454489956831746
40
1.1454489956831746
40
2.0643031395233278
40
2.0643031395233278
40
2.0643031395233278
40
2.7051716412496414
40
2.7051716412496414
40
2.7051716412496414
40
3.1627417505091482
40
3.1627417505091482
40
3.1627417505091482
40
3.2310356834891207
40
3.2310356834891207
40
3.2310356834891207
40
3.2310356834891207
10
669.72012002487963
20
211.30015119590621
30
0
10
670.85284668211966
20
211.30015119590621
30
0
10
671.3566353900502
20
211.48263440899254
30
0
10
671.72838145286528
20
211.6800204598992
30
0
10
672.10467462563486
20
211.87982089031573
30
0
10
672.39149150589526
20
212.13494817579604
30
0
10
672.74573250185529
20
212.66606424669357
30
0
10
673.31062743799191
20
213.51301528390394
30
0
10
673.92445651089599
20
215.03649488249465
30
0
10
674.47301913128342
20
217.60115834880409
30
0
10
674.85562229739799
20
219.3899210638709
30
0
10
675.21634067645118
20
221.66823416658008
30
0
10
675.57872592527565
20
224.8777305040521
30
0
10
675.83746333778993
20
227.16926080371445
30
0
10
676.09716163827443
20
229.92960854276262
30
0
10
676.37741672374477
20
233.59410033863389
30
0
10
676.41924577165923
20
234.14103850624696
30
0
10
676.46156747615294
20
234.70899270572056
30
0
10
676.50446427522456
20
235.30015164294099
30
0
0
SPLINE
5
136
100
AcDbEntity
8
0
100
AcDbSpline
70
4
71
2
72
6
73
3
74
0
42
0.000000001
43
0.0000000001
44
0.0000000001
40
0
40
0
40
0
40
3.3460401429759563
40
3.3460401429759563
40
3.3460401429759563
41
1
41
1.6695609482380278
41
1
10
669.72012002487963
20
208.30015119590621
30
0
10
661.72011990567034
20
208.30015119590624
30
0
10
659.72011987586802
20
238.30015164294096
30
0
0
SPLINE
5
137
100
AcDbEntity
8
0
100
AcDbSpline
70
0
71
3
72
23
73
19
74
0
42
0.000000001
43
0.0000000001
44
0.0000000001
40
0
40
0
40
0
40
0
40
0.56924307448651046
40
0.56924307448651046
40
0.56924307448651046
40
1.1454489956831746
40
1.1454489956831746
40
1.1454489956831746
40
2.0643031395233278
40
2.0643031395233278
40
2.0643031395233278
40
2.7051716412496414
40
2.7051716412496414
40
2.7051716412496414
40
3.1627417505091482
40
3.1627417505091482
40
3.1627417505091482
40
3.2310356834891207
40
3.2310356834891207
40
3.2310356834891207
40
3.2310356834891207
10
669.72012002487963
20
211.30015119590621
30
0
10
668.58739336763949
20
211.30015119590621
30
0
10
668.08360465970895
20
211.48263440899254
30
0
10
667.71185859689376
20
211.6800204598992
30
0
10
667.3355654241243
20
211.87982089031573
30
0
10
667.04874854386389
20
212.13494817579604
30
0
10
666.69450754790387
20
212.66606424669357
30
0
10
666.12961261176724
20
213.51301528390394
30
0
10
665.51578353886316
20
215.03649488249468
30
0
10
664.96722091847573
20
217.60115834880409
30
0
10
664.58461775236117
20
219.3899210638709
30
0
10
664.22389937330786
20
221.66823416658008
30
0
10
663.86151412448362
20
224.8777305040521
30
0
10
663.60277671196923
20
227.16926080371445
30
0
10
663.34307841148473
20
229.92960854276262
30
0
10
663.06282332601438
20
233.59410033863389
30
0
10
663.02099427809992
20
234.14103850624696
30
0
10
662.97867257360622
20
234.70899270572056
30
0
10
662.93577577453459
20
235.30015164294099
30
0
0
LINE
5
138
100
AcDbEntity
8
0
100
AcDbLine
10
673.72012002487963
20
238.30015164294096
30
0
11
679.72012017389125
21
238.30015164294096
31
0
0
LINE
5
139
100
AcDbEntity
8
0
100
AcDbLine
10
665.72012002487952
20
238.30015164294096
30
0
11
659.72011987586802
21
238.30015164294096
31
0
0
ARC
5
140
100
AcDbEntity
8
0
100
AcDbCircle
10
669.72012002487963
20
238.30015164294096
30
0
40
4.0000000000000568
210
0
220
0
230
1
100
AcDbArc
50
0
51
180
0
SPLINE
5
141
100
AcDbEntity
8
0
100
AcDbSpline
70
4
71
2
72
6
73
3
74
0
42
0.000000001
43
0.0000000001
44
0.0000000001
40
0
40
0
40
0
40
3.3460401429759563
40
3.3460401429759563
40
3.3460401429759563
41
1
41
1.6695609482380278
41
1
10
669.72012002487963
20
208.30015119590621
30
0
10
677.72012014408892
20
208.30015119590624
30
0
10
679.72012017389125
20
238.30015164294096
30
0
0
SPLINE
5
142
100
AcDbEntity
8
0
100
AcDbSpline
70
4
71
3
72
8
73
4
74
0
42
0.000000001
43
0.0000000001
44
0.0000000001
40
0
40
0
40
0
40
0
40
1
40
1
40
1
40
1
41
1
41
1
41
1
41
1
10
670.72431333741383
20
122.151233197699
30
0
10
669.88508128701312
20
122.06944381740158
30
0
10
669.02095687550172
20
121.98054214013933
30
0
10
668.27418332911168
20
121.58581847604989
30
0
0
SPLINE
5
143
100
AcDbEntity
8
0
100
AcDbSpline
70
4
71
3
72
8
73
4
74
0
42
0.000000001
43
0.0000000001
44
0.0000000001
40
0
40
0
40
0
40
0
40
1
40
1
40
1
40
1
41
1
41
1
41
1
41
1
10
668.7791442048258
20
118.37824613677759
30
0
10
667.13624023231671
20
118.50626476908033
30
0
10
665.49333897287158
20
118.6093903620062
30
0
10
663.84687953014588
20
118.68762427208719
30
0
0
SPLINE
5
144
100
AcDbEntity
8
0
100
AcDbSpline
70
4
71
3
72
8
73
4
74
0
42
0.000000001
43
0.0000000001
44
0.0000000001
40
0
40
0
40
0
40
0
40
1
40
1
40
1
40
1
41
1
41
1
41
1
41
1
10
673.06420342102729
20
111.53992928455025
30
0
10
672.32098670138566
20
111.63238643202891
30
0
10
671.45330546312584
20
111.64305555574211
30
0
10
670.95189870109607
20
111.08119630430946
30
0
0
SPLINE
5
145
100
AcDbEntity
8
0
100
AcDbSpline
70
4
71
3
72
8
73
4
74
0
42
0.000000001
43
0.0000000001
44
0.0000000001
40
0
40
0
40
0
40
0
40
1
40
1
40
1
40
1
41
1
41
1
41
1
41
1
10
670.20868198145445
20
103.72369398243832
30
0
10
670.08422017590021
20
102.79911708152383
30
0
10
670.11266936375932
20
101.79986309727674
30
0
10
670.62829800665486
20
101.02463764996364
30
0
0
SPLINE
5
146
100
AcDbEntity
8
0
100
AcDbSpline
70
4
71
3
72
8
73
4
74
0
42
0.000000001
43
0.0000000001
44
0.0000000001
40
0
40
0
40
0
40
0
40
1
40
1
40
1
40
1
41
1
41
1
41
1
41
1
10
672.45255944737301
20
106.25917019778623
30
0
10
671.20793596570149
20
106.45475361645677
30
0
10
670.3793716824822
20
104.97542976107442
30
0
10
670.20868198145445
20
103.72369398243832
30
0
0
SPLINE
5
147
100
AcDbEntity
8
0
100
AcDbSpline
70
4
71
3
72
8
73
4
74
0
42
0.000000001
43
0.0000000001
44
0.0000000001
40
0
40
0
40
0
40
0
40
1
40
1
40
1
40
1
41
1
41
1
41
1
41
1
10
670.95189870109607
20
111.08119630430946
30
0
10
670.31536236633087
20
110.36998288621156
30
0
10
670.70652920367195
20
109.20003648787286
30
0
10
671.37151472629637
20
108.51727225763425
30
0
0
SPLINE
5
148
100
AcDbEntity
8
0
100
AcDbSpline
70
4
71
3
72
8
73
4
74
0
42
0.000000001
43
0.0000000001
44
0.0000000001
40
0
40
0
40
0
40
0
40
1
40
1
40
1
40
1
41
1
41
1
41
1
41
1
10
671.82669359285273
20
125.62551065354127
30
0
10
671.76268427670141
20
124.25998092131529
30
0
10
672.68370706393148
20
122.91223133801863
30
0
10
673.97811526782436
20
122.47127910018986
30
0
0
SPLINE
5
149
100
AcDbEntity
8
0
100
AcDbSpline
70
4
71
3
72
8
73
4
74
0
42
0.000000001
43
0.0000000001
44
0.0000000001
40
0
40
0
40
0
40
0
40
1
40
1
40
1
40
1
41
1
41
1
41
1
41
1
10
679.77094617073544
20
109.61965251307319
30
0
10
677.65508733711977
20
110.60468325992258
30
0
10
675.3827606833421
20
111.25544283208555
30
0
10
673.06420342102729
20
111.53992928455025
30
0
0
SPLINE
5
150
100
AcDbEntity
8
0
100
AcDbSpline
70
4
71
3
72
8
73
4
74
0
42
0.000000001
43
0.0000000001
44
0.0000000001
40
0
40
0
40
0
40
0
40
1
40
1
40
1
40
1
41
1
41
1
41
1
41
1
10
670.20868198145445
20
103.72369398243832
30
0
10
670.08422017590021
20
102.79911708152383
30
0
10
670.11266936375932
20
101.79986309727674
30
0
10
670.62829800665486
20
101.02463764996364
30
0
0
SPLINE
5
151
100
AcDbEntity
8
0
100
AcDbSpline
70
4
71
3
72
8
73
4
74
0
42
0.000000001
43
0.0000000001
44
0.0000000001
40
0
40
0
40
0
40
0
40
1
40
1
40
1
40
1
41
1
41
1
41
1
41
1
10
653.5022843792467
20
80.605701067508662
30
0
10
649.51593349637574
20
79.204609765675386
30
0
10
645.53313808372127
20
77.80351846384211
30
0
10
641.5467872008503
20
76.402432588136591
30
0
0
SPLINE
5
152
100
AcDbEntity
8
0
100
AcDbSpline
70
4
71
3
72
8
73
4
74
0
42
0.000000001
43
0.0000000001
44
0.0000000001
40
0
40
0
40
0
40
0
40
1
40
1
40
1
40
1
41
1
41
1
41
1
41
1
10
673.97811526782436
20
122.47127910018986
30
0
10
672.89351371999953
20
122.36459701964858
30
0
10
671.80891488523855
20
122.25791493910731
30
0
10
670.72431333741383
20
122.151233197699
30
0
0
SPLINE
5
153
100
AcDbEntity
8
0
100
AcDbSpline
70
4
71
3
72
8
73
4
74
0
42
0.000000001
43
0.0000000001
44
0.0000000001
40
0
40
0
40
0
40
0
40
1
40
1
40
1
40
1
41
1
41
1
41
1
41
1
10
670.95189870109607
20
111.08119630430946
30
0
10
670.31536236633087
20
110.36998288621156
30
0
10
670.70652920367195
20
109.20003648787286
30
0
10
671.37151472629637
20
108.51727225763425
30
0
0
SPLINE
5
154
100
AcDbEntity
8
0
100
AcDbSpline
70
4
71
3
72
8
73
4
74
0
42
0.000000001
43
0.0000000001
44
0.0000000001
40
0
40
0
40
0
40
0
40
1
40
1
40
1
40
1
41
1
41
1
41
1
41
1
10
670.62829800665486
20
101.02463764996364
30
0
10
671.14392664955017
20
100.24941220265049
30
0
10
672.27831291959671
20
99.836912544010815
30
0
10
673.04997882709768
20
100.3596521273391
30
0
0
SPLINE
5
155
100
AcDbEntity
8
0
100
AcDbSpline
70
4
71
3
72
8
73
4
74
0
42
0.000000001
43
0.0000000001
44
0.0000000001
40
0
40
0
40
0
40
0
40
1
40
1
40
1
40
1
41
1
41
1
41
1
41
1
10
671.82669359285273
20
125.62551065354127
30
0
10
671.76268427670141
20
124.25998092131529
30
0
10
672.68370706393148
20
122.91223133801863
30
0
10
673.97811526782436
20
122.47127910018986
30
0
0
SPLINE
5
156
100
AcDbEntity
8
0
100
AcDbSpline
70
4
71
3
72
8
73
4
74
0
42
0.000000001
43
0.0000000001
44
0.0000000001
40
0
40
0
40
0
40
0
40
1
40
1
40
1
40
1
41
1
41
1
41
1
41
1
10
671.37151472629637
20
108.51727225763425
30
0
10
672.03650024892102
20
107.83450802739559
30
0
10
672.93262796197621
20
107.3757750471548
30
0
10
673.49804404015731
20
106.60766460987035
30
0
0
ARC
5
157
100
AcDbEntity
8
0
100
AcDbCircle
10
718.89769175106244
20
80.217064435559422
30
0
40
75.157731058638944
210
0
220
0
230
1
100
AcDbArc
50
-217.02316140741533
51
37.023161407415365
0
SPLINE
5
158
100
AcDbEntity
8
0
100
AcDbSpline
70
4
71
3
72
8
73
4
74
0
42
0.000000001
43
0.0000000001
44
0.0000000001
40
0
40
0
40
0
40
0
40
1
40
1
40
1
40
1
41
1
41
1
41
1
41
1
10
673.06420342102729
20
111.53992928455025
30
0
10
672.32098670138566
20
111.63238643202891
30
0
10
671.45330546312584
20
111.64305555574211
30
0
10
670.95189870109607
20
111.08119630430946
30
0
0
SPLINE
5
159
100
AcDbEntity
8
0
100
AcDbSpline
70
4
71
3
72
8
73
4
74
0
42
0.000000001
43
0.0000000001
44
0.0000000001
40
0
40
0
40
0
40
0
40
1
40
1
40
1
40
1
41
1
41
1
41
1
41
1
10
679.77094617073544
20
109.61965251307319
30
0
10
677.65508733711977
20
110.60468325992258
30
0
10
675.3827606833421
20
111.25544283208555
30
0
10
673.06420342102729
20
111.53992928455025
30
0
0
SPLINE
5
160
100
AcDbEntity
8
0
100
AcDbSpline
70
4
71
3
72
8
73
4
74
0
42
0.000000001
43
0.0000000001
44
0.0000000001
40
0
40
0
40
0
40
0
40
1
40
1
40
1
40
1
41
1
41
1
41
1
41
1
10
673.97811526782436
20
122.47127910018986
30
0
10
672.89351371999953
20
122.36459701964858
30
0
10
671.80891488523855
20
122.25791493910731
30
0
10
670.72431333741383
20
122.151233197699
30
0
0
SPLINE
5
161
100
AcDbEntity
8
0
100
AcDbSpline
70
4
71
3
72
8
73
4
74
0
42
0.000000001
43
0.0000000001
44
0.0000000001
40
0
40
0
40
0
40
0
40
1
40
1
40
1
40
1
41
1
41
1
41
1
41
1
10
670.62829800665486
20
101.02463764996364
30
0
10
671.14392664955017
20
100.24941220265049
30
0
10
672.27831291959671
20
99.836912544010815
30
0
10
673.04997882709768
20
100.3596521273391
30
0
0
ARC
5
162
100
AcDbEntity
8
0
100
AcDbCircle
10
666.19750480348455
20
158.75474511673815
30
0
40
8.0000000000000675
210
0
220
-0
230
1
100
AcDbArc
50
56.848493323965016
51
181.19901763642892
0
LINE
5
163
100
AcDbEntity
8
0
100
AcDbLine
10
691.89543506208884
20
150.18230574173126
30
0
11
670.5723433377027
21
165.45256474700005
31
0
0
ARC
5
164
100
AcDbEntity
8
0
100
AcDbCircle
10
666.19750480348455
20
158.75474511673815
30
0
40
8.0000000000000675
210
0
220
-0
230
1
100
AcDbArc
50
56.848493323965016
51
181.19901763642892
0
LINE
5
165
100
AcDbEntity
8
0
100
AcDbLine
10
691.89543506208884
20
150.18230574173126
30
0
11
670.5723433377027
21
165.45256474700005
31
0
0
SPLINE
5
166
100
AcDbEntity
8
0
100
AcDbSpline
70
4
71
3
72
8
73
4
74
0
42
0.000000001
43
0.0000000001
44
0.0000000001
40
0
40
0
40
0
40
0
40
1
40
1
40
1
40
1
41
1
41
1
41
1
41
1
10
786.42805295898802
20
102.3332704477863
30
0
10
786.8547853507489
20
101.69317728627264
30
0
10
786.61296454088142
20
100.7828249792878
30
0
10
786.08667355693251
20
100.22096572785513
30
0
0
SPLINE
5
167
100
AcDbEntity
8
0
100
AcDbSpline
70
4
71
3
72
8
73
4
74
0
42
0.000000001
43
0.0000000001
44
0.0000000001
40
0
40
0
40
0
40
0
40
1
40
1
40
1
40
1
41
1
41
1
41
1
41
1
10
784.07393828144495
20
105.51239393833235
30
0
10
783.59031836622091
20
104.6589372940021
30
0
10
782.75108088969262
20
104.07929933495532
30
0
10
781.93673848733897
20
103.52810920723584
30
0
0
CIRCLE
5
168
100
AcDbEntity
8
0
100
AcDbCircle
10
-738.15801259766181
20
95.566075534242799
30
0
40
3.5845156272133485
210
0
220
0
230
-1
0
SPLINE
5
169
100
AcDbEntity
8
0
100
AcDbSpline
70
4
71
3
72
8
73
4
74
0
42
0.000000001
43
0.0000000001
44
0.0000000001
40
0
40
0
40
0
40
0
40
1
40
1
40
1
40
1
41
1
41
1
41
1
41
1
10
760.31941445787777
20
99.303499767373538
30
0
10
760.14517064316556
20
99.090136284556948
30
0
10
759.93891267465403
20
98.855434554313973
30
0
10
759.9638077488288
20
98.581618582094407
30
0
0
LWPOLYLINE
5
170
100
AcDbEntity
8
0
100
AcDbPolyline
90
10
70
1
43
0.0
10
694.88614767653883
20
38.842581172574448
10
694.54929366571844
20
38.842581172574448
10
694.54929366571844
20
41.388086338628227
10
696.26655451817453
20
41.388086338628227
10
696.26655451817453
20
41.087695916284019
10
694.88614767653883
20
41.087695916284019
10
694.88614767653883
20
40.299388130296165
10
696.0807638601774
20
40.299388130296165
10
696.0807638601774
20
39.998997707951951
10
694.88614767653883
20
39.998997707951951
0
SPLINE
5
171
100
AcDbEntity
8
0
100
AcDbSpline
70
4
71
3
72
8
73
4
74
0
42
0.000000001
43
0.0000000001
44
0.0000000001
40
0
40
0
40
0
40
0
40
1
40
1
40
1
40
1
41
1
41
1
41
1
41
1
10
760.31941445787777
20
99.303499767373538
30
0
10
760.14517064316556
20
99.090136284556948
30
0
10
759.93891267465403
20
98.855434554313973
30
0
10
759.9638077488288
20
98.581618582094407
30
0
0
SPLINE
5
172
100
AcDbEntity
8
0
100
AcDbSpline
70
4
71
3
72
8
73
4
74
0
42
0.000000001
43
0.0000000001
44
0.0000000001
40
0
40
0
40
0
40
0
40
1
40
1
40
1
40
1
41
1
41
1
41
1
41
1
10
786.08667355693251
20
100.22096572785513
30
0
10
785.56038257298371
20
99.65910647642248
30
0
10
784.81715500108646
20
99.360398143092027
30
0
10
784.10239289543188
20
99.083025344124067
30
0
0
LWPOLYLINE
5
173
100
AcDbEntity
8
0
100
AcDbPolyline
90
10
70
1
43
0.0
10
694.88614767653883
20
39.998997707951951
10
694.88614767653883
20
38.842581172574448
10
694.54929366571844
20
38.842581172574448
10
694.54929366571844
20
41.388086338628227
10
696.26655451817453
20
41.388086338628227
10
696.26655451817453
20
41.087695916284019
10
694.88614767653883
20
41.087695916284019
10
694.88614767653883
20
40.299388130296165
10
696.0807638601774
20
40.299388130296165
10
696.0807638601774
20
39.998997707951951
0
SPLINE
5
174
100
AcDbEntity
8
0
100
AcDbSpline
70
4
71
3
72
8
73
4
74
0
42
0.000000001
43
0.0000000001
44
0.0000000001
40
0
40
0
40
0
40
0
40
1
40
1
40
1
40
1
41
1
41
1
41
1
41
1
10
728.54596368615921
20
78.361823601590274
30
0
10
729.06159232905452
20
78.290703345006037
30
0
10
729.59856193244025
20
78.205355781428295
30
0
10
730.02528889807331
20
77.910201561782344
30
0
0
SPLINE
5
175
100
AcDbEntity
8
0
100
AcDbSpline
70
4
71
3
72
8
73
4
74
0
42
0.000000001
43
0.0000000001
44
0.0000000001
40
0
40
0
40
0
40
0
40
1
40
1
40
1
40
1
41
1
41
1
41
1
41
1
10
776.691539528867
20
117.44300079041591
30
0
10
775.41491274565203
20
116.53620395364747
30
0
10
774.13828596243707
20
115.63296258709551
30
0
10
772.86520786677875
20
114.72616507206112
30
0
0
SPLINE
5
176
100
AcDbEntity
8
0
100
AcDbSpline
70
4
71
3
72
8
73
4
74
0
42
0.000000001
43
0.0000000001
44
0.0000000001
40
0
40
0
40
0
40
0
40
1
40
1
40
1
40
1
41
1
41
1
41
1
41
1
10
759.9638077488288
20
98.581618582094407
30
0
10
759.99937059018475
20
98.201119511934564
30
0
10
760.42965166950239
20
98.016205216977255
30
0
10
760.76748238400114
20
97.845512802885651
30
0
0
SPLINE
5
177
100
AcDbEntity
8
0
100
AcDbSpline
70
4
71
3
72
8
73
4
74
0
42
0.000000001
43
0.0000000001
44
0.0000000001
40
0
40
0
40
0
40
0
40
1
40
1
40
1
40
1
41
1
41
1
41
1
41
1
10
724.38536627551207
20
108.19366749359709
30
0
10
725.18192725718768
20
108.97600252481115
30
0
10
726.2665233788847
20
109.38850625304666
30
0
10
727.34045715952834
20
109.69432823987387
30
0
0
SPLINE
5
178
100
AcDbEntity
8
0
100
AcDbSpline
70
4
71
3
72
8
73
4
74
0
42
0.000000001
43
0.0000000001
44
0.0000000001
40
0
40
0
40
0
40
0
40
1
40
1
40
1
40
1
41
1
41
1
41
1
41
1
10
777.12182060818475
20
117.92306998328516
30
0
10
777.06136269265403
20
117.71326197068501
30
0
10
776.86934288339148
20
117.57101942271862
30
0
10
776.691539528867
20
117.44300079041591
30
0
0
LWPOLYLINE
5
179
100
AcDbEntity
8
0
100
AcDbPolyline
90
12
70
1
43
0.0
10
743.77851412230439
20
41.48597543041884
10
743.77851412230439
20
40.706349358965745
10
745.1867026888699
20
40.706349358965745
10
745.1867026888699
20
40.407695219923845
10
743.77851412230439
20
40.407695219923845
10
743.77851412230439
20
39.541251109053484
10
745.34123875730938
20
39.541251109053484
10
745.34123875730938
20
39.240860686709269
10
743.44166009285755
20
39.240860686709269
10
743.44166009285755
20
41.786365852763055
10
745.28220259183354
20
41.786365852763055
10
745.28220259183354
20
41.48597543041884
0
SPLINE
5
180
100
AcDbEntity
8
0
100
AcDbSpline
70
4
71
3
72
8
73
4
74
0
42
0.000000001
43
0.0000000001
44
0.0000000001
40
0
40
0
40
0
40
0
40
1
40
1
40
1
40
1
41
1
41
1
41
1
41
1
10
760.99151634706288
20
103.12982871639804
30
0
10
761.51781818326731
20
101.87453746754549
30
0
10
761.1764279289564
20
100.35965212733912
30
0
10
760.31941445787777
20
99.303499767373538
30
0
0
SPLINE
5
181
100
AcDbEntity
8
0
100
AcDbSpline
70
4
71
3
72
8
73
4
74
0
42
0.000000001
43
0.0000000001
44
0.0000000001
40
0
40
0
40
0
40
0
40
1
40
1
40
1
40
1
41
1
41
1
41
1
41
1
10
728.54596368615921
20
78.361823601590274
30
0
10
729.06159232905452
20
78.290703345006037
30
0
10
729.59856193244025
20
78.205355781428295
30
0
10
730.02528889807331
20
77.910201561782344
30
0
0
SPLINE
5
182
100
AcDbEntity
8
0
100
AcDbSpline
70
4
71
3
72
8
73
4
74
0
42
0.000000001
43
0.0000000001
44
0.0000000001
40
0
40
0
40
0
40
0
40
1
40
1
40
1
40
1
41
1
41
1
41
1
41
1
10
725.83979641325163
20
95.711872548591984
30
0
10
724.71963745019843
20
97.184084107009483
30
0
10
724.10443393673177
20
98.972785419435468
30
0
10
723.60303260082992
20
100.75081896468018
30
0
0
SPLINE
5
183
100
AcDbEntity
8
0
100
AcDbSpline
70
4
71
3
72
8
73
4
74
0
42
0.000000001
43
0.0000000001
44
0.0000000001
40
0
40
0
40
0
40
0
40
1
40
1
40
1
40
1
41
1
41
1
41
1
41
1
10
719.12238589636218
20
60.897977903151592
30
0
10
718.42184024544554
20
59.255076643706353
30
0
10
718.38272329040501
20
57.341910812662164
30
0
10
719.0157027984219
20
55.67056036535768
30
0
0
SPLINE
5
184
100
AcDbEntity
8
0
100
AcDbSpline
70
4
71
3
72
8
73
4
74
0
42
0.000000001
43
0.0000000001
44
0.0000000001
40
0
40
0
40
0
40
0
40
1
40
1
40
1
40
1
41
1
41
1
41
1
41
1
10
759.9638077488288
20
98.581618582094407
30
0
10
759.99937059018475
20
98.201119511934564
30
0
10
760.42965166950239
20
98.016205216977255
30
0
10
760.76748238400114
20
97.845512802885651
30
0
0
LWPOLYLINE
5
185
100
AcDbEntity
8
0
100
AcDbPolyline
90
4
70
1
43
0.0
10
745.33123881318886
20
39.230860686709292
10
745.33123881318886
20
42.786927777198699
10
743.43166009285767
20
42.786927777198699
10
743.43166009285767
20
39.230860686709292
0
SPLINE
5
186
100
AcDbEntity
8
0
100
AcDbSpline
70
4
71
3
72
8
73
4
74
0
42
0.000000001
43
0.0000000001
44
0.0000000001
40
0
40
0
40
0
40
0
40
1
40
1
40
1
40
1
41
1
41
1
41
1
41
1
10
779.34792207955286
20
113.52421401564675
30
0
10
779.81732554003884
20
113.21839202881954
30
0
10
780.30094545526265
20
112.78455140968961
30
0
10
780.30450499507492
20
112.22624898500534
30
0
0
CIRCLE
5
187
100
AcDbEntity
8
0
100
AcDbCircle
10
718.89769175106244
20
60.217064882594286
30
0
40
3.5003458974729695
210
0
220
0
230
1
0
SPLINE
5
188
100
AcDbEntity
8
0
100
AcDbSpline
70
4
71
3
72
8
73
4
74
0
42
0.000000001
43
0.0000000001
44
0.0000000001
40
0
40
0
40
0
40
0
40
1
40
1
40
1
40
1
41
1
41
1
41
1
41
1
10
717.21277960513021
20
56.083065450125119
30
0
10
716.49445253353565
20
56.107960524299884
30
0
10
715.92192551492167
20
55.5318739658737
30
0
10
715.41341052552298
20
55.026913090159525
30
0
0
SPLINE
5
189
100
AcDbEntity
8
0
100
AcDbSpline
70
4
71
3
72
8
73
4
74
0
42
0.000000001
43
0.0000000001
44
0.0000000001
40
0
40
0
40
0
40
0
40
1
40
1
40
1
40
1
41
1
41
1
41
1
41
1
10
721.99568333048524
20
73.32287718550208
30
0
10
722.04191393902238
20
72.995719664312389
30
0
10
722.44730537029318
20
72.88192291287541
30
0
10
722.77090335167043
20
72.839251844150411
30
0
0
CIRCLE
5
190
100
AcDbEntity
8
0
100
AcDbCircle
10
718.89769175106244
20
60.217064882594286
30
0
40
3.5003458974729695
210
0
220
0
230
1
0
SPLINE
5
191
100
AcDbEntity
8
0
100
AcDbSpline
70
4
71
3
72
8
73
4
74
0
42
0.000000001
43
0.0000000001
44
0.0000000001
40
0
40
0
40
0
40
0
40
1
40
1
40
1
40
1
41
1
41
1
41
1
41
1
10
725.83979641325163
20
95.711872548591984
30
0
10
724.71963745019843
20
97.184084107009483
30
0
10
724.10443393673177
20
98.972785419435468
30
0
10
723.60303260082992
20
100.75081896468018
30
0
0
CIRCLE
5
192
100
AcDbEntity
8
0
100
AcDbCircle
10
-738.15801259766181
20
95.566075534242799
30
0
40
3.5845156272133485
210
0
220
0
230
-1
0
SPLINE
5
193
100
AcDbEntity
8
0
100
AcDbSpline
70
4
71
3
72
8
73
4
74
0
42
0.000000001
43
0.0000000001
44
0.0000000001
40
0
40
0
40
0
40
0
40
1
40
1
40
1
40
1
41
1
41
1
41
1
41
1
10
760.76748238400114
20
97.845512802885651
30
0
10
762.63441760650812
20
96.892486714111925
30
0
10
762.84778380238868
20
93.823601791722538
30
0
10
761.13019732041903
20
92.618095265091739
30
0
0
SPLINE
5
194
100
AcDbEntity
8
0
100
AcDbSpline
70
4
71
3
72
8
73
4
74
0
42
0.000000001
43
0.0000000001
44
0.0000000001
40
0
40
0
40
0
40
0
40
1
40
1
40
1
40
1
41
1
41
1
41
1
41
1
10
780.30450499507492
20
112.22624898500534
30
0
10
780.31517276225622
20
111.04919028970184
30
0
10
778.4020069312121
20
110.76826202051745
30
0
10
778.09263083070039
20
109.63032028025445
30
0
0
SPLINE
5
195
100
AcDbEntity
8
0
100
AcDbSpline
70
4
71
3
72
8
73
4
74
0
42
0.000000001
43
0.0000000001
44
0.0000000001
40
0
40
0
40
0
40
0
40
1
40
1
40
1
40
1
41
1
41
1
41
1
41
1
10
784.07393828144495
20
105.51239393833235
30
0
10
783.59031836622091
20
104.6589372940021
30
0
10
782.75108088969262
20
104.07929933495532
30
0
10
781.93673848733897
20
103.52810920723584
30
0
0
SPLINE
5
196
100
AcDbEntity
8
0
100
AcDbSpline
70
4
71
3
72
8
73
4
74
0
42
0.000000001
43
0.0000000001
44
0.0000000001
40
0
40
0
40
0
40
0
40
1
40
1
40
1
40
1
41
1
41
1
41
1
41
1
10
730.95342262573627
20
76.562454521983071
30
0
10
731.75353772109634
20
74.464377109045415
30
0
10
731.52239553066568
20
72.05691816946829
30
0
10
730.61559733736533
20
70.001511825255633
30
0
0
SPLINE
5
197
100
AcDbEntity
8
0
100
AcDbSpline
70
4
71
3
72
8
73
4
74
0
42
0.000000001
43
0.0000000001
44
0.0000000001
40
0
40
0
40
0
40
0
40
1
40
1
40
1
40
1
41
1
41
1
41
1
41
1
10
772.86520786677875
20
114.72616507206112
30
0
10
775.06997380378436
20
115.19912264623156
30
0
10
777.45609178287123
20
114.75461425992037
30
0
10
779.34792207955286
20
113.52421401564675
30
0
0
SPLINE
5
198
100
AcDbEntity
8
0
100
AcDbSpline
70
4
71
3
72
8
73
4
74
0
42
0.000000001
43
0.0000000001
44
0.0000000001
40
0
40
0
40
0
40
0
40
1
40
1
40
1
40
1
41
1
41
1
41
1
41
1
10
782.33146757755617
20
108.77686363592419
30
0
10
782.85420987394832
20
108.67018189451591
30
0
10
783.40184724451524
20
108.55638785614278
30
0
10
783.80723324965811
20
108.2114489142751
30
0
0
SPLINE
5
199
100
AcDbEntity
8
0
100
AcDbSpline
70
4
71
3
72
8
73
4
74
0
42
0.000000001
43
0.0000000001
44
0.0000000001
40
0
40
0
40
0
40
0
40
1
40
1
40
1
40
1
41
1
41
1
41
1
41
1
10
782.33146757755617
20
108.77686363592419
30
0
10
782.85420987394832
20
108.67018189451591
30
0
10
783.40184724451524
20
108.55638785614278
30
0
10
783.80723324965811
20
108.2114489142751
30
0
0
SPLINE
5
200
100
AcDbEntity
8
0
100
AcDbSpline
70
4
71
3
72
8
73
4
74
0
42
0.000000001
43
0.0000000001
44
0.0000000001
40
0
40
0
40
0
40
0
40
1
40
1
40
1
40
1
41
1
41
1
41
1
41
1
10
783.80723324965811
20
108.2114489142751
30
0
10
784.55755819666877
20
107.57846940625819
30
0
10
784.55755819666877
20
106.36585058266257
30
0
10
784.07393828144495
20
105.51239393833235
30
0
0
SPLINE
5
201
100
AcDbEntity
8
0
100
AcDbSpline
70
4
71
3
72
8
73
4
74
0
42
0.000000001
43
0.0000000001
44
0.0000000001
40
0
40
0
40
0
40
0
40
1
40
1
40
1
40
1
41
1
41
1
41
1
41
1
10
780.30450499507492
20
112.22624898500534
30
0
10
780.31517276225622
20
111.04919028970184
30
0
10
778.4020069312121
20
110.76826202051745
30
0
10
778.09263083070039
20
109.63032028025445
30
0
0
SPLINE
5
202
100
AcDbEntity
8
0
100
AcDbSpline
70
4
71
3
72
8
73
4
74
0
42
0.000000001
43
0.0000000001
44
0.0000000001
40
0
40
0
40
0
40
0
40
1
40
1
40
1
40
1
41
1
41
1
41
1
41
1
10
783.80723324965811
20
108.2114489142751
30
0
10
784.55755819666877
20
107.57846940625819
30
0
10
784.55755819666877
20
106.36585058266257
30
0
10
784.07393828144495
20
105.51239393833235
30
0
0
LWPOLYLINE
5
203
100
AcDbEntity
8
0
100
AcDbPolyline
90
4
70
1
43
0.0
10
743.43166009285767
20
42.786927777198699
10
743.43166009285767
20
39.230860686709292
10
745.33123881318886
20
39.230860686709292
10
745.33123881318886
20
42.786927777198699
0
SPLINE
5
204
100
AcDbEntity
8
0
100
AcDbSpline
70
4
71
3
72
8
73
4
74
0
42
0.000000001
43
0.0000000001
44
0.0000000001
40
0
40
0
40
0
40
0
40
1
40
1
40
1
40
1
41
1
41
1
41
1
41
1
10
778.09263083070039
20
109.63032028025445
30
0
10
779.50438989971485
20
109.34583518432166
30
0
10
780.9197085085417
20
109.06135008838889
30
0
10
782.33146757755617
20
108.77686363592419
30
0
0
SPLINE
5
205
100
AcDbEntity
8
0
100
AcDbSpline
70
4
71
3
72
8
73
4
74
0
42
0.000000001
43
0.0000000001
44
0.0000000001
40
0
40
0
40
0
40
0
40
1
40
1
40
1
40
1
41
1
41
1
41
1
41
1
10
786.08667355693251
20
100.22096572785513
30
0
10
785.56038257298371
20
99.65910647642248
30
0
10
784.81715500108646
20
99.360398143092027
30
0
10
784.10239289543188
20
99.083025344124067
30
0
0
SPLINE
5
206
100
AcDbEntity
8
0
100
AcDbSpline
70
4
71
3
72
8
73
4
74
0
42
0.000000001
43
0.0000000001
44
0.0000000001
40
0
40
0
40
0
40
0
40
1
40
1
40
1
40
1
41
1
41
1
41
1
41
1
10
760.76748238400114
20
97.845512802885651
30
0
10
762.63441760650812
20
96.892486714111925
30
0
10
762.84778380238868
20
93.823601791722538
30
0
10
761.13019732041903
20
92.618095265091739
30
0
0
SPLINE
5
207
100
AcDbEntity
8
0
100
AcDbSpline
70
4
71
3
72
8
73
4
74
0
42
0.000000001
43
0.0000000001
44
0.0000000001
40
0
40
0
40
0
40
0
40
1
40
1
40
1
40
1
41
1
41
1
41
1
41
1
10
778.09263083070039
20
109.63032028025445
30
0
10
779.50438989971485
20
109.34583518432166
30
0
10
780.9197085085417
20
109.06135008838889
30
0
10
782.33146757755617
20
108.77686363592419
30
0
0
SPLINE
5
208
100
AcDbEntity
8
0
100
AcDbSpline
70
4
71
3
72
8
73
4
74
0
42
0.000000001
43
0.0000000001
44
0.0000000001
40
0
40
0
40
0
40
0
40
1
40
1
40
1
40
1
41
1
41
1
41
1
41
1
10
786.42805295898802
20
102.3332704477863
30
0
10
786.8547853507489
20
101.69317728627264
30
0
10
786.61296454088142
20
100.7828249792878
30
0
10
786.08667355693251
20
100.22096572785513
30
0
0
SPLINE
5
209
100
AcDbEntity
8
0
100
AcDbSpline
70
4
71
3
72
8
73
4
74
0
42
0.000000001
43
0.0000000001
44
0.0000000001
40
0
40
0
40
0
40
0
40
1
40
1
40
1
40
1
41
1
41
1
41
1
41
1
10
781.93673848733897
20
103.52810920723584
30
0
10
783.18847019637928
20
102.51818745580752
30
0
10
785.53903618636571
20
103.6703524334682
30
0
10
786.42805295898802
20
102.3332704477863
30
0
0
SPLINE
5
210
100
AcDbEntity
8
0
100
AcDbSpline
70
4
71
3
72
8
73
4
74
0
42
0.000000001
43
0.0000000001
44
0.0000000001
40
0
40
0
40
0
40
0
40
1
40
1
40
1
40
1
41
1
41
1
41
1
41
1
10
757.68081875399776
20
104.84385430202332
30
0
10
758.98590015119976
20
105.22435337218313
30
0
10
760.46521451085846
20
104.38512132178253
30
0
10
760.99151634706288
20
103.12982871639804
30
0
0
SPLINE
5
211
100
AcDbEntity
8
0
100
AcDbSpline
70
4
71
3
72
8
73
4
74
0
42
0.000000001
43
0.0000000001
44
0.0000000001
40
0
40
0
40
0
40
0
40
1
40
1
40
1
40
1
41
1
41
1
41
1
41
1
10
760.99151634706288
20
103.12982871639804
30
0
10
761.51781818326731
20
101.87453746754549
30
0
10
761.1764279289564
20
100.35965212733912
30
0
10
760.31941445787777
20
99.303499767373538
30
0
0
SPLINE
5
212
100
AcDbEntity
8
0
100
AcDbSpline
70
4
71
3
72
8
73
4
74
0
42
0.000000001
43
0.0000000001
44
0.0000000001
40
0
40
0
40
0
40
0
40
1
40
1
40
1
40
1
41
1
41
1
41
1
41
1
10
757.68081875399776
20
104.84385430202332
30
0
10
758.98590015119976
20
105.22435337218313
30
0
10
760.46521451085846
20
104.38512132178253
30
0
10
760.99151634706288
20
103.12982871639804
30
0
0
SPLINE
5
213
100
AcDbEntity
8
0
100
AcDbSpline
70
4
71
3
72
8
73
4
74
0
42
0.000000001
43
0.0000000001
44
0.0000000001
40
0
40
0
40
0
40
0
40
1
40
1
40
1
40
1
41
1
41
1
41
1
41
1
10
777.12182060818475
20
117.92306998328516
30
0
10
777.06136269265403
20
117.71326197068501
30
0
10
776.86934288339148
20
117.57101942271862
30
0
10
776.691539528867
20
117.44300079041591
30
0
0
SPLINE
5
214
100
AcDbEntity
8
0
100
AcDbSpline
70
4
71
3
72
8
73
4
74
0
42
0.000000001
43
0.0000000001
44
0.0000000001
40
0
40
0
40
0
40
0
40
1
40
1
40
1
40
1
41
1
41
1
41
1
41
1
10
773.0785740626593
20
120.02470557950312
30
0
10
774.49744135904268
20
119.98914477294505
30
0
10
776.10479062938737
20
119.76511284468124
30
0
10
776.92978994666669
20
118.60939104027219
30
0
0
SPLINE
5
215
100
AcDbEntity
8
0
100
AcDbSpline
70
4
71
3
72
8
73
4
74
0
42
0.000000001
43
0.0000000001
44
0.0000000001
40
0
40
0
40
0
40
0
40
1
40
1
40
1
40
1
41
1
41
1
41
1
41
1
10
730.51958200660636
20
93.101720606443408
30
0
10
728.67042820477741
20
93.115945200373034
30
0
10
726.96351491611699
20
94.239660990174471
30
0
10
725.83979641325163
20
95.711872548591984
30
0
0
SPLINE
5
216
100
AcDbEntity
8
0
100
AcDbSpline
70
4
71
3
72
8
73
4
74
0
42
0.000000001
43
0.0000000001
44
0.0000000001
40
0
40
0
40
0
40
0
40
1
40
1
40
1
40
1
41
1
41
1
41
1
41
1
10
776.92978994666669
20
118.60939104027219
30
0
10
777.07203045983522
20
118.41025147311925
30
0
10
777.1893867510845
20
118.15777035699618
30
0
10
777.12182060818475
20
117.92306998328516
30
0
0
SPLINE
5
217
100
AcDbEntity
8
0
100
AcDbSpline
70
4
71
3
72
8
73
4
74
0
42
0.000000001
43
0.0000000001
44
0.0000000001
40
0
40
0
40
0
40
0
40
1
40
1
40
1
40
1
41
1
41
1
41
1
41
1
10
763.96793191318602
20
119.08945955487546
30
0
10
766.94791787137717
20
119.78644837904372
30
0
10
770.01680550683034
20
120.10293881131815
30
0
10
773.0785740626593
20
120.02470557950312
30
0
0
SPLINE
5
218
100
AcDbEntity
8
0
100
AcDbSpline
70
4
71
3
72
8
73
4
74
0
42
0.000000001
43
0.0000000001
44
0.0000000001
40
0
40
0
40
0
40
0
40
1
40
1
40
1
40
1
41
1
41
1
41
1
41
1
10
763.96793191318602
20
119.08945955487546
30
0
10
766.94791787137717
20
119.78644837904372
30
0
10
770.01680550683034
20
120.10293881131815
30
0
10
773.0785740626593
20
120.02470557950312
30
0
0
SPLINE
5
219
100
AcDbEntity
8
0
100
AcDbSpline
70
4
71
3
72
8
73
4
74
0
42
0.000000001
43
0.0000000001
44
0.0000000001
40
0
40
0
40
0
40
0
40
1
40
1
40
1
40
1
41
1
41
1
41
1
41
1
10
722.77090335167043
20
72.839251844150411
30
0
10
725.17124863775098
20
72.529875743638726
30
0
10
727.57870757732803
20
72.298728127080253
30
0
10
729.99327474427423
20
72.156487613911779
30
0
0
SPLINE
5
220
100
AcDbEntity
8
0
100
AcDbSpline
70
4
71
3
72
8
73
4
74
0
42
0.000000001
43
0.0000000001
44
0.0000000001
40
0
40
0
40
0
40
0
40
1
40
1
40
1
40
1
41
1
41
1
41
1
41
1
10
726.03182164864177
20
49.963071599896587
30
0
10
723.19052208993469
20
51.357049248233118
30
0
10
721.01421076691611
20
53.800065603038476
30
0
10
718.40050471108293
20
55.581658688095445
30
0
0
SPLINE
5
221
100
AcDbEntity
8
0
100
AcDbSpline
70
4
71
3
72
8
73
4
74
0
42
0.000000001
43
0.0000000001
44
0.0000000001
40
0
40
0
40
0
40
0
40
1
40
1
40
1
40
1
41
1
41
1
41
1
41
1
10
726.61501643443682
20
73.532683841570304
30
0
10
726.17762170162246
20
74.297236095574434
30
0
10
725.34194376490632
20
74.816424278282099
30
0
10
724.4635947594652
20
74.869763114188331
30
0
0
SPLINE
5
222
100
AcDbEntity
8
0
100
AcDbSpline
70
4
71
3
72
8
73
4
74
0
42
0.000000001
43
0.0000000001
44
0.0000000001
40
0
40
0
40
0
40
0
40
1
40
1
40
1
40
1
41
1
41
1
41
1
41
1
10
722.77090335167043
20
72.839251844150411
30
0
10
725.17124863775098
20
72.529875743638726
30
0
10
727.57870757732803
20
72.298728127080253
30
0
10
729.99327474427423
20
72.156487613911779
30
0
0
SPLINE
5
223
100
AcDbEntity
8
0
100
AcDbSpline
70
4
71
3
72
8
73
4
74
0
42
0.000000001
43
0.0000000001
44
0.0000000001
40
0
40
0
40
0
40
0
40
1
40
1
40
1
40
1
41
1
41
1
41
1
41
1
10
717.21277960513021
20
56.083065450125119
30
0
10
716.49445253353565
20
56.107960524299884
30
0
10
715.92192551492167
20
55.5318739658737
30
0
10
715.41341052552298
20
55.026913090159525
30
0
0
SPLINE
5
224
100
AcDbEntity
8
0
100
AcDbSpline
70
4
71
3
72
8
73
4
74
0
42
0.000000001
43
0.0000000001
44
0.0000000001
40
0
40
0
40
0
40
0
40
1
40
1
40
1
40
1
41
1
41
1
41
1
41
1
10
717.04919813147148
20
41.794785058952172
30
0
10
718.18358440151792
20
41.556529215024696
30
0
10
719.37130950747087
20
41.414283275728465
30
0
10
720.55192638605467
20
41.464073424077981
30
0
0
SPLINE
5
225
100
AcDbEntity
8
0
100
AcDbSpline
70
4
71
3
72
8
73
4
74
0
42
0.000000001
43
0.0000000001
44
0.0000000001
40
0
40
0
40
0
40
0
40
1
40
1
40
1
40
1
41
1
41
1
41
1
41
1
10
730.95342262573627
20
76.562454521983071
30
0
10
731.75353772109634
20
74.464377109045415
30
0
10
731.52239553066568
20
72.05691816946829
30
0
10
730.61559733736533
20
70.001511825255633
30
0
0
SPLINE
5
226
100
AcDbEntity
8
0
100
AcDbSpline
70
4
71
3
72
8
73
4
74
0
42
0.000000001
43
0.0000000001
44
0.0000000001
40
0
40
0
40
0
40
0
40
1
40
1
40
1
40
1
41
1
41
1
41
1
41
1
10
716.81805594104071
20
59.621345693808784
30
0
10
717.24478290667389
20
58.558079680346452
30
0
10
717.2234473723114
20
57.324123965856408
30
0
10
716.76115756532226
20
56.275085259387566
30
0
0
SPLINE
5
227
100
AcDbEntity
8
0
100
AcDbSpline
70
4
71
3
72
8
73
4
74
0
42
0.000000001
43
0.0000000001
44
0.0000000001
40
0
40
0
40
0
40
0
40
1
40
1
40
1
40
1
41
1
41
1
41
1
41
1
10
723.60303260082992
20
100.75081896468018
30
0
10
722.89537329641644
20
103.27562605631488
30
0
10
722.51843105300509
20
106.35518145894937
30
0
10
724.38536627551207
20
108.19366749359709
30
0
0
SPLINE
5
228
100
AcDbEntity
8
0
100
AcDbSpline
70
4
71
3
72
8
73
4
74
0
42
0.000000001
43
0.0000000001
44
0.0000000001
40
0
40
0
40
0
40
0
40
1
40
1
40
1
40
1
41
1
41
1
41
1
41
1
10
723.60303260082992
20
100.75081896468018
30
0
10
722.89537329641644
20
103.27562605631488
30
0
10
722.51843105300509
20
106.35518145894937
30
0
10
724.38536627551207
20
108.19366749359709
30
0
0
SPLINE
5
229
100
AcDbEntity
8
0
100
AcDbSpline
70
4
71
3
72
8
73
4
74
0
42
0.000000001
43
0.0000000001
44
0.0000000001
40
0
40
0
40
0
40
0
40
1
40
1
40
1
40
1
41
1
41
1
41
1
41
1
10
773.0785740626593
20
120.02470557950312
30
0
10
774.49744135904268
20
119.98914477294505
30
0
10
776.10479062938737
20
119.76511284468124
30
0
10
776.92978994666669
20
118.60939104027219
30
0
0
SPLINE
5
230
100
AcDbEntity
8
0
100
AcDbSpline
70
4
71
3
72
8
73
4
74
0
42
0.000000001
43
0.0000000001
44
0.0000000001
40
0
40
0
40
0
40
0
40
1
40
1
40
1
40
1
41
1
41
1
41
1
41
1
10
746.27650899025662
20
109.49874482120333
30
0
10
751.20521276859245
20
107.0806194709769
30
0
10
753.18594474253644
20
101.00330211560113
30
0
10
753.28907372679214
20
95.51273365970502
30
0
0
SPLINE
5
231
100
AcDbEntity
8
0
100
AcDbSpline
70
4
71
3
72
8
73
4
74
0
42
0.000000001
43
0.0000000001
44
0.0000000001
40
0
40
0
40
0
40
0
40
1
40
1
40
1
40
1
41
1
41
1
41
1
41
1
10
724.38536627551207
20
108.19366749359709
30
0
10
725.18192725718768
20
108.97600252481115
30
0
10
726.2665233788847
20
109.38850625304666
30
0
10
727.34045715952834
20
109.69432823987387
30
0
0
SPLINE
5
232
100
AcDbEntity
8
0
100
AcDbSpline
70
4
71
3
72
8
73
4
74
0
42
0.000000001
43
0.0000000001
44
0.0000000001
40
0
40
0
40
0
40
0
40
1
40
1
40
1
40
1
41
1
41
1
41
1
41
1
10
730.02528889807331
20
77.910201561782344
30
0
10
730.48046505156572
20
77.5937118077739
30
0
10
730.75428373684929
20
77.078083164878493
30
0
10
730.95342262573627
20
76.562454521983071
30
0
0
SPLINE
5
233
100
AcDbEntity
8
0
100
AcDbSpline
70
4
71
3
72
8
73
4
74
0
42
0.000000001
43
0.0000000001
44
0.0000000001
40
0
40
0
40
0
40
0
40
1
40
1
40
1
40
1
41
1
41
1
41
1
41
1
10
721.99568333048524
20
73.32287718550208
30
0
10
722.04191393902238
20
72.995719664312389
30
0
10
722.44730537029318
20
72.88192291287541
30
0
10
722.77090335167043
20
72.839251844150411
30
0
0
SPLINE
5
234
100
AcDbEntity
8
0
100
AcDbSpline
70
4
71
3
72
8
73
4
74
0
42
0.000000001
43
0.0000000001
44
0.0000000001
40
0
40
0
40
0
40
0
40
1
40
1
40
1
40
1
41
1
41
1
41
1
41
1
10
734.99666374513413
20
106.47253368060282
30
0
10
737.70282559191389
20
104.39934727224409
30
0
10
739.74045594157633
20
101.46914603627481
30
0
10
740.74326946563565
20
98.208233165431338
30
0
0
SPLINE
5
235
100
AcDbEntity
8
0
100
AcDbSpline
70
4
71
3
72
8
73
4
74
0
42
0.000000001
43
0.0000000001
44
0.0000000001
40
0
40
0
40
0
40
0
40
1
40
1
40
1
40
1
41
1
41
1
41
1
41
1
10
722.16637303151288
20
73.799388873357003
30
0
10
722.06324947338487
20
73.66070247387303
30
0
10
721.97078825631036
20
73.497121000214307
30
0
10
721.99568333048524
20
73.32287718550208
30
0
0
SPLINE
5
236
100
AcDbEntity
8
0
100
AcDbSpline
70
4
71
3
72
8
73
4
74
0
42
0.000000001
43
0.0000000001
44
0.0000000001
40
0
40
0
40
0
40
0
40
1
40
1
40
1
40
1
41
1
41
1
41
1
41
1
10
734.99666374513413
20
106.47253368060282
30
0
10
737.70282559191389
20
104.39934727224409
30
0
10
739.74045594157633
20
101.46914603627481
30
0
10
740.74326946563565
20
98.208233165431338
30
0
0
SPLINE
5
237
100
AcDbEntity
8
0
100
AcDbSpline
70
4
71
3
72
8
73
4
74
0
42
0.000000001
43
0.0000000001
44
0.0000000001
40
0
40
0
40
0
40
0
40
1
40
1
40
1
40
1
41
1
41
1
41
1
41
1
10
730.02528889807331
20
77.910201561782344
30
0
10
730.48046505156572
20
77.5937118077739
30
0
10
730.75428373684929
20
77.078083164878493
30
0
10
730.95342262573627
20
76.562454521983071
30
0
0
SPLINE
5
238
100
AcDbEntity
8
0
100
AcDbSpline
70
4
71
3
72
8
73
4
74
0
42
0.000000001
43
0.0000000001
44
0.0000000001
40
0
40
0
40
0
40
0
40
1
40
1
40
1
40
1
41
1
41
1
41
1
41
1
10
730.51958200660636
20
93.101720606443408
30
0
10
728.67042820477741
20
93.115945200373034
30
0
10
726.96351491611699
20
94.239660990174471
30
0
10
725.83979641325163
20
95.711872548591984
30
0
0
LWPOLYLINE
5
239
100
AcDbEntity
8
0
100
AcDbPolyline
90
12
70
1
43
0.0
10
745.34123875730938
20
39.240860686709269
10
743.44166009285755
20
39.240860686709269
10
743.44166009285755
20
41.786365852763055
10
745.28220259183354
20
41.786365852763055
10
745.28220259183354
20
41.48597543041884
10
743.77851412230439
20
41.48597543041884
10
743.77851412230439
20
40.706349358965745
10
745.1867026888699
20
40.706349358965745
10
745.1867026888699
20
40.407695219923845
10
743.77851412230439
20
40.407695219923845
10
743.77851412230439
20
39.541251109053484
10
745.34123875730938
20
39.541251109053484
0
SPLINE
5
240
100
AcDbEntity
8
0
100
AcDbSpline
70
4
71
3
72
8
73
4
74
0
42
0.000000001
43
0.0000000001
44
0.0000000001
40
0
40
0
40
0
40
0
40
1
40
1
40
1
40
1
41
1
41
1
41
1
41
1
10
772.86520786677875
20
114.72616507206112
30
0
10
775.06997380378436
20
115.19912264623156
30
0
10
777.45609178287123
20
114.75461425992037
30
0
10
779.34792207955286
20
113.52421401564675
30
0
0
SPLINE
5
241
100
AcDbEntity
8
0
100
AcDbSpline
70
4
71
3
72
8
73
4
74
0
42
0.000000001
43
0.0000000001
44
0.0000000001
40
0
40
0
40
0
40
0
40
1
40
1
40
1
40
1
41
1
41
1
41
1
41
1
10
746.27650899025662
20
109.49874482120333
30
0
10
751.20521276859245
20
107.0806194709769
30
0
10
753.18594474253644
20
101.00330211560113
30
0
10
753.28907372679214
20
95.51273365970502
30
0
0
SPLINE
5
242
100
AcDbEntity
8
0
100
AcDbSpline
70
4
71
3
72
8
73
4
74
0
42
0.000000001
43
0.0000000001
44
0.0000000001
40
0
40
0
40
0
40
0
40
1
40
1
40
1
40
1
41
1
41
1
41
1
41
1
10
722.16637303151288
20
73.799388873357003
30
0
10
722.06324947338487
20
73.66070247387303
30
0
10
721.97078825631036
20
73.497121000214307
30
0
10
721.99568333048524
20
73.32287718550208
30
0
0
SPLINE
5
243
100
AcDbEntity
8
0
100
AcDbSpline
70
4
71
3
72
8
73
4
74
0
42
0.000000001
43
0.0000000001
44
0.0000000001
40
0
40
0
40
0
40
0
40
1
40
1
40
1
40
1
41
1
41
1
41
1
41
1
10
726.03182164864177
20
49.963071599896587
30
0
10
723.19052208993469
20
51.357049248233118
30
0
10
721.01421076691611
20
53.800065603038476
30
0
10
718.40050471108293
20
55.581658688095445
30
0
0
SPLINE
5
244
100
AcDbEntity
8
0
100
AcDbSpline
70
4
71
3
72
8
73
4
74
0
42
0.000000001
43
0.0000000001
44
0.0000000001
40
0
40
0
40
0
40
0
40
1
40
1
40
1
40
1
41
1
41
1
41
1
41
1
10
724.4635947594652
20
74.869763114188331
30
0
10
723.58524575402407
20
74.923101950094576
30
0
10
722.69267486771719
20
74.507042751642643
30
0
10
722.16637303151288
20
73.799388873357003
30
0
0
SPLINE
5
245
100
AcDbEntity
8
0
100
AcDbSpline
70
4
71
3
72
8
73
4
74
0
42
0.000000001
43
0.0000000001
44
0.0000000001
40
0
40
0
40
0
40
0
40
1
40
1
40
1
40
1
41
1
41
1
41
1
41
1
10
707.07087474373861
20
49.049159753099488
30
0
10
708.35461518045031
20
45.646000942959787
30
0
10
712.26984309367322
20
42.801147270568251
30
0
10
717.04919813147148
20
41.794785058952172
30
0
0
LWPOLYLINE
5
246
100
AcDbEntity
8
0
100
AcDbPolyline
90
4
70
1
43
0.0
10
694.53929366571856
20
38.832581172574464
10
696.25655444366885
20
38.832581172574464
10
696.25655444366885
20
42.388648263063885
10
694.53929366571845
20
42.388648263063885
0
SPLINE
5
247
100
AcDbEntity
8
0
100
AcDbSpline
70
4
71
3
72
8
73
4
74
0
42
0.000000001
43
0.0000000001
44
0.0000000001
40
0
40
0
40
0
40
0
40
1
40
1
40
1
40
1
41
1
41
1
41
1
41
1
10
724.4635947594652
20
74.869763114188331
30
0
10
723.58524575402407
20
74.923101950094576
30
0
10
722.69267486771719
20
74.507042751642643
30
0
10
722.16637303151288
20
73.799388873357003
30
0
0
SPLINE
5
248
100
AcDbEntity
8
0
100
AcDbSpline
70
4
71
3
72
8
73
4
74
0
42
0.000000001
43
0.0000000001
44
0.0000000001
40
0
40
0
40
0
40
0
40
1
40
1
40
1
40
1
41
1
41
1
41
1
41
1
10
737.89130756587508
20
110.807377619026
30
0
10
740.74682900544781
20
110.82515768317205
30
0
10
743.71258765664538
20
110.75403607005586
30
0
10
746.27650899025662
20
109.49874482120333
30
0
0
SPLINE
5
249
100
AcDbEntity
8
0
100
AcDbSpline
70
4
71
3
72
8
73
4
74
0
42
0.000000001
43
0.0000000001
44
0.0000000001
40
0
40
0
40
0
40
0
40
1
40
1
40
1
40
1
41
1
41
1
41
1
41
1
10
717.04919813147148
20
41.794785058952172
30
0
10
718.18358440151792
20
41.556529215024696
30
0
10
719.37130950747087
20
41.414283275728465
30
0
10
720.55192638605467
20
41.464073424077981
30
0
0
SPLINE
5
250
100
AcDbEntity
8
0
100
AcDbSpline
70
4
71
3
72
8
73
4
74
0
42
0.000000001
43
0.0000000001
44
0.0000000001
40
0
40
0
40
0
40
0
40
1
40
1
40
1
40
1
41
1
41
1
41
1
41
1
10
719.12238589636218
20
60.897977903151592
30
0
10
718.42184024544554
20
59.255076643706353
30
0
10
718.38272329040501
20
57.341910812662164
30
0
10
719.0157027984219
20
55.67056036535768
30
0
0
SPLINE
5
251
100
AcDbEntity
8
0
100
AcDbSpline
70
4
71
3
72
8
73
4
74
0
42
0.000000001
43
0.0000000001
44
0.0000000001
40
0
40
0
40
0
40
0
40
1
40
1
40
1
40
1
41
1
41
1
41
1
41
1
10
716.81805594104071
20
59.621345693808784
30
0
10
717.24478290667389
20
58.558079680346452
30
0
10
717.2234473723114
20
57.324123965856408
30
0
10
716.76115756532226
20
56.275085259387566
30
0
0
LWPOLYLINE
5
252
100
AcDbEntity
8
0
100
AcDbPolyline
90
4
70
1
43
0.0
10
694.53929366571856
20
38.832581172574464
10
696.25655444366885
20
38.832581172574464
10
696.25655444366885
20
42.388648263063885
10
694.53929366571845
20
42.388648263063885
0
SPLINE
5
253
100
AcDbEntity
8
0
100
AcDbSpline
70
4
71
3
72
8
73
4
74
0
42
0.000000001
43
0.0000000001
44
0.0000000001
40
0
40
0
40
0
40
0
40
1
40
1
40
1
40
1
41
1
41
1
41
1
41
1
10
776.691539528867
20
117.44300079041591
30
0
10
775.41491274565203
20
116.53620395364747
30
0
10
774.13828596243707
20
115.63296258709551
30
0
10
772.86520786677875
20
114.72616507206112
30
0
0
SPLINE
5
254
100
AcDbEntity
8
0
100
AcDbSpline
70
4
71
3
72
8
73
4
74
0
42
0.000000001
43
0.0000000001
44
0.0000000001
40
0
40
0
40
0
40
0
40
1
40
1
40
1
40
1
41
1
41
1
41
1
41
1
10
706.71171392100518
20
77.771515162298371
30
0
10
713.89141424488366
20
79.154825043453641
30
0
10
721.29870264550857
20
79.357523472152863
30
0
10
728.54596368615921
20
78.361823601590274
30
0
0
SPLINE
5
255
100
AcDbEntity
8
0
100
AcDbSpline
70
4
71
3
72
8
73
4
74
0
42
0.000000001
43
0.0000000001
44
0.0000000001
40
0
40
0
40
0
40
0
40
1
40
1
40
1
40
1
41
1
41
1
41
1
41
1
10
737.89130756587508
20
110.807377619026
30
0
10
740.74682900544781
20
110.82515768317205
30
0
10
743.71258765664538
20
110.75403607005586
30
0
10
746.27650899025662
20
109.49874482120333
30
0
0
SPLINE
5
256
100
AcDbEntity
8
0
100
AcDbSpline
70
4
71
3
72
8
73
4
74
0
42
0.000000001
43
0.0000000001
44
0.0000000001
40
0
40
0
40
0
40
0
40
1
40
1
40
1
40
1
41
1
41
1
41
1
41
1
10
743.84771994244488
20
77.376791498208931
30
0
10
744.66561103235517
20
72.423192645698492
30
0
10
745.48706166207796
20
67.373573036301295
30
0
10
744.7474044822485
20
62.405746876797338
30
0
0
SPLINE
5
257
100
AcDbEntity
8
0
100
AcDbSpline
70
4
71
3
72
8
73
4
74
0
42
0.000000001
43
0.0000000001
44
0.0000000001
40
0
40
0
40
0
40
0
40
1
40
1
40
1
40
1
41
1
41
1
41
1
41
1
10
727.34045715952834
20
109.69432823987387
30
0
10
730.75072419703702
20
110.66869121954201
30
0
10
734.34590824256691
20
110.78959755487993
30
0
10
737.89130756587508
20
110.807377619026
30
0
0
SPLINE
5
258
100
AcDbEntity
8
0
100
AcDbSpline
70
4
71
3
72
8
73
4
74
0
42
0.000000001
43
0.0000000001
44
0.0000000001
40
0
40
0
40
0
40
0
40
1
40
1
40
1
40
1
41
1
41
1
41
1
41
1
10
757.25053767468
20
51.481513766851364
30
0
10
755.57563311369108
20
49.995080327568111
30
0
10
753.17528782761065
20
49.699926107922153
30
0
10
750.93851858906123
20
49.632359965022417
30
0
0
SPLINE
5
259
100
AcDbEntity
8
0
100
AcDbSpline
70
4
71
3
72
8
73
4
74
0
42
0.000000001
43
0.0000000001
44
0.0000000001
40
0
40
0
40
0
40
0
40
1
40
1
40
1
40
1
41
1
41
1
41
1
41
1
10
696.89696658080322
20
51.36060878804539
30
0
10
695.13315491642425
20
52.726137248522647
30
0
10
694.56062789781026
20
55.108701113925029
30
0
10
694.20146707507683
20
57.309907511118411
30
0
0
LWPOLYLINE
5
260
100
AcDbEntity
8
0
100
AcDbPolyline
90
3
70
1
43
0.0
10
744.89769116991715
20
125.71706520669444
10
744.89769116991715
20
114.7170636644243
10
692.89769233220773
20
114.7170636644243
0
SPLINE
5
261
100
AcDbEntity
8
0
100
AcDbSpline
70
4
71
3
72
8
73
4
74
0
42
0.000000001
43
0.0000000001
44
0.0000000001
40
0
40
0
40
0
40
0
40
1
40
1
40
1
40
1
41
1
41
1
41
1
41
1
10
690.09065438665164
20
51.211249195252392
30
0
10
691.44551507994765
20
52.306518510258464
30
0
10
692.81815719392159
20
53.853404438944708
30
0
10
694.53929236344777
20
53.597372600467011
30
0
0
SPLINE
5
262
100
AcDbEntity
8
0
100
AcDbSpline
70
4
71
3
72
8
73
4
74
0
42
0.000000001
43
0.0000000001
44
0.0000000001
40
0
40
0
40
0
40
0
40
1
40
1
40
1
40
1
41
1
41
1
41
1
41
1
10
759.59398458504188
20
57.505492286320887
30
0
10
759.49797468041072
20
55.293618121946253
30
0
10
758.90410670130655
20
52.95372532526887
30
0
10
757.25053767468
20
51.481513766851364
30
0
0
SPLINE
5
263
100
AcDbEntity
8
0
100
AcDbSpline
70
4
71
3
72
8
73
4
74
0
42
0.000000001
43
0.0000000001
44
0.0000000001
40
0
40
0
40
0
40
0
40
1
40
1
40
1
40
1
41
1
41
1
41
1
41
1
10
700.54904900205156
20
50.048419163474342
30
0
10
699.2510866844741
20
50.222668404314312
30
0
10
697.93178340640623
20
50.56049369268527
30
0
10
696.89696658080322
20
51.36060878804539
30
0
0
SPLINE
5
264
100
AcDbEntity
8
0
100
AcDbSpline
70
4
71
3
72
8
73
4
74
0
42
0.000000001
43
0.0000000001
44
0.0000000001
40
0
40
0
40
0
40
0
40
1
40
1
40
1
40
1
41
1
41
1
41
1
41
1
10
687.51251659830234
20
83.187401108734122
30
0
10
685.98340666416618
20
79.595773889952568
30
0
10
685.60646442075483
20
75.616533947514455
30
0
10
685.60290759400641
20
71.711973801472837
30
0
0
CIRCLE
5
265
100
AcDbEntity
8
0
100
AcDbCircle
10
718.89769175106244
20
80.217064435559422
30
0
40
5.8504773096964255
210
0
220
0
230
1
0
SPLINE
5
266
100
AcDbEntity
8
0
100
AcDbSpline
70
4
71
3
72
8
73
4
74
0
42
0.000000001
43
0.0000000001
44
0.0000000001
40
0
40
0
40
0
40
0
40
1
40
1
40
1
40
1
41
1
41
1
41
1
41
1
10
715.02580051493032
20
73.454449931489322
30
0
10
715.1218158456893
20
73.774493799182267
30
0
10
714.70575664723742
20
73.99497364855948
30
0
10
714.3750395862354
20
74.062539791459216
30
0
0
SPLINE
5
267
100
AcDbEntity
8
0
100
AcDbSpline
70
4
71
3
72
8
73
4
74
0
42
0.000000001
43
0.0000000001
44
0.0000000001
40
0
40
0
40
0
40
0
40
1
40
1
40
1
40
1
41
1
41
1
41
1
41
1
10
707.07087474373861
20
49.049159753099488
30
0
10
708.35461518045031
20
45.646000942959787
30
0
10
712.26984309367322
20
42.801147270568251
30
0
10
717.04919813147148
20
41.794785058952172
30
0
0
SPLINE
5
268
100
AcDbEntity
8
0
100
AcDbSpline
70
4
71
3
72
8
73
4
74
0
42
0.000000001
43
0.0000000001
44
0.0000000001
40
0
40
0
40
0
40
0
40
1
40
1
40
1
40
1
41
1
41
1
41
1
41
1
10
720.55192638605467
20
41.464073424077981
30
0
10
725.01123213003211
20
41.648990432099197
30
0
10
728.39305540580938
20
44.468949030315997
30
0
10
730.06440585311384
20
47.395590726473017
30
0
0
SPLINE
5
269
100
AcDbEntity
8
0
100
AcDbSpline
70
4
71
3
72
8
73
4
74
0
42
0.000000001
43
0.0000000001
44
0.0000000001
40
0
40
0
40
0
40
0
40
1
40
1
40
1
40
1
41
1
41
1
41
1
41
1
10
759.33438778062407
20
126.12336016490633
30
0
10
760.27674338915278
20
125.8851038122794
30
0
10
760.3265335375022
20
124.1177383733489
30
0
10
759.3521637751744
20
124.13551860706147
30
0
0
SPLINE
5
270
100
AcDbEntity
8
0
100
AcDbSpline
70
4
71
3
72
8
73
4
74
0
42
0.000000001
43
0.0000000001
44
0.0000000001
40
0
40
0
40
0
40
0
40
1
40
1
40
1
40
1
41
1
41
1
41
1
41
1
10
718.40050471108293
20
55.581658688095445
30
0
10
718.0413438883495
20
55.827028185519652
30
0
10
717.64662022426012
20
56.068838143131607
30
0
10
717.21277960513021
20
56.083065450125119
30
0
0
SPLINE
5
271
100
AcDbEntity
8
0
100
AcDbSpline
70
4
71
3
72
8
73
4
74
0
42
0.000000001
43
0.0000000001
44
0.0000000001
40
0
40
0
40
0
40
0
40
1
40
1
40
1
40
1
41
1
41
1
41
1
41
1
10
694.00232818618986
20
80.35321791658771
30
0
10
691.68377092387504
20
77.426576220430675
30
0
10
689.89151549776466
20
74.083869899693951
30
0
10
687.33114827783777
20
71.367034859605141
30
0
0
SPLINE
5
272
100
AcDbEntity
8
0
100
AcDbSpline
70
4
71
3
72
8
73
4
74
0
42
0.000000001
43
0.0000000001
44
0.0000000001
40
0
40
0
40
0
40
0
40
1
40
1
40
1
40
1
41
1
41
1
41
1
41
1
10
718.40050471108293
20
55.581658688095445
30
0
10
718.0413438883495
20
55.827028185519652
30
0
10
717.64662022426012
20
56.068838143131607
30
0
10
717.21277960513021
20
56.083065450125119
30
0
0
SPLINE
5
273
100
AcDbEntity
8
0
100
AcDbSpline
70
4
71
3
72
8
73
4
74
0
42
0.000000001
43
0.0000000001
44
0.0000000001
40
0
40
0
40
0
40
0
40
1
40
1
40
1
40
1
41
1
41
1
41
1
41
1
10
707.54028363035229
20
70.140198224739606
30
0
10
706.58014660114554
20
72.56899269867921
30
0
10
705.88671460372575
20
75.207593828687038
30
0
10
706.31344156935893
20
77.785742469291876
30
0
0
SPLINE
5
274
100
AcDbEntity
8
0
100
AcDbSpline
70
4
71
3
72
8
73
4
74
0
42
0.000000001
43
0.0000000001
44
0.0000000001
40
0
40
0
40
0
40
0
40
1
40
1
40
1
40
1
41
1
41
1
41
1
41
1
10
757.25053767468
20
51.481513766851364
30
0
10
755.57563311369108
20
49.995080327568111
30
0
10
753.17528782761065
20
49.699926107922153
30
0
10
750.93851858906123
20
49.632359965022417
30
0
0
SPLINE
5
275
100
AcDbEntity
8
0
100
AcDbSpline
70
4
71
3
72
8
73
4
74
0
42
0.000000001
43
0.0000000001
44
0.0000000001
40
0
40
0
40
0
40
0
40
1
40
1
40
1
40
1
41
1
41
1
41
1
41
1
10
711.84667566785242
20
74.339912590427176
30
0
10
711.45195200376293
20
74.347026243923935
30
0
10
710.91142828669274
20
74.17989065658071
30
0
10
710.97544031590803
20
73.788721106175771
30
0
0
SPLINE
5
276
100
AcDbEntity
8
0
100
AcDbSpline
70
4
71
3
72
8
73
4
74
0
42
0.000000001
43
0.0000000001
44
0.0000000001
40
0
40
0
40
0
40
0
40
1
40
1
40
1
40
1
41
1
41
1
41
1
41
1
10
694.20146707507683
20
57.309907511118411
30
0
10
693.1595420221048
20
63.703714620502637
30
0
10
692.93906217272763
20
70.229099902001835
30
0
10
693.54003837920072
20
76.679805387104551
30
0
0
SPLINE
5
277
100
AcDbEntity
8
0
100
AcDbSpline
70
4
71
3
72
8
73
4
74
0
42
0.000000001
43
0.0000000001
44
0.0000000001
40
0
40
0
40
0
40
0
40
1
40
1
40
1
40
1
41
1
41
1
41
1
41
1
10
700.54904900205156
20
50.048419163474342
30
0
10
699.2510866844741
20
50.222668404314312
30
0
10
697.93178340640623
20
50.56049369268527
30
0
10
696.89696658080322
20
51.36060878804539
30
0
0
SPLINE
5
278
100
AcDbEntity
8
0
100
AcDbSpline
70
4
71
3
72
8
73
4
74
0
42
0.000000001
43
0.0000000001
44
0.0000000001
40
0
40
0
40
0
40
0
40
1
40
1
40
1
40
1
41
1
41
1
41
1
41
1
10
745.82133283676421
20
50.119539420058572
30
0
10
744.17131249769454
20
50.606718875094749
30
0
10
742.61020468814263
20
51.581083211294853
30
0
10
741.70696060852674
20
53.042627002531113
30
0
0
SPLINE
5
279
100
AcDbEntity
8
0
100
AcDbSpline
70
4
71
3
72
8
73
4
74
0
42
0.000000001
43
0.0000000001
44
0.0000000001
40
0
40
0
40
0
40
0
40
1
40
1
40
1
40
1
41
1
41
1
41
1
41
1
10
696.89696658080322
20
51.36060878804539
30
0
10
695.13315491642425
20
52.726137248522647
30
0
10
694.56062789781026
20
55.108701113925029
30
0
10
694.20146707507683
20
57.309907511118411
30
0
0
SPLINE
5
280
100
AcDbEntity
8
0
100
AcDbSpline
70
4
71
3
72
8
73
4
74
0
42
0.000000001
43
0.0000000001
44
0.0000000001
40
0
40
0
40
0
40
0
40
1
40
1
40
1
40
1
41
1
41
1
41
1
41
1
10
694.20146707507683
20
57.309907511118411
30
0
10
693.1595420221048
20
63.703714620502637
30
0
10
692.93906217272763
20
70.229099902001835
30
0
10
693.54003837920072
20
76.679805387104551
30
0
0
SPLINE
5
281
100
AcDbEntity
8
0
100
AcDbSpline
70
4
71
3
72
8
73
4
74
0
42
0.000000001
43
0.0000000001
44
0.0000000001
40
0
40
0
40
0
40
0
40
1
40
1
40
1
40
1
41
1
41
1
41
1
41
1
10
743.84771994244488
20
77.376791498208931
30
0
10
744.66561103235517
20
72.423192645698492
30
0
10
745.48706166207796
20
67.373573036301295
30
0
10
744.7474044822485
20
62.405746876797338
30
0
0
SPLINE
5
282
100
AcDbEntity
8
0
100
AcDbSpline
70
4
71
3
72
8
73
4
74
0
42
0.000000001
43
0.0000000001
44
0.0000000001
40
0
40
0
40
0
40
0
40
1
40
1
40
1
40
1
41
1
41
1
41
1
41
1
10
708.57153549001532
20
72.337845082120737
30
0
10
710.61627406704679
20
71.75820441001008
30
0
10
712.89571437432119
20
72.05691816946829
30
0
10
714.72353264178764
20
73.145073830977623
30
0
0
SPLINE
5
283
100
AcDbEntity
8
0
100
AcDbSpline
70
4
71
3
72
8
73
4
74
0
42
0.000000001
43
0.0000000001
44
0.0000000001
40
0
40
0
40
0
40
0
40
1
40
1
40
1
40
1
41
1
41
1
41
1
41
1
10
759.59398458504188
20
57.505492286320887
30
0
10
759.49797468041072
20
55.293618121946253
30
0
10
758.90410670130655
20
52.95372532526887
30
0
10
757.25053767468
20
51.481513766851364
30
0
0
SPLINE
5
284
100
AcDbEntity
8
0
100
AcDbSpline
70
4
71
3
72
8
73
4
74
0
42
0.000000001
43
0.0000000001
44
0.0000000001
40
0
40
0
40
0
40
0
40
1
40
1
40
1
40
1
41
1
41
1
41
1
41
1
10
681.0618002609441
20
49.532785094451143
30
0
10
684.07734363436339
20
48.469519080988817
30
0
10
687.60496153699353
20
49.202073459576965
30
0
10
690.09065438665164
20
51.211249195252392
30
0
0
SPLINE
5
285
100
AcDbEntity
8
0
100
AcDbSpline
70
4
71
3
72
8
73
4
74
0
42
0.000000001
43
0.0000000001
44
0.0000000001
40
0
40
0
40
0
40
0
40
1
40
1
40
1
40
1
41
1
41
1
41
1
41
1
10
726.61501643443682
20
73.532683841570304
30
0
10
726.17762170162246
20
74.297236095574434
30
0
10
725.34194376490632
20
74.816424278282099
30
0
10
724.4635947594652
20
74.869763114188331
30
0
0
SPLINE
5
286
100
AcDbEntity
8
0
100
AcDbSpline
70
4
71
3
72
8
73
4
74
0
42
0.000000001
43
0.0000000001
44
0.0000000001
40
0
40
0
40
0
40
0
40
1
40
1
40
1
40
1
41
1
41
1
41
1
41
1
10
744.7474044822485
20
62.405746876797338
30
0
10
744.00774730241915
20
57.43792071729338
30
0
10
741.43670688918337
20
52.480762324970684
30
0
10
736.99873125344061
20
50.13376130092432
30
0
0
SPLINE
5
287
100
AcDbEntity
8
0
100
AcDbSpline
70
4
71
3
72
8
73
4
74
0
42
0.000000001
43
0.0000000001
44
0.0000000001
40
0
40
0
40
0
40
0
40
1
40
1
40
1
40
1
41
1
41
1
41
1
41
1
10
720.55192638605467
20
41.464073424077981
30
0
10
725.01123213003211
20
41.648990432099197
30
0
10
728.39305540580938
20
44.468949030315997
30
0
10
730.06440585311384
20
47.395590726473017
30
0
0
LWPOLYLINE
5
288
100
AcDbEntity
8
0
100
AcDbPolyline
90
3
70
1
43
0.0
10
744.89769116991715
20
125.71706520669444
10
744.89769116991715
20
114.7170636644243
10
692.89769233220773
20
114.7170636644243
0
SPLINE
5
289
100
AcDbEntity
8
0
100
AcDbSpline
70
4
71
3
72
8
73
4
74
0
42
0.000000001
43
0.0000000001
44
0.0000000001
40
0
40
0
40
0
40
0
40
1
40
1
40
1
40
1
41
1
41
1
41
1
41
1
10
759.62954742639783
20
64.144668893129321
30
0
10
759.38417792897371
20
61.943462495935933
30
0
10
759.69000534192855
20
59.717366450695536
30
0
10
759.59398458504188
20
57.505492286320887
30
0
0
SPLINE
5
290
100
AcDbEntity
8
0
100
AcDbSpline
70
4
71
3
72
8
73
4
74
0
42
0.000000001
43
0.0000000001
44
0.0000000001
40
0
40
0
40
0
40
0
40
1
40
1
40
1
40
1
41
1
41
1
41
1
41
1
10
759.62954742639783
20
64.144668893129321
30
0
10
759.38417792897371
20
61.943462495935933
30
0
10
759.69000534192855
20
59.717366450695536
30
0
10
759.59398458504188
20
57.505492286320887
30
0
0
SPLINE
5
291
100
AcDbEntity
8
0
100
AcDbSpline
70
4
71
3
72
8
73
4
74
0
42
0.000000001
43
0.0000000001
44
0.0000000001
40
0
40
0
40
0
40
0
40
1
40
1
40
1
40
1
41
1
41
1
41
1
41
1
10
727.34045715952834
20
109.69432823987387
30
0
10
730.75072419703702
20
110.66869121954201
30
0
10
734.34590824256691
20
110.78959755487993
30
0
10
737.89130756587508
20
110.807377619026
30
0
0
SPLINE
5
292
100
AcDbEntity
8
0
100
AcDbSpline
70
4
71
3
72
8
73
4
74
0
42
0.000000001
43
0.0000000001
44
0.0000000001
40
0
40
0
40
0
40
0
40
1
40
1
40
1
40
1
41
1
41
1
41
1
41
1
10
726.43366439235581
20
64.798983935508716
30
0
10
722.99138862717552
20
61.996801331842157
30
0
10
718.13024556561174
20
60.332564538034433
30
0
10
714.07277713922042
20
62.13193361764165
30
0
0
LINE
5
293
100
AcDbEntity
8
0
100
AcDbLine
10
744.89769116991715
20
114.7170636644243
30
0
11
692.89769233220773
21
125.71706520669444
31
0
0
SPLINE
5
294
100
AcDbEntity
8
0
100
AcDbSpline
70
4
71
3
72
8
73
4
74
0
42
0.000000001
43
0.0000000001
44
0.0000000001
40
0
40
0
40
0
40
0
40
1
40
1
40
1
40
1
41
1
41
1
41
1
41
1
10
675.34720326811396
20
68.429725396266861
30
0
10
671.52443114583775
20
71.061212872777929
30
0
10
671.69156673318093
20
77.038960783710223
30
0
10
668.33108441789409
20
80.242980704962974
30
0
0
SPLINE
5
295
100
AcDbEntity
8
0
100
AcDbSpline
70
4
71
3
72
8
73
4
74
0
42
0.000000001
43
0.0000000001
44
0.0000000001
40
0
40
0
40
0
40
0
40
1
40
1
40
1
40
1
41
1
41
1
41
1
41
1
10
752.89791502864273
20
73.169963479024617
30
0
10
753.09705391752971
20
75.289381852452522
30
0
10
752.19380983791382
20
77.337674543168447
30
0
10
751.30835260510366
20
79.275730022259623
30
0
0
LINE
5
296
100
AcDbEntity
8
0
100
AcDbLine
10
692.89769233220773
20
125.71706520669444
30
0
11
744.89769116991715
21
125.71706520669444
31
0
0
SPLINE
5
297
100
AcDbEntity
8
0
100
AcDbSpline
70
4
71
3
72
8
73
4
74
0
42
0.000000001
43
0.0000000001
44
0.0000000001
40
0
40
0
40
0
40
0
40
1
40
1
40
1
40
1
41
1
41
1
41
1
41
1
10
682.96785786461919
20
106.6716739260217
30
0
10
681.60944034457486
20
104.85808025248488
30
0
10
681.3000615309993
20
102.44706719922327
30
0
10
681.47431077183921
20
100.18896513937527
30
0
0
LINE
5
298
100
AcDbEntity
8
0
100
AcDbLine
10
658.19925646431898
20
158.58734289144371
30
0
11
658.89769175106255
21
125.21706443555935
31
0
0
SPLINE
5
299
100
AcDbEntity
8
0
100
AcDbSpline
70
4
71
3
72
8
73
4
74
0
42
0.000000001
43
0.0000000001
44
0.0000000001
40
0
40
0
40
0
40
0
40
1
40
1
40
1
40
1
41
1
41
1
41
1
41
1
10
682.96785786461919
20
106.6716739260217
30
0
10
681.60944034457486
20
104.85808025248488
30
0
10
681.3000615309993
20
102.44706719922327
30
0
10
681.47431077183921
20
100.18896513937527
30
0
0
SPLINE
5
300
100
AcDbEntity
8
0
100
AcDbSpline
70
4
71
3
72
8
73
4
74
0
42
0.000000001
43
0.0000000001
44
0.0000000001
40
0
40
0
40
0
40
0
40
1
40
1
40
1
40
1
41
1
41
1
41
1
41
1
10
797.74703143753436
20
75.250264897412052
30
0
10
795.65250271215348
20
78.329820300046549
30
0
10
791.54880910335282
20
79.179720117628406
30
0
10
787.85760972706385
20
79.666899572664576
30
0
0
SPLINE
5
301
100
AcDbEntity
8
0
100
AcDbSpline
70
4
71
3
72
8
73
4
74
0
42
0.000000001
43
0.0000000001
44
0.0000000001
40
0
40
0
40
0
40
0
40
1
40
1
40
1
40
1
41
1
41
1
41
1
41
1
10
797.74703143753436
20
75.250264897412052
30
0
10
795.65250271215348
20
78.329820300046549
30
0
10
791.54880910335282
20
79.179720117628406
30
0
10
787.85760972706385
20
79.666899572664576
30
0
0
ARC
5
302
100
AcDbEntity
8
0
100
AcDbCircle
10
771.59787869864022
20
158.75474511673815
30
0
40
7.9999999999999254
210
0
220
0
230
1
100
AcDbArc
50
-1.1990176364289233
51
123.15150667603501
0
SPLINE
5
303
100
AcDbEntity
8
0
100
AcDbSpline
70
4
71
3
72
8
73
4
74
0
42
0.000000001
43
0.0000000001
44
0.0000000001
40
0
40
0
40
0
40
0
40
1
40
1
40
1
40
1
41
1
41
1
41
1
41
1
10
761.00574365405635
20
68.017220311499443
30
0
10
757.99731393413379
20
65.645324213278329
30
0
10
753.37797540405427
20
66.889947694949626
30
0
10
750.55090857846858
20
69.475209989051208
30
0
0
CIRCLE
5
304
100
AcDbEntity
8
0
100
AcDbCircle
10
-697.12455444050431
20
95.566075534242799
30
0
40
3.5845156272133485
210
0
220
0
230
-1
0
SPLINE
5
305
100
AcDbEntity
8
0
100
AcDbSpline
70
4
71
3
72
8
73
4
74
0
42
0.000000001
43
0.0000000001
44
0.0000000001
40
0
40
0
40
0
40
0
40
1
40
1
40
1
40
1
41
1
41
1
41
1
41
1
10
715.41341052552298
20
55.026913090159525
30
0
10
711.56574332907212
20
51.221922388561403
30
0
10
705.911598825645
20
49.326537978195191
30
0
10
700.54904900205156
20
50.048419163474342
30
0
0
SPLINE
5
306
100
AcDbEntity
8
0
100
AcDbSpline
70
4
71
3
72
8
73
4
74
0
42
0.000000001
43
0.0000000001
44
0.0000000001
40
0
40
0
40
0
40
0
40
1
40
1
40
1
40
1
41
1
41
1
41
1
41
1
10
736.99873125344061
20
50.13376130092432
30
0
10
733.64536259165016
20
48.355727755679609
30
0
10
729.43853457246587
20
48.291721152592125
30
0
10
726.03182164864177
20
49.963071599896587
30
0
0
SPLINE
5
307
100
AcDbEntity
8
0
100
AcDbSpline
70
4
71
3
72
8
73
4
74
0
42
0.000000001
43
0.0000000001
44
0.0000000001
40
0
40
0
40
0
40
0
40
1
40
1
40
1
40
1
41
1
41
1
41
1
41
1
10
736.99873125344061
20
50.13376130092432
30
0
10
733.64536259165016
20
48.355727755679609
30
0
10
729.43853457246587
20
48.291721152592125
30
0
10
726.03182164864177
20
49.963071599896587
30
0
0
SPLINE
5
308
100
AcDbEntity
8
0
100
AcDbSpline
70
4
71
3
72
8
73
4
74
0
42
0.000000001
43
0.0000000001
44
0.0000000001
40
0
40
0
40
0
40
0
40
1
40
1
40
1
40
1
41
1
41
1
41
1
41
1
10
734.34235955501026
20
91.174330181469571
30
0
10
723.76305996080418
20
92.319384218697408
30
0
10
713.09130457565129
20
92.184251932897922
30
0
10
702.45155249204231
20
92.045565533413935
30
0
0
SPLINE
5
309
100
AcDbEntity
8
0
100
AcDbSpline
70
4
71
3
72
8
73
4
74
0
42
0.000000001
43
0.0000000001
44
0.0000000001
40
0
40
0
40
0
40
0
40
1
40
1
40
1
40
1
41
1
41
1
41
1
41
1
10
768.94288800457002
20
80.74794158067715
30
0
10
764.11375367067785
20
78.96279438193568
30
0
10
765.04899019958202
20
71.207012925758676
30
0
10
761.00574365405635
20
68.017220311499443
30
0
0
LINE
5
310
100
AcDbEntity
8
0
100
AcDbLine
10
744.89769116991715
20
114.7170636644243
30
0
11
692.89769233220773
21
125.71706520669444
31
0
0
SPLINE
5
311
100
AcDbEntity
8
0
100
AcDbSpline
70
4
71
3
72
8
73
4
74
0
42
0.000000001
43
0.0000000001
44
0.0000000001
40
0
40
0
40
0
40
0
40
1
40
1
40
1
40
1
41
1
41
1
41
1
41
1
10
714.33592263119499
20
100.11428534297877
30
0
10
715.7227920521625
20
103.25784734870076
30
0
10
715.09692077151453
20
107.4433398335226
30
0
10
712.25562121280745
20
109.37428437218091
30
0
0
SPLINE
5
312
100
AcDbEntity
8
0
100
AcDbSpline
70
4
71
3
72
8
73
4
74
0
42
0.000000001
43
0.0000000001
44
0.0000000001
40
0
40
0
40
0
40
0
40
1
40
1
40
1
40
1
41
1
41
1
41
1
41
1
10
734.34235955501026
20
91.174330181469571
30
0
10
723.76305996080418
20
92.319384218697408
30
0
10
713.09130457565129
20
92.184251932897922
30
0
10
702.45155249204231
20
92.045565533413935
30
0
0
SPLINE
5
313
100
AcDbEntity
8
0
100
AcDbSpline
70
4
71
3
72
8
73
4
74
0
42
0.000000001
43
0.0000000001
44
0.0000000001
40
0
40
0
40
0
40
0
40
1
40
1
40
1
40
1
41
1
41
1
41
1
41
1
10
676.6629442933056
20
61.203799889978782
30
0
10
675.83082589640173
20
59.86316107754849
30
0
10
675.4254317520672
20
58.262930886828258
30
0
10
675.51789025607775
20
56.691149883967249
30
0
0
SPLINE
5
314
100
AcDbEntity
8
0
100
AcDbSpline
70
4
71
3
72
8
73
4
74
0
42
0.000000001
43
0.0000000001
44
0.0000000001
40
0
40
0
40
0
40
0
40
1
40
1
40
1
40
1
41
1
41
1
41
1
41
1
10
714.33592263119499
20
100.11428534297877
30
0
10
715.7227920521625
20
103.25784734870076
30
0
10
715.09692077151453
20
107.4433398335226
30
0
10
712.25562121280745
20
109.37428437218091
30
0
0
SPLINE
5
315
100
AcDbEntity
8
0
100
AcDbSpline
70
4
71
3
72
8
73
4
74
0
42
0.000000001
43
0.0000000001
44
0.0000000001
40
0
40
0
40
0
40
0
40
1
40
1
40
1
40
1
41
1
41
1
41
1
41
1
10
768.94288800457002
20
80.74794158067715
30
0
10
764.11375367067785
20
78.96279438193568
30
0
10
765.04899019958202
20
71.207012925758676
30
0
10
761.00574365405635
20
68.017220311499443
30
0
0
SPLINE
5
316
100
AcDbEntity
8
0
100
AcDbSpline
70
4
71
3
72
8
73
4
74
0
42
0.000000001
43
0.0000000001
44
0.0000000001
40
0
40
0
40
0
40
0
40
1
40
1
40
1
40
1
41
1
41
1
41
1
41
1
10
787.85760972706385
20
79.666899572664576
30
0
10
782.79021412311636
20
80.335441922037475
30
0
10
777.69437475743746
20
80.801285842711138
30
0
10
772.58785677232186
20
81.064431334685594
30
0
0
SPLINE
5
317
100
AcDbEntity
8
0
100
AcDbSpline
70
4
71
3
72
8
73
4
74
0
42
0.000000001
43
0.0000000001
44
0.0000000001
40
0
40
0
40
0
40
0
40
1
40
1
40
1
40
1
41
1
41
1
41
1
41
1
10
683.85686921111392
20
124.3097658131035
30
0
10
679.98075553986746
20
125.51171653038492
30
0
10
675.86994285144215
20
125.9633370440944
30
0
10
671.82669359285273
20
125.62551065354127
30
0
0
SPLINE
5
318
100
AcDbEntity
8
0
100
AcDbSpline
70
4
71
3
72
8
73
4
74
0
42
0.000000001
43
0.0000000001
44
0.0000000001
40
0
40
0
40
0
40
0
40
1
40
1
40
1
40
1
41
1
41
1
41
1
41
1
10
678.99216932280171
20
39.984748212163723
30
0
10
684.10579282222261
20
38.217382434100244
30
0
10
688.26639023286953
20
33.910990396600198
30
0
10
689.85239854272413
20
28.740465808397033
30
0
0
SPLINE
5
319
100
AcDbEntity
8
0
100
AcDbSpline
70
4
71
3
72
8
73
4
74
0
42
0.000000001
43
0.0000000001
44
0.0000000001
40
0
40
0
40
0
40
0
40
1
40
1
40
1
40
1
41
1
41
1
41
1
41
1
10
675.34720326811396
20
68.429725396266861
30
0
10
671.52443114583775
20
71.061212872777929
30
0
10
671.69156673318093
20
77.038960783710223
30
0
10
668.33108441789409
20
80.242980704962974
30
0
0
SPLINE
5
320
100
AcDbEntity
8
0
100
AcDbSpline
70
4
71
3
72
8
73
4
74
0
42
0.000000001
43
0.0000000001
44
0.0000000001
40
0
40
0
40
0
40
0
40
1
40
1
40
1
40
1
41
1
41
1
41
1
41
1
10
675.51789025607775
20
56.691149883967249
30
0
10
675.70991820453185
20
53.497803156023522
30
0
10
678.04625417446096
20
50.596051107913489
30
0
10
681.0618002609441
20
49.532785094451143
30
0
0
SPLINE
5
321
100
AcDbEntity
8
0
100
AcDbSpline
70
4
71
3
72
8
73
4
74
0
42
0.000000001
43
0.0000000001
44
0.0000000001
40
0
40
0
40
0
40
0
40
1
40
1
40
1
40
1
41
1
41
1
41
1
41
1
10
772.58785677232186
20
81.064431334685594
30
0
10
771.36100928520079
20
81.128437937773072
30
0
10
770.0950502691669
20
81.171114432625842
30
0
10
768.94288800457002
20
80.74794158067715
30
0
0
SPLINE
5
322
100
AcDbEntity
8
0
100
AcDbSpline
70
4
71
3
72
8
73
4
74
0
42
0.000000001
43
0.0000000001
44
0.0000000001
40
0
40
0
40
0
40
0
40
1
40
1
40
1
40
1
41
1
41
1
41
1
41
1
10
678.99216932280171
20
39.984748212163723
30
0
10
684.10579282222261
20
38.217382434100244
30
0
10
688.26639023286953
20
33.910990396600198
30
0
10
689.85239854272413
20
28.740465808397033
30
0
0
SPLINE
5
323
100
AcDbEntity
8
0
100
AcDbSpline
70
4
71
3
72
8
73
4
74
0
42
0.000000001
43
0.0000000001
44
0.0000000001
40
0
40
0
40
0
40
0
40
1
40
1
40
1
40
1
41
1
41
1
41
1
41
1
10
787.85760972706385
20
79.666899572664576
30
0
10
782.79021412311636
20
80.335441922037475
30
0
10
777.69437475743746
20
80.801285842711138
30
0
10
772.58785677232186
20
81.064431334685594
30
0
0
SPLINE
5
324
100
AcDbEntity
8
0
100
AcDbSpline
70
4
71
3
72
8
73
4
74
0
42
0.000000001
43
0.0000000001
44
0.0000000001
40
0
40
0
40
0
40
0
40
1
40
1
40
1
40
1
41
1
41
1
41
1
41
1
10
687.33114827783777
20
71.367034859605141
30
0
10
684.25514970195172
20
68.102562448949413
30
0
10
679.04195675808739
20
65.887134170890278
30
0
10
675.34720326811396
20
68.429725396266861
30
0
0
SPLINE
5
325
100
AcDbEntity
8
0
100
AcDbSpline
70
4
71
3
72
8
73
4
74
0
42
0.000000001
43
0.0000000001
44
0.0000000001
40
0
40
0
40
0
40
0
40
1
40
1
40
1
40
1
41
1
41
1
41
1
41
1
10
699.06616967645289
20
105.57284778426727
30
0
10
698.12381406792429
20
103.21873039366027
30
0
10
695.59900426322565
20
101.61494608925554
30
0
10
695.18294506477378
20
99.111474531983319
30
0
0
ARC
5
326
100
AcDbEntity
8
0
100
AcDbCircle
10
718.89769175106244
20
80.217064435559422
30
0
40
75.157731058639015
210
0
220
-0
230
1
100
AcDbArc
50
69.869004879858849
51
111.18489857050319
0
SPLINE
5
327
100
AcDbEntity
8
0
100
AcDbSpline
70
4
71
3
72
8
73
4
74
0
42
0.000000001
43
0.0000000001
44
0.0000000001
40
0
40
0
40
0
40
0
40
1
40
1
40
1
40
1
41
1
41
1
41
1
41
1
10
761.00574365405635
20
68.017220311499443
30
0
10
757.99731393413379
20
65.645324213278329
30
0
10
753.37797540405427
20
66.889947694949626
30
0
10
750.55090857846858
20
69.475209989051208
30
0
0
SPLINE
5
328
100
AcDbEntity
8
0
100
AcDbSpline
70
4
71
3
72
8
73
4
74
0
42
0.000000001
43
0.0000000001
44
0.0000000001
40
0
40
0
40
0
40
0
40
1
40
1
40
1
40
1
41
1
41
1
41
1
41
1
10
759.3521637751744
20
124.13551860706147
30
0
10
760.03137389172844
20
123.22872143116004
30
0
10
761.43601388111858
20
123.53454341798727
30
0
10
762.51706131525896
20
123.88303783007139
30
0
0
SPLINE
5
329
100
AcDbEntity
8
0
100
AcDbSpline
70
4
71
3
72
8
73
4
74
0
42
0.000000001
43
0.0000000001
44
0.0000000001
40
0
40
0
40
0
40
0
40
1
40
1
40
1
40
1
41
1
41
1
41
1
41
1
10
772.58785677232186
20
81.064431334685594
30
0
10
771.36100928520079
20
81.128437937773072
30
0
10
770.0950502691669
20
81.171114432625842
30
0
10
768.94288800457002
20
80.74794158067715
30
0
0
SPLINE
5
330
100
AcDbEntity
8
0
100
AcDbSpline
70
4
71
3
72
8
73
4
74
0
42
0.000000001
43
0.0000000001
44
0.0000000001
40
0
40
0
40
0
40
0
40
1
40
1
40
1
40
1
41
1
41
1
41
1
41
1
10
750.55090857846858
20
69.475209989051208
30
0
10
747.72383090062726
20
72.060472283152791
30
0
10
746.08092964118202
20
75.652096788870452
30
0
10
743.89395055098225
20
78.799218334404699
30
0
0
LINE
5
331
100
AcDbEntity
8
0
100
AcDbLine
10
692.89769233220773
20
125.71706520669444
30
0
11
744.89769116991715
21
125.71706520669444
31
0
0
SPLINE
5
332
100
AcDbEntity
8
0
100
AcDbSpline
70
4
71
3
72
8
73
4
74
0
42
0.000000001
43
0.0000000001
44
0.0000000001
40
0
40
0
40
0
40
0
40
1
40
1
40
1
40
1
41
1
41
1
41
1
41
1
10
668.33108441789409
20
80.242980704962974
30
0
10
664.55098607740683
20
83.841721577241259
30
0
10
658.42743811349374
20
82.337504004216129
30
0
10
653.5022843792467
20
80.605701067508662
30
0
0
SPLINE
5
333
100
AcDbEntity
8
0
100
AcDbSpline
70
4
71
3
72
8
73
4
74
0
42
0.000000001
43
0.0000000001
44
0.0000000001
40
0
40
0
40
0
40
0
40
1
40
1
40
1
40
1
41
1
41
1
41
1
41
1
10
765.57172164371866
20
123.33184736321894
30
0
10
766.24382353290366
20
121.90942052702314
30
0
10
764.01060298191112
20
120.66479738448484
30
0
10
763.96793191318602
20
119.08945955487546
30
0
0
SPLINE
5
334
100
AcDbEntity
8
0
100
AcDbSpline
70
4
71
3
72
8
73
4
74
0
42
0.000000001
43
0.0000000001
44
0.0000000001
40
0
40
0
40
0
40
0
40
1
40
1
40
1
40
1
41
1
41
1
41
1
41
1
10
751.30835260510366
20
79.275730022259623
30
0
10
750.03528536170097
20
82.06724214568105
30
0
10
748.70530889032409
20
84.944101832680218
30
0
10
746.42942812286196
20
86.999508176892874
30
0
0
LINE
5
335
100
AcDbEntity
8
0
100
AcDbLine
10
658.19925646431898
20
158.58734289144371
30
0
11
658.89769175106255
21
125.21706443555935
31
0
0
SPLINE
5
336
100
AcDbEntity
8
0
100
AcDbSpline
70
4
71
3
72
8
73
4
74
0
42
0.000000001
43
0.0000000001
44
0.0000000001
40
0
40
0
40
0
40
0
40
1
40
1
40
1
40
1
41
1
41
1
41
1
41
1
10
702.45155249204231
20
92.045565533413935
30
0
10
700.12588700235847
20
92.017116345554683
30
0
10
697.75398547800955
20
91.977999390514199
30
0
10
695.55278450694391
20
91.227669017375803
30
0
0
ARC
5
337
100
AcDbEntity
8
0
100
AcDbCircle
10
718.89769175106244
20
80.217064435559422
30
0
40
75.157731058639015
210
0
220
-0
230
1
100
AcDbArc
50
69.869004879858849
51
111.18489857050319
0
SPLINE
5
338
100
AcDbEntity
8
0
100
AcDbSpline
70
4
71
3
72
8
73
4
74
0
42
0.000000001
43
0.0000000001
44
0.0000000001
40
0
40
0
40
0
40
0
40
1
40
1
40
1
40
1
41
1
41
1
41
1
41
1
10
715.41341052552298
20
55.026913090159525
30
0
10
711.56574332907212
20
51.221922388561403
30
0
10
705.911598825645
20
49.326537978195191
30
0
10
700.54904900205156
20
50.048419163474342
30
0
0
SPLINE
5
339
100
AcDbEntity
8
0
100
AcDbSpline
70
4
71
3
72
8
73
4
74
0
42
0.000000001
43
0.0000000001
44
0.0000000001
40
0
40
0
40
0
40
0
40
1
40
1
40
1
40
1
41
1
41
1
41
1
41
1
10
714.07277713922042
20
62.13193361764165
30
0
10
710.84031345623634
20
63.568582334703152
30
0
10
708.83824594792986
20
66.850836166036885
30
0
10
707.54028363035229
20
70.140198224739606
30
0
0
SPLINE
5
340
100
AcDbEntity
8
0
100
AcDbSpline
70
4
71
3
72
8
73
4
74
0
42
0.000000001
43
0.0000000001
44
0.0000000001
40
0
40
0
40
0
40
0
40
1
40
1
40
1
40
1
41
1
41
1
41
1
41
1
10
683.85686921111392
20
124.3097658131035
30
0
10
679.98075553986746
20
125.51171653038492
30
0
10
675.86994285144215
20
125.9633370440944
30
0
10
671.82669359285273
20
125.62551065354127
30
0
0
CIRCLE
5
341
100
AcDbEntity
8
0
100
AcDbCircle
10
-697.12455444050431
20
95.566075534242799
30
0
40
3.5845156272133485
210
0
220
0
230
-1
0
SPLINE
5
342
100
AcDbEntity
8
0
100
AcDbSpline
70
4
71
3
72
8
73
4
74
0
42
0.000000001
43
0.0000000001
44
0.0000000001
40
0
40
0
40
0
40
0
40
1
40
1
40
1
40
1
41
1
41
1
41
1
41
1
10
776.92978994666669
20
118.60939104027219
30
0
10
777.07203045983522
20
118.41025147311925
30
0
10
777.1893867510845
20
118.15777035699618
30
0
10
777.12182060818475
20
117.92306998328516
30
0
0
SPLINE
5
343
100
AcDbEntity
8
0
100
AcDbSpline
70
4
71
3
72
8
73
4
74
0
42
0.000000001
43
0.0000000001
44
0.0000000001
40
0
40
0
40
0
40
0
40
1
40
1
40
1
40
1
41
1
41
1
41
1
41
1
10
779.34792207955286
20
113.52421401564675
30
0
10
779.81732554003884
20
113.21839202881954
30
0
10
780.30094545526265
20
112.78455140968961
30
0
10
780.30450499507492
20
112.22624898500534
30
0
0
SPLINE
5
344
100
AcDbEntity
8
0
100
AcDbSpline
70
4
71
3
72
8
73
4
74
0
42
0.000000001
43
0.0000000001
44
0.0000000001
40
0
40
0
40
0
40
0
40
1
40
1
40
1
40
1
41
1
41
1
41
1
41
1
10
781.93673848733897
20
103.52810920723584
30
0
10
783.18847019637928
20
102.51818745580752
30
0
10
785.53903618636571
20
103.6703524334682
30
0
10
786.42805295898802
20
102.3332704477863
30
0
0
ARC
5
345
100
AcDbEntity
8
0
100
AcDbCircle
10
718.89769175106244
20
80.217064435559422
30
0
40
75.157731058638944
210
0
220
0
230
1
100
AcDbArc
50
-217.02316140741533
51
37.023161407415365
0
SPLINE
5
346
100
AcDbEntity
8
0
100
AcDbSpline
70
4
71
3
72
8
73
4
74
0
42
0.000000001
43
0.0000000001
44
0.0000000001
40
0
40
0
40
0
40
0
40
1
40
1
40
1
40
1
41
1
41
1
41
1
41
1
10
698.19138021082392
20
111.43680436989033
30
0
10
694.72776891128137
20
111.33723492544686
30
0
10
691.23571385000719
20
110.99940828054397
30
0
10
687.95701955848574
20
109.88635890139182
30
0
0
SPLINE
5
347
100
AcDbEntity
8
0
100
AcDbSpline
70
4
71
3
72
8
73
4
74
0
42
0.000000001
43
0.0000000001
44
0.0000000001
40
0
40
0
40
0
40
0
40
1
40
1
40
1
40
1
41
1
41
1
41
1
41
1
10
743.89395055098225
20
78.799218334404699
30
0
10
738.38204656072344
20
86.729249031421674
30
0
10
728.99403161228247
20
91.825093823228357
30
0
10
719.33930620592707
20
92.12380215655881
30
0
0
SPLINE
5
348
100
AcDbEntity
8
0
100
AcDbSpline
70
4
71
3
72
8
73
4
74
0
42
0.000000001
43
0.0000000001
44
0.0000000001
40
0
40
0
40
0
40
0
40
1
40
1
40
1
40
1
41
1
41
1
41
1
41
1
10
708.42929497684679
20
110.76115108008457
30
0
10
705.06525312174756
20
111.41191200877947
30
0
10
701.61586912919847
20
111.53637381433381
30
0
10
698.19138021082392
20
111.43680436989033
30
0
0
LINE
5
349
100
AcDbEntity
8
0
100
AcDbLine
10
692.89769233220773
20
114.7170636644243
30
0
11
692.89769233220773
21
125.71706520669444
31
0
0
LINE
5
350
100
AcDbEntity
8
0
100
AcDbLine
10
692.89769233220773
20
114.7170636644243
30
0
11
692.89769233220773
21
125.71706520669444
31
0
0
SPLINE
5
351
100
AcDbEntity
8
0
100
AcDbSpline
70
4
71
3
72
8
73
4
74
0
42
0.000000001
43
0.0000000001
44
0.0000000001
40
0
40
0
40
0
40
0
40
1
40
1
40
1
40
1
41
1
41
1
41
1
41
1
10
712.25562121280745
20
109.37428437218091
30
0
10
711.12479448257318
20
110.14239480946536
30
0
10
709.76992836314935
20
110.50155698873073
30
0
10
708.42929497684679
20
110.76115108008457
30
0
0
SPLINE
5
352
100
AcDbEntity
8
0
100
AcDbSpline
70
4
71
3
72
8
73
4
74
0
42
0.000000001
43
0.0000000001
44
0.0000000001
40
0
40
0
40
0
40
0
40
1
40
1
40
1
40
1
41
1
41
1
41
1
41
1
10
687.95701955848574
20
109.88635890139182
30
0
10
686.05452420768654
20
109.23915479944532
30
0
10
684.16980756450153
20
108.27901641370678
30
0
10
682.96785786461919
20
106.6716739260217
30
0
0
SPLINE
5
353
100
AcDbEntity
8
0
100
AcDbSpline
70
4
71
3
72
8
73
4
74
0
42
0.000000001
43
0.0000000001
44
0.0000000001
40
0
40
0
40
0
40
0
40
1
40
1
40
1
40
1
41
1
41
1
41
1
41
1
10
712.25562121280745
20
109.37428437218091
30
0
10
711.12479448257318
20
110.14239480946536
30
0
10
709.76992836314935
20
110.50155698873073
30
0
10
708.42929497684679
20
110.76115108008457
30
0
0
SPLINE
5
354
100
AcDbEntity
8
0
100
AcDbSpline
70
4
71
3
72
8
73
4
74
0
42
0.000000001
43
0.0000000001
44
0.0000000001
40
0
40
0
40
0
40
0
40
1
40
1
40
1
40
1
41
1
41
1
41
1
41
1
10
753.28907372679214
20
95.51273365970502
30
0
10
753.39220271104773
20
90.022165203808896
30
0
10
752.12624369501418
20
84.52092898073154
30
0
10
752.78055873739345
20
79.0694774798759
30
0
0
SPLINE
5
355
100
AcDbEntity
8
0
100
AcDbSpline
70
4
71
3
72
8
73
4
74
0
42
0.000000001
43
0.0000000001
44
0.0000000001
40
0
40
0
40
0
40
0
40
1
40
1
40
1
40
1
41
1
41
1
41
1
41
1
10
687.95701955848574
20
109.88635890139182
30
0
10
686.05452420768654
20
109.23915479944532
30
0
10
684.16980756450153
20
108.27901641370678
30
0
10
682.96785786461919
20
106.6716739260217
30
0
0
SPLINE
5
356
100
AcDbEntity
8
0
100
AcDbSpline
70
4
71
3
72
8
73
4
74
0
42
0.000000001
43
0.0000000001
44
0.0000000001
40
0
40
0
40
0
40
0
40
1
40
1
40
1
40
1
41
1
41
1
41
1
41
1
10
698.19138021082392
20
111.43680436989033
30
0
10
694.72776891128137
20
111.33723492544686
30
0
10
691.23571385000719
20
110.99940828054397
30
0
10
687.95701955848574
20
109.88635890139182
30
0
0
SPLINE
5
357
100
AcDbEntity
8
0
100
AcDbSpline
70
4
71
3
72
8
73
4
74
0
42
0.000000001
43
0.0000000001
44
0.0000000001
40
0
40
0
40
0
40
0
40
1
40
1
40
1
40
1
41
1
41
1
41
1
41
1
10
708.42929497684679
20
110.76115108008457
30
0
10
705.06525312174756
20
111.41191200877947
30
0
10
701.61586912919847
20
111.53637381433381
30
0
10
698.19138021082392
20
111.43680436989033
30
0
0
SPLINE
5
358
100
AcDbEntity
8
0
100
AcDbSpline
70
4
71
3
72
8
73
4
74
0
42
0.000000001
43
0.0000000001
44
0.0000000001
40
0
40
0
40
0
40
0
40
1
40
1
40
1
40
1
41
1
41
1
41
1
41
1
10
666.99044289239987
20
119.57308489622713
30
0
10
667.06156314898408
20
118.73385352409251
30
0
10
668.02170289125456
20
118.01197166054737
30
0
10
668.7791442048258
20
118.37824613677759
30
0
0
SPLINE
5
359
100
AcDbEntity
8
0
100
AcDbSpline
70
4
71
3
72
8
73
4
74
0
42
0.000000001
43
0.0000000001
44
0.0000000001
40
0
40
0
40
0
40
0
40
1
40
1
40
1
40
1
41
1
41
1
41
1
41
1
10
668.7791442048258
20
118.37824613677759
30
0
10
667.13624023231671
20
118.50626476908033
30
0
10
665.49333897287158
20
118.6093903620062
30
0
10
663.84687953014588
20
118.68762427208719
30
0
0
SPLINE
5
360
100
AcDbEntity
8
0
100
AcDbSpline
70
4
71
3
72
8
73
4
74
0
42
0.000000001
43
0.0000000001
44
0.0000000001
40
0
40
0
40
0
40
0
40
1
40
1
40
1
40
1
41
1
41
1
41
1
41
1
10
670.72431333741383
20
122.151233197699
30
0
10
669.88508128701312
20
122.06944381740158
30
0
10
669.02095687550172
20
121.98054214013933
30
0
10
668.27418332911168
20
121.58581847604989
30
0
0
SPLINE
5
361
100
AcDbEntity
8
0
100
AcDbSpline
70
4
71
3
72
8
73
4
74
0
42
0.000000001
43
0.0000000001
44
0.0000000001
40
0
40
0
40
0
40
0
40
1
40
1
40
1
40
1
41
1
41
1
41
1
41
1
10
666.99044289239987
20
119.57308489622713
30
0
10
667.06156314898408
20
118.73385352409251
30
0
10
668.02170289125456
20
118.01197166054737
30
0
10
668.7791442048258
20
118.37824613677759
30
0
0
SPLINE
5
362
100
AcDbEntity
8
0
100
AcDbSpline
70
4
71
3
72
8
73
4
74
0
42
0.000000001
43
0.0000000001
44
0.0000000001
40
0
40
0
40
0
40
0
40
1
40
1
40
1
40
1
41
1
41
1
41
1
41
1
10
660.87400722545169
20
118.06886867973395
30
0
10
660.08455989727281
20
117.39321606819415
30
0
10
660.14145691645933
20
115.7929858774739
30
0
10
661.15849232138441
20
115.57962171639133
30
0
0
SPLINE
5
363
100
AcDbEntity
8
0
100
AcDbSpline
70
4
71
3
72
8
73
4
74
0
42
0.000000001
43
0.0000000001
44
0.0000000001
40
0
40
0
40
0
40
0
40
1
40
1
40
1
40
1
41
1
41
1
41
1
41
1
10
661.15849232138441
20
115.57962171639133
30
0
10
660.06322300637839
20
115.56184165224528
30
0
10
658.91461349893416
20
115.52983699416961
30
0
10
657.96869970712521
20
114.97509003970177
30
0
0
SPLINE
5
364
100
AcDbEntity
8
0
100
AcDbSpline
70
4
71
3
72
8
73
4
74
0
42
0.000000001
43
0.0000000001
44
0.0000000001
40
0
40
0
40
0
40
0
40
1
40
1
40
1
40
1
41
1
41
1
41
1
41
1
10
660.87400722545169
20
118.06886867973395
30
0
10
660.08455989727281
20
117.39321606819415
30
0
10
660.14145691645933
20
115.7929858774739
30
0
10
661.15849232138441
20
115.57962171639133
30
0
0
SPLINE
5
365
100
AcDbEntity
8
0
100
AcDbSpline
70
4
71
3
72
8
73
4
74
0
42
0.000000001
43
0.0000000001
44
0.0000000001
40
0
40
0
40
0
40
0
40
1
40
1
40
1
40
1
41
1
41
1
41
1
41
1
10
663.84687953014588
20
118.68762427208719
30
0
10
662.8085072343265
20
118.73740899430894
30
0
10
661.66345455363057
20
118.74452129127374
30
0
10
660.87400722545169
20
118.06886867973395
30
0
0
SPLINE
5
366
100
AcDbEntity
8
0
100
AcDbSpline
70
4
71
3
72
8
73
4
74
0
42
0.000000001
43
0.0000000001
44
0.0000000001
40
0
40
0
40
0
40
0
40
1
40
1
40
1
40
1
41
1
41
1
41
1
41
1
10
656.93743970827063
20
112.197801153678
30
0
10
655.5932467821558
20
111.68572798099903
30
0
10
654.52286982826058
20
110.49444469176592
30
0
10
654.16370764899511
20
109.10046704342939
30
0
0
SPLINE
5
367
100
AcDbEntity
8
0
100
AcDbSpline
70
4
71
3
72
8
73
4
74
0
42
0.000000001
43
0.0000000001
44
0.0000000001
40
0
40
0
40
0
40
0
40
1
40
1
40
1
40
1
41
1
41
1
41
1
41
1
10
668.27418332911168
20
121.58581847604989
30
0
10
667.52740978272175
20
121.19109481196047
30
0
10
666.91932263581566
20
120.41231626836179
30
0
10
666.99044289239987
20
119.57308489622713
30
0
0
SPLINE
5
368
100
AcDbEntity
8
0
100
AcDbSpline
70
4
71
3
72
8
73
4
74
0
42
0.000000001
43
0.0000000001
44
0.0000000001
40
0
40
0
40
0
40
0
40
1
40
1
40
1
40
1
41
1
41
1
41
1
41
1
10
668.27418332911168
20
121.58581847604989
30
0
10
667.52740978272175
20
121.19109481196047
30
0
10
666.91932263581566
20
120.41231626836179
30
0
10
666.99044289239987
20
119.57308489622713
30
0
0
SPLINE
5
369
100
AcDbEntity
8
0
100
AcDbSpline
70
4
71
3
72
8
73
4
74
0
42
0.000000001
43
0.0000000001
44
0.0000000001
40
0
40
0
40
0
40
0
40
1
40
1
40
1
40
1
41
1
41
1
41
1
41
1
10
657.96869970712521
20
114.97509003970177
30
0
10
657.02278591531638
20
114.4203430852339
30
0
10
656.40402964469718
20
113.15438406920011
30
0
10
656.93743970827063
20
112.197801153678
30
0
0
SPLINE
5
370
100
AcDbEntity
8
0
100
AcDbSpline
70
4
71
3
72
8
73
4
74
0
42
0.000000001
43
0.0000000001
44
0.0000000001
40
0
40
0
40
0
40
0
40
1
40
1
40
1
40
1
41
1
41
1
41
1
41
1
10
653.5022843792467
20
80.605701067508662
30
0
10
649.51593349637574
20
79.204609765675386
30
0
10
645.53313808372127
20
77.80351846384211
30
0
10
641.5467872008503
20
76.402432588136591
30
0
0
SPLINE
5
371
100
AcDbEntity
8
0
100
AcDbSpline
70
4
71
3
72
8
73
4
74
0
42
0.000000001
43
0.0000000001
44
0.0000000001
40
0
40
0
40
0
40
0
40
1
40
1
40
1
40
1
41
1
41
1
41
1
41
1
10
661.15849232138441
20
115.57962171639133
30
0
10
660.06322300637839
20
115.56184165224528
30
0
10
658.91461349893416
20
115.52983699416961
30
0
10
657.96869970712521
20
114.97509003970177
30
0
0
SPLINE
5
372
100
AcDbEntity
8
0
100
AcDbSpline
70
4
71
3
72
8
73
4
74
0
42
0.000000001
43
0.0000000001
44
0.0000000001
40
0
40
0
40
0
40
0
40
1
40
1
40
1
40
1
41
1
41
1
41
1
41
1
10
657.96869970712521
20
114.97509003970177
30
0
10
657.02278591531638
20
114.4203430852339
30
0
10
656.40402964469718
20
113.15438406920011
30
0
10
656.93743970827063
20
112.197801153678
30
0
0
SPLINE
5
373
100
AcDbEntity
8
0
100
AcDbSpline
70
4
71
3
72
8
73
4
74
0
42
0.000000001
43
0.0000000001
44
0.0000000001
40
0
40
0
40
0
40
0
40
1
40
1
40
1
40
1
41
1
41
1
41
1
41
1
10
663.84687953014588
20
118.68762427208719
30
0
10
662.8085072343265
20
118.73740899430894
30
0
10
661.66345455363057
20
118.74452129127374
30
0
10
660.87400722545169
20
118.06886867973395
30
0
0
SPLINE
5
374
100
AcDbEntity
8
0
100
AcDbSpline
70
4
71
3
72
8
73
4
74
0
42
0.000000001
43
0.0000000001
44
0.0000000001
40
0
40
0
40
0
40
0
40
1
40
1
40
1
40
1
41
1
41
1
41
1
41
1
10
656.93743970827063
20
112.197801153678
30
0
10
655.5932467821558
20
111.68572798099903
30
0
10
654.52286982826058
20
110.49444469176592
30
0
10
654.16370764899511
20
109.10046704342939
30
0
0
LINE
5
375
100
AcDbEntity
8
0
100
AcDbLine
10
779.59612703780579
20
158.58734289144371
30
0
11
778.89769175106221
21
125.21706443555937
31
0
0
SPLINE
5
376
100
AcDbEntity
8
0
100
AcDbSpline
70
4
71
3
72
8
73
4
74
0
42
0.000000001
43
0.0000000001
44
0.0000000001
40
0
40
0
40
0
40
0
40
1
40
1
40
1
40
1
41
1
41
1
41
1
41
1
10
714.3750395862354
20
74.062539791459216
30
0
10
713.54292118933154
20
74.233229492486942
30
0
10
712.69657548543421
20
74.325690709561442
30
0
10
711.84667566785242
20
74.339912590427176
30
0
0
ARC
5
377
100
AcDbEntity
8
0
100
AcDbCircle
10
771.59787869864022
20
158.75474511673815
30
0
40
7.9999999999999254
210
0
220
0
230
1
100
AcDbArc
50
-1.1990176364289233
51
123.15150667603501
0
LINE
5
378
100
AcDbEntity
8
0
100
AcDbLine
10
743.89769175106244
20
150.21706443555934
30
0
11
767.22304016442206
21
165.45256474700005
31
0
0
SPLINE
5
379
100
AcDbEntity
8
0
100
AcDbSpline
70
4
71
3
72
8
73
4
74
0
42
0.000000001
43
0.0000000001
44
0.0000000001
40
0
40
0
40
0
40
0
40
1
40
1
40
1
40
1
41
1
41
1
41
1
41
1
10
744.7474044822485
20
62.405746876797338
30
0
10
744.00774730241915
20
57.43792071729338
30
0
10
741.43670688918337
20
52.480762324970684
30
0
10
736.99873125344061
20
50.13376130092432
30
0
0
SPLINE
5
380
100
AcDbEntity
8
0
100
AcDbSpline
70
4
71
3
72
8
73
4
74
0
42
0.000000001
43
0.0000000001
44
0.0000000001
40
0
40
0
40
0
40
0
40
1
40
1
40
1
40
1
41
1
41
1
41
1
41
1
10
714.72353264178764
20
73.145073830977623
30
0
10
714.8515512740903
20
73.219753627374104
30
0
10
714.9866835598898
20
73.312209418320847
30
0
10
715.02580051493032
20
73.454449931489322
30
0
0
SPLINE
5
381
100
AcDbEntity
8
0
100
AcDbSpline
70
4
71
3
72
8
73
4
74
0
42
0.000000001
43
0.0000000001
44
0.0000000001
40
0
40
0
40
0
40
0
40
1
40
1
40
1
40
1
41
1
41
1
41
1
41
1
10
676.6629442933056
20
61.203799889978782
30
0
10
675.83082589640173
20
59.86316107754849
30
0
10
675.4254317520672
20
58.262930886828258
30
0
10
675.51789025607775
20
56.691149883967249
30
0
0
SPLINE
5
382
100
AcDbEntity
8
0
100
AcDbSpline
70
4
71
3
72
8
73
4
74
0
42
0.000000001
43
0.0000000001
44
0.0000000001
40
0
40
0
40
0
40
0
40
1
40
1
40
1
40
1
41
1
41
1
41
1
41
1
10
726.43366439235581
20
64.798983935508716
30
0
10
722.99138862717552
20
61.996801331842157
30
0
10
718.13024556561174
20
60.332564538034433
30
0
10
714.07277713922042
20
62.13193361764165
30
0
0
SPLINE
5
383
100
AcDbEntity
8
0
100
AcDbSpline
70
4
71
3
72
8
73
4
74
0
42
0.000000001
43
0.0000000001
44
0.0000000001
40
0
40
0
40
0
40
0
40
1
40
1
40
1
40
1
41
1
41
1
41
1
41
1
10
690.09065438665164
20
51.211249195252392
30
0
10
691.44551507994765
20
52.306518510258464
30
0
10
692.81815719392159
20
53.853404438944708
30
0
10
694.53929236344777
20
53.597372600467011
30
0
0
LINE
5
384
100
AcDbEntity
8
0
100
AcDbLine
10
743.89769175106244
20
150.21706443555934
30
0
11
767.22304016442206
21
165.45256474700005
31
0
0
SPLINE
5
385
100
AcDbEntity
8
0
100
AcDbSpline
70
4
71
3
72
8
73
4
74
0
42
0.000000001
43
0.0000000001
44
0.0000000001
40
0
40
0
40
0
40
0
40
1
40
1
40
1
40
1
41
1
41
1
41
1
41
1
10
714.3750395862354
20
74.062539791459216
30
0
10
713.54292118933154
20
74.233229492486942
30
0
10
712.69657548543421
20
74.325690709561442
30
0
10
711.84667566785242
20
74.339912590427176
30
0
0
SPLINE
5
386
100
AcDbEntity
8
0
100
AcDbSpline
70
4
71
3
72
8
73
4
74
0
42
0.000000001
43
0.0000000001
44
0.0000000001
40
0
40
0
40
0
40
0
40
1
40
1
40
1
40
1
41
1
41
1
41
1
41
1
10
716.38776943559537
20
61.139787860763533
30
0
10
716.32376283250778
20
60.609931910874629
30
0
10
716.61891162602603
20
60.115638802341707
30
0
10
716.81805594104071
20
59.621345693808784
30
0
0
SPLINE
5
387
100
AcDbEntity
8
0
100
AcDbSpline
70
4
71
3
72
8
73
4
74
0
42
0.000000001
43
0.0000000001
44
0.0000000001
40
0
40
0
40
0
40
0
40
1
40
1
40
1
40
1
41
1
41
1
41
1
41
1
10
751.30835260510366
20
79.275730022259623
30
0
10
750.03528536170097
20
82.06724214568105
30
0
10
748.70530889032409
20
84.944101832680218
30
0
10
746.42942812286196
20
86.999508176892874
30
0
0
SPLINE
5
388
100
AcDbEntity
8
0
100
AcDbSpline
70
4
71
3
72
8
73
4
74
0
42
0.000000001
43
0.0000000001
44
0.0000000001
40
0
40
0
40
0
40
0
40
1
40
1
40
1
40
1
41
1
41
1
41
1
41
1
10
714.07277713922042
20
62.13193361764165
30
0
10
710.84031345623634
20
63.568582334703152
30
0
10
708.83824594792986
20
66.850836166036885
30
0
10
707.54028363035229
20
70.140198224739606
30
0
0
SPLINE
5
389
100
AcDbEntity
8
0
100
AcDbSpline
70
4
71
3
72
8
73
4
74
0
42
0.000000001
43
0.0000000001
44
0.0000000001
40
0
40
0
40
0
40
0
40
1
40
1
40
1
40
1
41
1
41
1
41
1
41
1
10
687.51251659830234
20
83.187401108734122
30
0
10
685.98340666416618
20
79.595773889952568
30
0
10
685.60646442075483
20
75.616533947514455
30
0
10
685.60290759400641
20
71.711973801472837
30
0
0
SPLINE
5
390
100
AcDbEntity
8
0
100
AcDbSpline
70
4
71
3
72
8
73
4
74
0
42
0.000000001
43
0.0000000001
44
0.0000000001
40
0
40
0
40
0
40
0
40
1
40
1
40
1
40
1
41
1
41
1
41
1
41
1
10
759.33438778062407
20
126.12336016490633
30
0
10
760.27674338915278
20
125.8851038122794
30
0
10
760.3265335375022
20
124.1177383733489
30
0
10
759.3521637751744
20
124.13551860706147
30
0
0
SPLINE
5
391
100
AcDbEntity
8
0
100
AcDbSpline
70
4
71
3
72
8
73
4
74
0
42
0.000000001
43
0.0000000001
44
0.0000000001
40
0
40
0
40
0
40
0
40
1
40
1
40
1
40
1
41
1
41
1
41
1
41
1
10
762.51706131525896
20
123.88303783007139
30
0
10
763.59810874939922
20
124.23153224215551
30
0
10
765.08810172849485
20
124.35599472597585
30
0
10
765.57172164371866
20
123.33184736321894
30
0
0
SPLINE
5
392
100
AcDbEntity
8
0
100
AcDbSpline
70
4
71
3
72
8
73
4
74
0
42
0.000000001
43
0.0000000001
44
0.0000000001
40
0
40
0
40
0
40
0
40
1
40
1
40
1
40
1
41
1
41
1
41
1
41
1
10
745.82133283676421
20
50.119539420058572
30
0
10
744.17131249769454
20
50.606718875094749
30
0
10
742.61020468814263
20
51.581083211294853
30
0
10
741.70696060852674
20
53.042627002531113
30
0
0
SPLINE
5
393
100
AcDbEntity
8
0
100
AcDbSpline
70
4
71
3
72
8
73
4
74
0
42
0.000000001
43
0.0000000001
44
0.0000000001
40
0
40
0
40
0
40
0
40
1
40
1
40
1
40
1
41
1
41
1
41
1
41
1
10
714.72353264178764
20
73.145073830977623
30
0
10
714.8515512740903
20
73.219753627374104
30
0
10
714.9866835598898
20
73.312209418320847
30
0
10
715.02580051493032
20
73.454449931489322
30
0
0
CIRCLE
5
394
100
AcDbEntity
8
0
100
AcDbCircle
10
718.89769175106244
20
80.217064435559422
30
0
40
5.8504773096964255
210
0
220
0
230
1
0
SPLINE
5
395
100
AcDbEntity
8
0
100
AcDbSpline
70
4
71
3
72
8
73
4
74
0
42
0.000000001
43
0.0000000001
44
0.0000000001
40
0
40
0
40
0
40
0
40
1
40
1
40
1
40
1
41
1
41
1
41
1
41
1
10
694.00232818618986
20
80.35321791658771
30
0
10
691.68377092387504
20
77.426576220430675
30
0
10
689.89151549776466
20
74.083869899693951
30
0
10
687.33114827783777
20
71.367034859605141
30
0
0
SPLINE
5
396
100
AcDbEntity
8
0
100
AcDbSpline
70
4
71
3
72
8
73
4
74
0
42
0.000000001
43
0.0000000001
44
0.0000000001
40
0
40
0
40
0
40
0
40
1
40
1
40
1
40
1
41
1
41
1
41
1
41
1
10
750.55090857846858
20
69.475209989051208
30
0
10
747.72383090062726
20
72.060472283152791
30
0
10
746.08092964118202
20
75.652096788870452
30
0
10
743.89395055098225
20
78.799218334404699
30
0
0
SPLINE
5
397
100
AcDbEntity
8
0
100
AcDbSpline
70
4
71
3
72
8
73
4
74
0
42
0.000000001
43
0.0000000001
44
0.0000000001
40
0
40
0
40
0
40
0
40
1
40
1
40
1
40
1
41
1
41
1
41
1
41
1
10
681.0618002609441
20
49.532785094451143
30
0
10
684.07734363436339
20
48.469519080988817
30
0
10
687.60496153699353
20
49.202073459576965
30
0
10
690.09065438665164
20
51.211249195252392
30
0
0
SPLINE
5
398
100
AcDbEntity
8
0
100
AcDbSpline
70
4
71
3
72
8
73
4
74
0
42
0.000000001
43
0.0000000001
44
0.0000000001
40
0
40
0
40
0
40
0
40
1
40
1
40
1
40
1
41
1
41
1
41
1
41
1
10
716.38776943559537
20
61.139787860763533
30
0
10
716.32376283250778
20
60.609931910874629
30
0
10
716.61891162602603
20
60.115638802341707
30
0
10
716.81805594104071
20
59.621345693808784
30
0
0
LINE
5
399
100
AcDbEntity
8
0
100
AcDbLine
10
779.59612703780579
20
158.58734289144371
30
0
11
778.89769175106221
21
125.21706443555937
31
0
0
SPLINE
5
400
100
AcDbEntity
8
0
100
AcDbSpline
70
4
71
3
72
8
73
4
74
0
42
0.000000001
43
0.0000000001
44
0.0000000001
40
0
40
0
40
0
40
0
40
1
40
1
40
1
40
1
41
1
41
1
41
1
41
1
10
757.15807645760549
20
124.59425124816929
30
0
10
757.48878809247969
20
125.50816046668575
30
0
10
758.39203217209558
20
126.36161651753326
30
0
10
759.33438778062407
20
126.12336016490633
30
0
0
SPLINE
5
401
100
AcDbEntity
8
0
100
AcDbSpline
70
4
71
3
72
8
73
4
74
0
42
0.000000001
43
0.0000000001
44
0.0000000001
40
0
40
0
40
0
40
0
40
1
40
1
40
1
40
1
41
1
41
1
41
1
41
1
10
758.17866597621503
20
40.091431310103943
30
0
10
752.4427280228947
20
38.434302743665199
30
0
10
747.63847791092178
20
33.846972941257185
30
0
10
745.71465516495186
20
28.196387977642345
30
0
0
SPLINE
5
402
100
AcDbEntity
8
0
100
AcDbSpline
70
4
71
3
72
8
73
4
74
0
42
0.000000001
43
0.0000000001
44
0.0000000001
40
0
40
0
40
0
40
0
40
1
40
1
40
1
40
1
41
1
41
1
41
1
41
1
10
750.93851858906123
20
49.632359965022417
30
0
10
749.21738341953505
20
49.582575242800658
30
0
10
747.471353175834
20
49.632359965022417
30
0
10
745.82133283676421
20
50.119539420058572
30
0
0
SPLINE
5
403
100
AcDbEntity
8
0
100
AcDbSpline
70
4
71
3
72
8
73
4
74
0
42
0.000000001
43
0.0000000001
44
0.0000000001
40
0
40
0
40
0
40
0
40
1
40
1
40
1
40
1
41
1
41
1
41
1
41
1
10
668.33108441789409
20
80.242980704962974
30
0
10
664.55098607740683
20
83.841721577241259
30
0
10
658.42743811349374
20
82.337504004216129
30
0
10
653.5022843792467
20
80.605701067508662
30
0
0
SPLINE
5
404
100
AcDbEntity
8
0
100
AcDbSpline
70
4
71
3
72
8
73
4
74
0
42
0.000000001
43
0.0000000001
44
0.0000000001
40
0
40
0
40
0
40
0
40
1
40
1
40
1
40
1
41
1
41
1
41
1
41
1
10
757.15807645760549
20
124.59425124816929
30
0
10
757.48878809247969
20
125.50816046668575
30
0
10
758.39203217209558
20
126.36161651753326
30
0
10
759.33438778062407
20
126.12336016490633
30
0
0
SPLINE
5
405
100
AcDbEntity
8
0
100
AcDbSpline
70
4
71
3
72
8
73
4
74
0
42
0.000000001
43
0.0000000001
44
0.0000000001
40
0
40
0
40
0
40
0
40
1
40
1
40
1
40
1
41
1
41
1
41
1
41
1
10
715.02580051493032
20
73.454449931489322
30
0
10
715.1218158456893
20
73.774493799182267
30
0
10
714.70575664723742
20
73.99497364855948
30
0
10
714.3750395862354
20
74.062539791459216
30
0
0
SPLINE
5
406
100
AcDbEntity
8
0
100
AcDbSpline
70
4
71
3
72
8
73
4
74
0
42
0.000000001
43
0.0000000001
44
0.0000000001
40
0
40
0
40
0
40
0
40
1
40
1
40
1
40
1
41
1
41
1
41
1
41
1
10
730.61559733736533
20
70.001511825255633
30
0
10
729.70879914406498
20
67.946105481042963
30
0
10
728.17613509624437
20
66.217856658019983
30
0
10
726.43366439235581
20
64.798983935508716
30
0
0
SPLINE
5
407
100
AcDbEntity
8
0
100
AcDbSpline
70
4
71
3
72
8
73
4
74
0
42
0.000000001
43
0.0000000001
44
0.0000000001
40
0
40
0
40
0
40
0
40
1
40
1
40
1
40
1
41
1
41
1
41
1
41
1
10
762.51706131525896
20
123.88303783007139
30
0
10
763.59810874939922
20
124.23153224215551
30
0
10
765.08810172849485
20
124.35599472597585
30
0
10
765.57172164371866
20
123.33184736321894
30
0
0
SPLINE
5
408
100
AcDbEntity
8
0
100
AcDbSpline
70
4
71
3
72
8
73
4
74
0
42
0.000000001
43
0.0000000001
44
0.0000000001
40
0
40
0
40
0
40
0
40
1
40
1
40
1
40
1
41
1
41
1
41
1
41
1
10
765.57172164371866
20
123.33184736321894
30
0
10
766.24382353290366
20
121.90942052702314
30
0
10
764.01060298191112
20
120.66479738448484
30
0
10
763.96793191318602
20
119.08945955487546
30
0
0
SPLINE
5
409
100
AcDbEntity
8
0
100
AcDbSpline
70
4
71
3
72
8
73
4
74
0
42
0.000000001
43
0.0000000001
44
0.0000000001
40
0
40
0
40
0
40
0
40
1
40
1
40
1
40
1
41
1
41
1
41
1
41
1
10
707.54028363035229
20
70.140198224739606
30
0
10
706.58014660114554
20
72.56899269867921
30
0
10
705.88671460372575
20
75.207593828687038
30
0
10
706.31344156935893
20
77.785742469291876
30
0
0
SPLINE
5
410
100
AcDbEntity
8
0
100
AcDbSpline
70
4
71
3
72
8
73
4
74
0
42
0.000000001
43
0.0000000001
44
0.0000000001
40
0
40
0
40
0
40
0
40
1
40
1
40
1
40
1
41
1
41
1
41
1
41
1
10
706.71171392100518
20
77.771515162298371
30
0
10
713.89141424488366
20
79.154825043453641
30
0
10
721.29870264550857
20
79.357523472152863
30
0
10
728.54596368615921
20
78.361823601590274
30
0
0
SPLINE
5
411
100
AcDbEntity
8
0
100
AcDbSpline
70
4
71
3
72
8
73
4
74
0
42
0.000000001
43
0.0000000001
44
0.0000000001
40
0
40
0
40
0
40
0
40
1
40
1
40
1
40
1
41
1
41
1
41
1
41
1
10
687.33114827783777
20
71.367034859605141
30
0
10
684.25514970195172
20
68.102562448949413
30
0
10
679.04195675808739
20
65.887134170890278
30
0
10
675.34720326811396
20
68.429725396266861
30
0
0
SPLINE
5
412
100
AcDbEntity
8
0
100
AcDbSpline
70
4
71
3
72
8
73
4
74
0
42
0.000000001
43
0.0000000001
44
0.0000000001
40
0
40
0
40
0
40
0
40
1
40
1
40
1
40
1
41
1
41
1
41
1
41
1
10
675.51789025607775
20
56.691149883967249
30
0
10
675.70991820453185
20
53.497803156023522
30
0
10
678.04625417446096
20
50.596051107913489
30
0
10
681.0618002609441
20
49.532785094451143
30
0
0
SPLINE
5
413
100
AcDbEntity
8
0
100
AcDbSpline
70
4
71
3
72
8
73
4
74
0
42
0.000000001
43
0.0000000001
44
0.0000000001
40
0
40
0
40
0
40
0
40
1
40
1
40
1
40
1
41
1
41
1
41
1
41
1
10
758.17866597621503
20
40.091431310103943
30
0
10
752.4427280228947
20
38.434302743665199
30
0
10
747.63847791092178
20
33.846972941257185
30
0
10
745.71465516495186
20
28.196387977642345
30
0
0
SPLINE
5
414
100
AcDbEntity
8
0
100
AcDbSpline
70
4
71
3
72
8
73
4
74
0
42
0.000000001
43
0.0000000001
44
0.0000000001
40
0
40
0
40
0
40
0
40
1
40
1
40
1
40
1
41
1
41
1
41
1
41
1
10
759.3521637751744
20
124.13551860706147
30
0
10
760.03137389172844
20
123.22872143116004
30
0
10
761.43601388111858
20
123.53454341798727
30
0
10
762.51706131525896
20
123.88303783007139
30
0
0
SPLINE
5
415
100
AcDbEntity
8
0
100
AcDbSpline
70
4
71
3
72
8
73
4
74
0
42
0.000000001
43
0.0000000001
44
0.0000000001
40
0
40
0
40
0
40
0
40
1
40
1
40
1
40
1
41
1
41
1
41
1
41
1
10
711.84667566785242
20
74.339912590427176
30
0
10
711.45195200376293
20
74.347026243923935
30
0
10
710.91142828669274
20
74.17989065658071
30
0
10
710.97544031590803
20
73.788721106175771
30
0
0
SPLINE
5
416
100
AcDbEntity
8
0
100
AcDbSpline
70
4
71
3
72
8
73
4
74
0
42
0.000000001
43
0.0000000001
44
0.0000000001
40
0
40
0
40
0
40
0
40
1
40
1
40
1
40
1
41
1
41
1
41
1
41
1
10
708.57153549001532
20
72.337845082120737
30
0
10
710.61627406704679
20
71.75820441001008
30
0
10
712.89571437432119
20
72.05691816946829
30
0
10
714.72353264178764
20
73.145073830977623
30
0
0
SPLINE
5
417
100
AcDbEntity
8
0
100
AcDbSpline
70
4
71
3
72
8
73
4
74
0
42
0.000000001
43
0.0000000001
44
0.0000000001
40
0
40
0
40
0
40
0
40
1
40
1
40
1
40
1
41
1
41
1
41
1
41
1
10
750.93851858906123
20
49.632359965022417
30
0
10
749.21738341953505
20
49.582575242800658
30
0
10
747.471353175834
20
49.632359965022417
30
0
10
745.82133283676421
20
50.119539420058572
30
0
0
SPLINE
5
418
100
AcDbEntity
8
0
100
AcDbSpline
70
4
71
3
72
8
73
4
74
0
42
0.000000001
43
0.0000000001
44
0.0000000001
40
0
40
0
40
0
40
0
40
1
40
1
40
1
40
1
41
1
41
1
41
1
41
1
10
730.61559733736533
20
70.001511825255633
30
0
10
729.70879914406498
20
67.946105481042963
30
0
10
728.17613509624437
20
66.217856658019983
30
0
10
726.43366439235581
20
64.798983935508716
30
0
0
SPLINE
5
419
100
AcDbEntity
8
0
100
AcDbSpline
70
4
71
3
72
8
73
4
74
0
42
0.000000001
43
0.0000000001
44
0.0000000001
40
0
40
0
40
0
40
0
40
1
40
1
40
1
40
1
41
1
41
1
41
1
41
1
10
752.89791502864273
20
73.169963479024617
30
0
10
753.09705391752971
20
75.289381852452522
30
0
10
752.19380983791382
20
77.337674543168447
30
0
10
751.30835260510366
20
79.275730022259623
30
0
0
SPLINE
5
420
100
AcDbEntity
8
0
100
AcDbSpline
70
4
71
3
72
8
73
4
74
0
42
0.000000001
43
0.0000000001
44
0.0000000001
40
0
40
0
40
0
40
0
40
1
40
1
40
1
40
1
41
1
41
1
41
1
41
1
10
672.45255944737301
20
106.25917019778623
30
0
10
671.20793596570149
20
106.45475361645677
30
0
10
670.3793716824822
20
104.97542976107442
30
0
10
670.20868198145445
20
103.72369398243832
30
0
0
SPLINE
5
421
100
AcDbEntity
8
0
100
AcDbSpline
70
4
71
3
72
8
73
4
74
0
42
0.000000001
43
0.0000000001
44
0.0000000001
40
0
40
0
40
0
40
0
40
1
40
1
40
1
40
1
41
1
41
1
41
1
41
1
10
673.49804404015731
20
106.60766460987035
30
0
10
673.64028726638958
20
106.18093628770524
30
0
10
672.89706783368399
20
106.19160541141844
30
0
10
672.45255944737301
20
106.25917019778623
30
0
0
SPLINE
5
422
100
AcDbEntity
8
0
100
AcDbSpline
70
4
71
3
72
8
73
4
74
0
42
0.000000001
43
0.0000000001
44
0.0000000001
40
0
40
0
40
0
40
0
40
1
40
1
40
1
40
1
41
1
41
1
41
1
41
1
10
673.49804404015731
20
106.60766460987035
30
0
10
673.64028726638958
20
106.18093628770524
30
0
10
672.89706783368399
20
106.19160541141844
30
0
10
672.45255944737301
20
106.25917019778623
30
0
0
SPLINE
5
423
100
AcDbEntity
8
0
100
AcDbSpline
70
4
71
3
72
8
73
4
74
0
42
0.000000001
43
0.0000000001
44
0.0000000001
40
0
40
0
40
0
40
0
40
1
40
1
40
1
40
1
41
1
41
1
41
1
41
1
10
671.37151472629637
20
108.51727225763425
30
0
10
672.03650024892102
20
107.83450802739559
30
0
10
672.93262796197621
20
107.3757750471548
30
0
10
673.49804404015731
20
106.60766460987035
30
0
0
SPLINE
5
424
100
AcDbEntity
8
0
100
AcDbSpline
70
4
71
3
72
8
73
4
74
0
42
0.000000001
43
0.0000000001
44
0.0000000001
40
0
40
0
40
0
40
0
40
1
40
1
40
1
40
1
41
1
41
1
41
1
41
1
10
695.55278450694391
20
91.227669017375803
30
0
10
691.85803101697047
20
89.968820941774908
30
0
10
689.04162653243827
20
86.779028327515647
30
0
10
687.51251659830234
20
83.187401108734122
30
0
0
SPLINE
5
425
100
AcDbEntity
8
0
100
AcDbSpline
70
4
71
3
72
8
73
4
74
0
42
0.000000001
43
0.0000000001
44
0.0000000001
40
0
40
0
40
0
40
0
40
1
40
1
40
1
40
1
41
1
41
1
41
1
41
1
10
695.55278450694391
20
91.227669017375803
30
0
10
691.85803101697047
20
89.968820941774908
30
0
10
689.04162653243827
20
86.779028327515647
30
0
10
687.51251659830234
20
83.187401108734122
30
0
0
SPLINE
5
426
100
AcDbEntity
8
0
100
AcDbSpline
70
4
71
3
72
8
73
4
74
0
42
0.000000001
43
0.0000000001
44
0.0000000001
40
0
40
0
40
0
40
0
40
1
40
1
40
1
40
1
41
1
41
1
41
1
41
1
10
743.89395055098225
20
78.799218334404699
30
0
10
738.38204656072344
20
86.729249031421674
30
0
10
728.99403161228247
20
91.825093823228357
30
0
10
719.33930620592707
20
92.12380215655881
30
0
0
SPLINE
5
427
100
AcDbEntity
8
0
100
AcDbSpline
70
4
71
3
72
8
73
4
74
0
42
0.000000001
43
0.0000000001
44
0.0000000001
40
0
40
0
40
0
40
0
40
1
40
1
40
1
40
1
41
1
41
1
41
1
41
1
10
719.33930620592707
20
92.12380215655881
30
0
10
709.68458622569938
20
92.426067316637628
30
0
10
699.99785751780018
20
87.924087790871241
30
0
10
694.00232818618986
20
80.35321791658771
30
0
0
SPLINE
5
428
100
AcDbEntity
8
0
100
AcDbSpline
70
4
71
3
72
8
73
4
74
0
42
0.000000001
43
0.0000000001
44
0.0000000001
40
0
40
0
40
0
40
0
40
1
40
1
40
1
40
1
41
1
41
1
41
1
41
1
10
706.91085280989216
20
93.293748554897491
30
0
10
710.01174374688912
20
94.769516940063383
30
0
10
712.94905321022736
20
96.970723337256786
30
0
10
714.33592263119499
20
100.11428534297877
30
0
0
SPLINE
5
429
100
AcDbEntity
8
0
100
AcDbSpline
70
4
71
3
72
8
73
4
74
0
42
0.000000001
43
0.0000000001
44
0.0000000001
40
0
40
0
40
0
40
0
40
1
40
1
40
1
40
1
41
1
41
1
41
1
41
1
10
702.45155249204231
20
92.045565533413935
30
0
10
700.12588700235847
20
92.017116345554683
30
0
10
697.75398547800955
20
91.977999390514199
30
0
10
695.55278450694391
20
91.227669017375803
30
0
0
SPLINE
5
430
100
AcDbEntity
8
0
100
AcDbSpline
70
4
71
3
72
8
73
4
74
0
42
0.000000001
43
0.0000000001
44
0.0000000001
40
0
40
0
40
0
40
0
40
1
40
1
40
1
40
1
41
1
41
1
41
1
41
1
10
682.54824183941889
20
93.47511144923422
30
0
10
683.38391706307118
20
87.049298325242376
30
0
10
681.74812674405871
20
79.969167445807273
30
0
10
685.10149811891279
20
74.425260154004917
30
0
0
SPLINE
5
431
100
AcDbEntity
8
0
100
AcDbSpline
70
4
71
3
72
8
73
4
74
0
42
0.000000001
43
0.0000000001
44
0.0000000001
40
0
40
0
40
0
40
0
40
1
40
1
40
1
40
1
41
1
41
1
41
1
41
1
10
699.06616967645289
20
105.57284778426727
30
0
10
698.12381406792429
20
103.21873039366027
30
0
10
695.59900426322565
20
101.61494608925554
30
0
10
695.18294506477378
20
99.111474531983319
30
0
0
SPLINE
5
432
100
AcDbEntity
8
0
100
AcDbSpline
70
4
71
3
72
8
73
4
74
0
42
0.000000001
43
0.0000000001
44
0.0000000001
40
0
40
0
40
0
40
0
40
1
40
1
40
1
40
1
41
1
41
1
41
1
41
1
10
753.28907372679214
20
95.51273365970502
30
0
10
753.39220271104773
20
90.022165203808896
30
0
10
752.12624369501418
20
84.52092898073154
30
0
10
752.78055873739345
20
79.0694774798759
30
0
0
SPLINE
5
433
100
AcDbEntity
8
0
100
AcDbSpline
70
4
71
3
72
8
73
4
74
0
42
0.000000001
43
0.0000000001
44
0.0000000001
40
0
40
0
40
0
40
0
40
1
40
1
40
1
40
1
41
1
41
1
41
1
41
1
10
681.47431077183921
20
100.18896513937527
30
0
10
681.64856001267924
20
97.930863079527256
30
0
10
682.25664444652136
20
95.726099855585488
30
0
10
682.54824183941889
20
93.47511144923422
30
0
0
SPLINE
5
434
100
AcDbEntity
8
0
100
AcDbSpline
70
4
71
3
72
8
73
4
74
0
42
0.000000001
43
0.0000000001
44
0.0000000001
40
0
40
0
40
0
40
0
40
1
40
1
40
1
40
1
41
1
41
1
41
1
41
1
10
706.91085280989216
20
93.293748554897491
30
0
10
710.01174374688912
20
94.769516940063383
30
0
10
712.94905321022736
20
96.970723337256786
30
0
10
714.33592263119499
20
100.11428534297877
30
0
0
SPLINE
5
435
100
AcDbEntity
8
0
100
AcDbSpline
70
4
71
3
72
8
73
4
74
0
42
0.000000001
43
0.0000000001
44
0.0000000001
40
0
40
0
40
0
40
0
40
1
40
1
40
1
40
1
41
1
41
1
41
1
41
1
10
681.47431077183921
20
100.18896513937527
30
0
10
681.64856001267924
20
97.930863079527256
30
0
10
682.25664444652136
20
95.726099855585488
30
0
10
682.54824183941889
20
93.47511144923422
30
0
0
SPLINE
5
436
100
AcDbEntity
8
0
100
AcDbSpline
70
4
71
3
72
8
73
4
74
0
42
0.000000001
43
0.0000000001
44
0.0000000001
40
0
40
0
40
0
40
0
40
1
40
1
40
1
40
1
41
1
41
1
41
1
41
1
10
746.42942812286196
20
86.999508176892874
30
0
10
743.21119174687124
20
89.908371165435796
30
0
10
738.65231113232255
20
90.708486260795922
30
0
10
734.34235955501026
20
91.174330181469571
30
0
0
SPLINE
5
437
100
AcDbEntity
8
0
100
AcDbSpline
70
4
71
3
72
8
73
4
74
0
42
0.000000001
43
0.0000000001
44
0.0000000001
40
0
40
0
40
0
40
0
40
1
40
1
40
1
40
1
41
1
41
1
41
1
41
1
10
682.54824183941889
20
93.47511144923422
30
0
10
683.38391706307118
20
87.049298325242376
30
0
10
681.74812674405871
20
79.969167445807273
30
0
10
685.10149811891279
20
74.425260154004917
30
0
0
SPLINE
5
438
100
AcDbEntity
8
0
100
AcDbSpline
70
4
71
3
72
8
73
4
74
0
42
0.000000001
43
0.0000000001
44
0.0000000001
40
0
40
0
40
0
40
0
40
1
40
1
40
1
40
1
41
1
41
1
41
1
41
1
10
719.33930620592707
20
92.12380215655881
30
0
10
709.68458622569938
20
92.426067316637628
30
0
10
699.99785751780018
20
87.924087790871241
30
0
10
694.00232818618986
20
80.35321791658771
30
0
0
SPLINE
5
439
100
AcDbEntity
8
0
100
AcDbSpline
70
4
71
3
72
8
73
4
74
0
42
0.000000001
43
0.0000000001
44
0.0000000001
40
0
40
0
40
0
40
0
40
1
40
1
40
1
40
1
41
1
41
1
41
1
41
1
10
746.42942812286196
20
86.999508176892874
30
0
10
743.21119174687124
20
89.908371165435796
30
0
10
738.65231113232255
20
90.708486260795922
30
0
10
734.34235955501026
20
91.174330181469571
30
0
0
LWPOLYLINE
5
440
100
AcDbEntity
8
0
100
AcDbPolyline
90
4
70
1
43
0.0
10
662.63881064247255
20
191.11866203172195
10
714.03880948018195
20
191.11866203172195
10
714.03880948018195
20
180.7186592973589
10
662.63881064247255
20
180.71865929735884
0
LWPOLYLINE
5
441
100
AcDbEntity
8
0
100
AcDbPolyline
90
81
70
1
43
0.0
10
540.12478153174277
20
325.12536222086089
10
541.01787451175164
20
325.00777870856149
10
541.91422104679816
20
324.96848955349435
10
567.728383632131
20
324.95950622478853
10
567.72838461686308
20
324.95945520912363
10
567.73197298083323
20
324.95945520912363
10
568.63191871190361
20
324.99874436419077
10
569.52501169191248
20
325.11632787264364
10
570.40446170028974
20
325.31128932966089
10
571.2635572950378
20
325.5821702815299
10
572.09579284317942
20
325.92689263567615
10
572.89480549789982
20
326.34283623524709
10
573.65452930912852
20
326.82682593450306
10
574.36918143728928
20
327.37519619109105
10
575.03332813035502
20
327.98377789525296
10
575.64189703299894
20
328.64791178680082
10
576.19026728958693
20
329.36256391496158
10
576.67426991345235
20
330.12228772619028
10
577.0902135130234
20
330.92130038091062
10
577.43492294256021
20
331.75353592905225
10
577.70580386365623
20
332.61264432531834
10
577.90076532067349
20
333.49208153217751
10
578.01834883297306
20
334.38517451218638
10
578.05763798804014
20
335.2815200625007
10
578.11111202515247
20
488.87579532308791
10
578.11111202515247
20
488.87938762598679
10
578.07182287008538
20
489.77933828071798
10
577.95423935393933
20
490.67243519965541
10
577.75927789692196
20
491.55188766986299
10
577.48839697582582
20
492.4109837569772
10
577.14367462167968
20
493.24321635092241
10
576.72773102210863
20
494.04223589876784
10
576.24374132285266
20
494.80196069472868
10
575.6953709431732
20
495.51660839159473
10
575.0867892390113
20
496.18075902358919
10
574.42265534746355
20
496.78932349493829
10
573.70800321930267
20
497.33770113701746
10
572.94827940807397
20
497.82170092977793
10
572.14926675335369
20
498.2376517917487
10
571.31703120521206
20
498.58235531289245
10
570.45792280894591
20
498.85324331175082
10
569.57848560208663
20
499.04820452258514
10
568.68539262207798
20
499.16578941966418
10
567.78904707176355
20
499.20508417154883
10
541.97488448643082
20
499.21406492879589
10
541.97128430567477
20
499.21408068451046
10
541.07134940665799
20
499.17478593262581
10
540.17825642664923
20
499.05721679126117
10
539.29880789537026
20
498.86223982471245
10
538.43969999147021
20
498.59136758156853
10
537.60747527538217
20
498.24664830471022
10
536.80844784967951
20
497.83069744273951
10
536.04872305371873
20
497.34669764997903
10
535.33407141792406
20
496.79832000789986
10
534.66993654164401
20
496.18975553655071
10
534.06136813136629
20
495.52562066027076
10
533.51298655035851
20
494.81097296340465
10
533.02899857438388
20
494.05124816744382
10
532.61305559027039
20
493.25222861959844
10
532.26833237448363
20
492.42001178136769
10
531.99745225348249
20
491.56089993853902
10
531.80249104264806
20
490.6814474683315
10
531.68490614556902
20
489.78835054939401
10
531.64561533261303
20
488.89200795327611
10
531.59214043770658
20
335.29775632626064
10
531.59214043770658
20
335.29415516077233
10
531.63144306744846
20
334.39422223121994
10
531.74901220881316
20
333.50112925121118
10
531.94398523643326
20
332.62167924283392
10
532.21485354064851
20
331.76257084656788
10
532.55957675643549
20
330.93034809994413
10
532.97551974054886
20
330.13132215133976
10
533.45952347223806
20
329.37159834011106
10
534.00789323645995
20
328.65694621195024
10
534.61646164673778
20
327.99281232040244
10
535.28059652301761
20
327.38424341775863
10
535.99524815881239
20
326.8358731611707
10
536.75497295477317
20
326.35187053730522
10
537.55400038047594
20
325.93592693773417
10
538.38622509656386
20
325.59120458358791
10
539.2453330004638
20
325.32033658710139
0
LWPOLYLINE
5
442
100
AcDbEntity
8
0
100
AcDbPolyline
90
120
70
1
43
0.0
10
202.31256386666553
20
336.14490900451818
10
269.46205606248134
20
336.07981820911988
10
270.99331357766499
20
326.06207695016792
10
270.99332933337951
20
326.06202869829235
10
271.01727211097881
20
325.91650153396927
10
271.13912779141106
20
325.36685358741113
10
271.30842983650103
20
324.82990622381283
10
271.52387446087664
20
324.30976380679346
10
271.78383587175108
20
323.81037585084096
10
272.0863386964229
20
323.33555006901287
10
272.42907373799022
20
322.88888762679727
10
272.80943244097637
20
322.4738087451492
10
273.22451083025834
20
322.093450042163
10
273.67117351865693
20
321.75071536987025
10
274.14599954666812
20
321.44821211437818
10
274.64538774880367
20
321.18825058041216
10
275.16553016582299
20
320.97280558676209
10
275.70247802178739
20
320.80350340319404
10
276.25212596834552
20
320.68164764582957
10
276.81030563428851
20
320.60816763255968
10
277.36651091226207
20
320.58360545651203
10
279.9782972951657
20
320.58107566854869
10
279.98455723747054
20
320.58107566854869
10
280.54702196538284
20
320.60563784411556
10
281.10520163132583
20
320.6791178535388
10
281.65486287176805
20
320.80097361090327
10
282.19179743384831
20
320.97027580985764
10
282.71193985086762
20
321.18572080350782
10
283.21132780682018
20
321.44568233747384
10
283.68615358864827
20
321.74818559296591
10
284.13281603086386
20
322.09092026525866
10
284.54789491251194
20
322.4712789682448
10
284.92825361549808
20
322.88635784989287
10
285.27098828779083
20
323.33302029210842
10
285.57349154328296
20
323.80784607393656
10
285.83345307724892
20
324.30723402988917
10
286.0488980708991
20
324.82737644690849
10
286.21820025446715
20
325.36431100898875
10
286.34005601183151
20
325.91397224943091
10
286.41353602510139
20
326.47215191537384
10
286.43809820114905
20
327.0346166432862
10
286.41353602510139
20
327.59708137119856
10
286.36399865095291
20
328.0097466743365
10
263.18761850036981
20
479.63392592067345
10
263.14929666385359
20
479.86676386909016
10
262.95432166676915
20
480.74620058358329
10
262.68345336255385
20
481.60531242641196
10
262.33873014676698
20
482.43754502035711
10
261.92278716265349
20
483.2365645682026
10
261.43878540042869
20
483.99628936416343
10
260.89041563620674
20
484.71093706102954
10
260.28184722592897
20
485.37508769302394
10
259.61771234964908
20
485.9836521643731
10
258.9030607138543
20
486.53202980645227
10
258.14333788735786
20
487.01602959921274
10
257.34431243111942
20
487.431964705469
10
256.51208968449578
20
487.7766839823272
10
255.65298178059575
20
488.04757198118557
10
254.77353127985248
20
488.24253319201995
10
253.88043829984369
20
488.36011808909905
10
252.9905082795145
20
488.39941284098364
10
219.07937767770224
20
488.43227926136512
10
219.0693649211575
20
488.43229501707958
10
218.16943002214072
20
488.39300026519493
10
217.27634098106057
20
488.27543112383034
10
216.39688851085299
20
488.08045415728157
10
215.53777666802435
20
487.80958191413765
10
214.70555195193637
20
487.4648626372794
10
213.90652452623368
20
487.04891177530868
10
213.1467997302729
20
486.5649119825481
10
212.43214415554948
20
486.01653434046904
10
211.76800927926962
20
485.40796986911982
10
211.15943693006324
20
484.74383499283994
10
210.61106716584129
20
484.02918729597388
10
210.12706737308076
20
483.26946250001299
10
209.71112438896728
20
482.47044295216756
10
209.36640511210911
20
481.63822611393687
10
209.09554074682239
20
480.7791142711082
10
208.90056378027361
20
479.89966180090062
10
208.86528673557845
20
479.6866130298564
10
185.39504664673672
20
328.10764332908883
10
185.34359636113953
20
327.68262603817362
10
185.31903320228304
20
327.12016131026132
10
185.34359636113953
20
326.55769658234902
10
185.41708889127824
20
325.99951691640604
10
185.53894358697832
20
325.44985616832975
10
185.70823086108604
20
324.91292160624948
10
185.92369025644393
20
324.39277918923017
10
186.18365166731843
20
323.89339123327773
10
186.48614562940082
20
323.4185526499316
10
186.82887968623601
20
322.97190300923404
10
187.20923838922215
20
322.55681132606799
10
187.6243305647543
20
322.17645262308179
10
188.07098143636705
20
321.83373087539854
10
188.5458035254496
20
321.53122761990642
10
189.0451887733887
20
321.27126608594045
10
189.56533217514018
20
321.05580816768077
10
190.10227904637242
20
320.8865188933359
10
190.65192502346628
20
320.76466313597155
10
191.21011847565936
20
320.69117021347847
10
191.76632670782939
20
320.666620940884
10
194.37811210600091
20
320.66409115628642
10
194.38435924678768
20
320.66409115628642
10
194.94682249760177
20
320.68864042888094
10
195.50500019408042
20
320.7621333436806
10
196.05466192688877
20
320.88398908565858
10
196.59159304240649
20
321.05327836000356
10
197.11175219987243
20
321.26873624749038
10
197.6111295699543
20
321.52869778145634
10
198.08596741475131
20
321.83120109849415
10
198.53261828636406
20
322.17392284617745
10
198.94771046189621
20
322.55428154916359
10
199.32806916488235
20
322.96937323232964
10
199.67078746600311
20
323.4160228730272
10
199.97328930594273
20
323.89086145637339
10
200.23325071681714
20
324.39023636462485
10
200.44871011217509
20
324.91039182934514
10
200.61799738628281
20
325.44732639142546
10
200.73985208198286
20
325.9969743379836
10
200.76189432652441
20
326.13013671301138
0
LWPOLYLINE
5
443
100
AcDbEntity
8
0
100
AcDbPolyline
90
81
70
1
43
0.0
10
532.97551974054886
20
330.13132215133976
10
533.45952347223806
20
329.37159834011106
10
534.00789323645995
20
328.65694621195024
10
534.61646164673778
20
327.99281232040244
10
535.28059652301761
20
327.38424341775863
10
535.99524815881239
20
326.8358731611707
10
536.75497295477317
20
326.35187053730522
10
537.55400038047594
20
325.93592693773417
10
538.38622509656386
20
325.59120458358791
10
539.2453330004638
20
325.32033658710139
10
540.12478153174277
20
325.12536222086089
10
541.01787451175164
20
325.00777870856149
10
541.91422104679816
20
324.96848955349435
10
567.728383632131
20
324.95950622478853
10
567.72838461686308
20
324.95945520912363
10
567.73197298083323
20
324.95945520912363
10
568.63191871190361
20
324.99874436419077
10
569.52501169191248
20
325.11632787264364
10
570.40446170028974
20
325.31128932966089
10
571.2635572950378
20
325.5821702815299
10
572.09579284317942
20
325.92689263567615
10
572.89480549789982
20
326.34283623524709
10
573.65452930912852
20
326.82682593450306
10
574.36918143728928
20
327.37519619109105
10
575.03332813035502
20
327.98377789525296
10
575.64189703299894
20
328.64791178680082
10
576.19026728958693
20
329.36256391496158
10
576.67426991345235
20
330.12228772619028
10
577.0902135130234
20
330.92130038091062
10
577.43492294256021
20
331.75353592905225
10
577.70580386365623
20
332.61264432531834
10
577.90076532067349
20
333.49208153217751
10
578.01834883297306
20
334.38517451218638
10
578.05763798804014
20
335.2815200625007
10
578.11111202515247
20
488.87579532308791
10
578.11111202515247
20
488.87938762598679
10
578.07182287008538
20
489.77933828071798
10
577.95423935393933
20
490.67243519965541
10
577.75927789692196
20
491.55188766986299
10
577.48839697582582
20
492.4109837569772
10
577.14367462167968
20
493.24321635092241
10
576.72773102210863
20
494.04223589876784
10
576.24374132285266
20
494.80196069472868
10
575.6953709431732
20
495.51660839159473
10
575.0867892390113
20
496.18075902358919
10
574.42265534746355
20
496.78932349493829
10
573.70800321930267
20
497.33770113701746
10
572.94827940807397
20
497.82170092977793
10
572.14926675335369
20
498.2376517917487
10
571.31703120521206
20
498.58235531289245
10
570.45792280894591
20
498.85324331175082
10
569.57848560208663
20
499.04820452258514
10
568.68539262207798
20
499.16578941966418
10
567.78904707176355
20
499.20508417154883
10
541.97488448643082
20
499.21406492879589
10
541.97128430567477
20
499.21408068451046
10
541.07134940665799
20
499.17478593262581
10
540.17825642664923
20
499.05721679126117
10
539.29880789537026
20
498.86223982471245
10
538.43969999147021
20
498.59136758156853
10
537.60747527538217
20
498.24664830471022
10
536.80844784967951
20
497.83069744273951
10
536.04872305371873
20
497.34669764997903
10
535.33407141792406
20
496.79832000789986
10
534.66993654164401
20
496.18975553655071
10
534.06136813136629
20
495.52562066027076
10
533.51298655035851
20
494.81097296340465
10
533.02899857438388
20
494.05124816744382
10
532.61305559027039
20
493.25222861959844
10
532.26833237448363
20
492.42001178136769
10
531.99745225348249
20
491.56089993853902
10
531.80249104264806
20
490.6814474683315
10
531.68490614556902
20
489.78835054939401
10
531.64561533261303
20
488.89200795327611
10
531.59214043770658
20
335.29775632626064
10
531.59214043770658
20
335.29415516077233
10
531.63144306744846
20
334.39422223121994
10
531.74901220881316
20
333.50112925121118
10
531.94398523643326
20
332.62167924283392
10
532.21485354064851
20
331.76257084656788
10
532.55957675643549
20
330.93034809994413
0
SPLINE
5
444
100
AcDbEntity
8
0
100
AcDbSpline
70
4
71
3
72
8
73
4
74
0
42
0.000000001
43
0.0000000001
44
0.0000000001
40
0
40
0
40
0
40
0
40
1
40
1
40
1
40
1
41
1
41
1
41
1
41
1
10
555.17373009962648
20
354.01354020027566
30
0
10
552.09287344815345
20
354.01354020027566
30
0
10
549.13821219171655
20
352.78966584232052
30
0
10
546.95971484982419
20
350.61118228667823
30
0
0
SPLINE
5
445
100
AcDbEntity
8
0
100
AcDbSpline
70
4
71
3
72
8
73
4
74
0
42
0.000000001
43
0.0000000001
44
0.0000000001
40
0
40
0
40
0
40
0
40
1
40
1
40
1
40
1
41
1
41
1
41
1
41
1
10
546.95971484982419
20
350.61118228667823
30
0
10
544.78121750793184
20
348.4326869142501
30
0
10
543.55735693622682
20
345.47800990209879
30
0
10
543.55735693622682
20
342.39716703687589
30
0
0
LWPOLYLINE
5
446
100
AcDbEntity
8
0
100
AcDbPolyline
90
4
70
1
43
0.0
10
215.8142579455191
20
423.34326425875042
10
223.49364832250899
20
472.93944888868657
10
248.54621512078785
20
472.91516933269054
10
256.12945821969754
20
423.30419796472552
0
SPLINE
5
447
100
AcDbEntity
8
0
100
AcDbSpline
70
4
71
3
72
8
73
4
74
0
42
0.000000001
43
0.0000000001
44
0.0000000001
40
0
40
0
40
0
40
0
40
1
40
1
40
1
40
1
41
1
41
1
41
1
41
1
10
543.55735693622682
20
342.39716703687589
30
0
10
543.55735693622682
20
339.31631137013511
30
0
10
544.78121750793184
20
336.36163534271589
30
0
10
546.95971484982419
20
334.18313898555567
30
0
0
SPLINE
5
448
100
AcDbEntity
8
0
100
AcDbSpline
70
4
71
3
72
8
73
4
74
0
42
0.000000001
43
0.0000000001
44
0.0000000001
40
0
40
0
40
0
40
0
40
1
40
1
40
1
40
1
41
1
41
1
41
1
41
1
10
555.17373009962648
20
354.01354020027566
30
0
10
552.09287344815345
20
354.01354020027566
30
0
10
549.13821219171655
20
352.78966584232052
30
0
10
546.95971484982419
20
350.61118228667823
30
0
0
SPLINE
5
449
100
AcDbEntity
8
0
100
AcDbSpline
70
4
71
3
72
8
73
4
74
0
42
0.000000001
43
0.0000000001
44
0.0000000001
40
0
40
0
40
0
40
0
40
1
40
1
40
1
40
1
41
1
41
1
41
1
41
1
10
244.25459089633321
20
362.12668481929643
30
0
10
242.07609552390508
20
364.3051801917245
30
0
10
239.12143032853962
20
365.52904470235819
30
0
10
236.0405776159952
20
365.52904470235819
30
0
0
SPLINE
5
450
100
AcDbEntity
8
0
100
AcDbSpline
70
4
71
3
72
8
73
4
74
0
42
0.000000001
43
0.0000000001
44
0.0000000001
40
0
40
0
40
0
40
0
40
1
40
1
40
1
40
1
41
1
41
1
41
1
41
1
10
227.82656433565722
20
362.12668481929643
30
0
10
225.64806896322915
20
359.94818944686824
30
0
10
224.42420445259546
20
356.99352425150278
30
0
10
224.42420445259546
20
353.91267153895842
30
0
0
SPLINE
5
451
100
AcDbEntity
8
0
100
AcDbSpline
70
4
71
3
72
8
73
4
74
0
42
0.000000001
43
0.0000000001
44
0.0000000001
40
0
40
0
40
0
40
0
40
1
40
1
40
1
40
1
41
1
41
1
41
1
41
1
10
543.55735693622682
20
342.39716703687589
30
0
10
543.55735693622682
20
339.31631137013511
30
0
10
544.78121750793184
20
336.36163534271589
30
0
10
546.95971484982419
20
334.18313898555567
30
0
0
SPLINE
5
452
100
AcDbEntity
8
0
100
AcDbSpline
70
4
71
3
72
8
73
4
74
0
42
0.000000001
43
0.0000000001
44
0.0000000001
40
0
40
0
40
0
40
0
40
1
40
1
40
1
40
1
41
1
41
1
41
1
41
1
10
244.25459089633321
20
345.69865628915608
30
0
10
246.43308626876134
20
347.87715166158421
30
0
10
247.65695077939498
20
350.83181488748539
30
0
10
247.65695077939498
20
353.91267153895842
30
0
0
SPLINE
5
453
100
AcDbEntity
8
0
100
AcDbSpline
70
4
71
3
72
8
73
4
74
0
42
0.000000001
43
0.0000000001
44
0.0000000001
40
0
40
0
40
0
40
0
40
1
40
1
40
1
40
1
41
1
41
1
41
1
41
1
10
224.42420445259546
20
353.91267153895842
30
0
10
224.42420445259546
20
350.83181488748539
30
0
10
225.64806502430054
20
347.87715363104849
30
0
10
227.82656433565728
20
345.69865628915608
30
0
0
SPLINE
5
454
100
AcDbEntity
8
0
100
AcDbSpline
70
4
71
3
72
8
73
4
74
0
42
0.000000001
43
0.0000000001
44
0.0000000001
40
0
40
0
40
0
40
0
40
1
40
1
40
1
40
1
41
1
41
1
41
1
41
1
10
236.0405776159952
20
365.52904470235819
30
0
10
232.95972096452221
20
365.52904470235819
30
0
10
230.00504395237087
20
364.30518413065317
30
0
10
227.82656433565722
20
362.12668481929643
30
0
0
SPLINE
5
455
100
AcDbEntity
8
0
100
AcDbSpline
70
4
71
3
72
8
73
4
74
0
42
0.000000001
43
0.0000000001
44
0.0000000001
40
0
40
0
40
0
40
0
40
1
40
1
40
1
40
1
41
1
41
1
41
1
41
1
10
546.95971484982419
20
334.18313898555567
30
0
10
549.13821022225227
20
332.00465592227943
30
0
10
552.09287344815345
20
330.78079387347611
30
0
10
555.17373009962648
20
330.78079387347611
30
0
0
SPLINE
5
456
100
AcDbEntity
8
0
100
AcDbSpline
70
4
71
3
72
8
73
4
74
0
42
0.000000001
43
0.0000000001
44
0.0000000001
40
0
40
0
40
0
40
0
40
1
40
1
40
1
40
1
41
1
41
1
41
1
41
1
10
247.65695077939498
20
353.91267153895842
30
0
10
247.65695077939498
20
356.99352819043145
30
0
10
246.43309020768993
20
359.94818944686824
30
0
10
244.25459089633321
20
362.12668481929643
30
0
0
SPLINE
5
457
100
AcDbEntity
8
0
100
AcDbSpline
70
4
71
3
72
8
73
4
74
0
42
0.000000001
43
0.0000000001
44
0.0000000001
40
0
40
0
40
0
40
0
40
1
40
1
40
1
40
1
41
1
41
1
41
1
41
1
10
227.82656433565728
20
345.69865628915608
30
0
10
230.00504789129948
20
343.520160916728
30
0
10
232.95972490345082
20
342.29629837555865
30
0
10
236.04057761599523
20
342.29629837555865
30
0
0
SPLINE
5
458
100
AcDbEntity
8
0
100
AcDbSpline
70
4
71
3
72
8
73
4
74
0
42
0.000000001
43
0.0000000001
44
0.0000000001
40
0
40
0
40
0
40
0
40
1
40
1
40
1
40
1
41
1
41
1
41
1
41
1
10
555.17373009962648
20
330.78079387347611
30
0
10
558.25458675109951
20
330.78079387347611
30
0
10
561.2092480075363
20
332.00465641464552
30
0
10
563.38774534942877
20
334.18313898555567
30
0
0
LWPOLYLINE
5
459
100
AcDbEntity
8
0
100
AcDbPolyline
90
4
70
1
43
0.0
10
259.15369080283477
20
370.78443416407049
10
212.68822966066469
20
370.82946793495023
10
212.691971642851
20
374.70159232275017
10
259.15744657127118
20
374.65655855187038
0
SPLINE
5
460
100
AcDbEntity
8
0
100
AcDbSpline
70
4
71
3
72
8
73
4
74
0
42
0.000000001
43
0.0000000001
44
0.0000000001
40
0
40
0
40
0
40
0
40
1
40
1
40
1
40
1
41
1
41
1
41
1
41
1
10
546.95971484982419
20
350.61118228667823
30
0
10
544.78121750793184
20
348.4326869142501
30
0
10
543.55735693622682
20
345.47800990209879
30
0
10
543.55735693622682
20
342.39716703687589
30
0
0
SPLINE
5
461
100
AcDbEntity
8
0
100
AcDbSpline
70
4
71
3
72
8
73
4
74
0
42
0.000000001
43
0.0000000001
44
0.0000000001
40
0
40
0
40
0
40
0
40
1
40
1
40
1
40
1
41
1
41
1
41
1
41
1
10
236.04057761599523
20
342.29629837555865
30
0
10
239.12143426746823
20
342.29629837555865
30
0
10
242.07609552390511
20
343.520160916728
30
0
10
244.25459089633321
20
345.69865628915608
30
0
0
SPLINE
5
462
100
AcDbEntity
8
0
100
AcDbSpline
70
4
71
3
72
8
73
4
74
0
42
0.000000001
43
0.0000000001
44
0.0000000001
40
0
40
0
40
0
40
0
40
1
40
1
40
1
40
1
41
1
41
1
41
1
41
1
10
546.95971484982419
20
334.18313898555567
30
0
10
549.13821022225227
20
332.00465592227943
30
0
10
552.09287344815345
20
330.78079387347611
30
0
10
555.17373009962648
20
330.78079387347611
30
0
0
SPLINE
5
463
100
AcDbEntity
8
0
100
AcDbSpline
70
4
71
3
72
8
73
4
74
0
42
0.000000001
43
0.0000000001
44
0.0000000001
40
0
40
0
40
0
40
0
40
1
40
1
40
1
40
1
41
1
41
1
41
1
41
1
10
566.79010326302625
20
342.39716703687589
30
0
10
566.79010326302625
20
345.47800990209879
30
0
10
565.56624072185696
20
348.43268494478582
30
0
10
563.38774534942877
20
350.61118228667823
30
0
0
SPLINE
5
464
100
AcDbEntity
8
0
100
AcDbSpline
70
4
71
3
72
8
73
4
74
0
42
0.000000001
43
0.0000000001
44
0.0000000001
40
0
40
0
40
0
40
0
40
1
40
1
40
1
40
1
41
1
41
1
41
1
41
1
10
563.38774534942877
20
334.18313898555567
30
0
10
565.56624072185696
20
336.36163534271589
30
0
10
566.79010326302625
20
339.31631038540286
30
0
10
566.79010326302625
20
342.39716703687589
30
0
0
SPLINE
5
465
100
AcDbEntity
8
0
100
AcDbSpline
70
4
71
3
72
8
73
4
74
0
42
0.000000001
43
0.0000000001
44
0.0000000001
40
0
40
0
40
0
40
0
40
1
40
1
40
1
40
1
41
1
41
1
41
1
41
1
10
566.79010326302625
20
342.39716703687589
30
0
10
566.79010326302625
20
345.47800990209879
30
0
10
565.56624072185696
20
348.43268494478582
30
0
10
563.38774534942877
20
350.61118228667823
30
0
0
SPLINE
5
466
100
AcDbEntity
8
0
100
AcDbSpline
70
4
71
3
72
8
73
4
74
0
42
0.000000001
43
0.0000000001
44
0.0000000001
40
0
40
0
40
0
40
0
40
1
40
1
40
1
40
1
41
1
41
1
41
1
41
1
10
543.23526286534548
20
412.08674431324533
30
0
10
543.23526286534548
20
409.00588766177236
30
0
10
544.45912343705049
20
406.051210649621
30
0
10
546.63762077894285
20
403.87273103290738
30
0
0
SPLINE
5
467
100
AcDbEntity
8
0
100
AcDbSpline
70
4
71
3
72
8
73
4
74
0
42
0.000000001
43
0.0000000001
44
0.0000000001
40
0
40
0
40
0
40
0
40
1
40
1
40
1
40
1
41
1
41
1
41
1
41
1
10
554.85163602874513
20
400.47037114984562
30
0
10
557.93249268021816
20
400.47037114984562
30
0
10
560.88715393665507
20
401.69423566047925
30
0
10
563.06565127854742
20
403.87273103290738
30
0
0
SPLINE
5
468
100
AcDbEntity
8
0
100
AcDbSpline
70
4
71
3
72
8
73
4
74
0
42
0.000000001
43
0.0000000001
44
0.0000000001
40
0
40
0
40
0
40
0
40
1
40
1
40
1
40
1
41
1
41
1
41
1
41
1
10
563.06565127854742
20
420.30075759358334
30
0
10
560.88715590611935
20
422.47925296601136
30
0
10
557.93249268021816
20
423.7031174766451
30
0
10
554.85163602874513
20
423.7031174766451
30
0
0
SPLINE
5
469
100
AcDbEntity
8
0
100
AcDbSpline
70
4
71
3
72
8
73
4
74
0
42
0.000000001
43
0.0000000001
44
0.0000000001
40
0
40
0
40
0
40
0
40
1
40
1
40
1
40
1
41
1
41
1
41
1
41
1
10
563.38774534942877
20
350.61118228667823
30
0
10
561.2092499770007
20
352.78966584232052
30
0
10
558.25458675109951
20
354.01354020027566
30
0
10
555.17373009962648
20
354.01354020027566
30
0
0
SPLINE
5
470
100
AcDbEntity
8
0
100
AcDbSpline
70
4
71
3
72
8
73
4
74
0
42
0.000000001
43
0.0000000001
44
0.0000000001
40
0
40
0
40
0
40
0
40
1
40
1
40
1
40
1
41
1
41
1
41
1
41
1
10
563.38774534942877
20
334.18313898555567
30
0
10
565.56624072185696
20
336.36163534271589
30
0
10
566.79010326302625
20
339.31631038540286
30
0
10
566.79010326302625
20
342.39716703687589
30
0
0
SPLINE
5
471
100
AcDbEntity
8
0
100
AcDbSpline
70
4
71
3
72
8
73
4
74
0
42
0.000000001
43
0.0000000001
44
0.0000000001
40
0
40
0
40
0
40
0
40
1
40
1
40
1
40
1
41
1
41
1
41
1
41
1
10
546.63762077894285
20
403.87273103290738
30
0
10
548.81610433458513
20
401.69423566047925
30
0
10
551.77077937727211
20
400.47037114984562
30
0
10
554.85163602874513
20
400.47037114984562
30
0
0
SPLINE
5
472
100
AcDbEntity
8
0
100
AcDbSpline
70
4
71
3
72
8
73
4
74
0
42
0.000000001
43
0.0000000001
44
0.0000000001
40
0
40
0
40
0
40
0
40
1
40
1
40
1
40
1
41
1
41
1
41
1
41
1
10
566.4680091921449
20
412.08674431324533
30
0
10
566.4680091921449
20
415.16760096471836
30
0
10
565.24414665097561
20
418.12226222115521
30
0
10
563.06565127854742
20
420.30075759358334
30
0
0
SPLINE
5
473
100
AcDbEntity
8
0
100
AcDbSpline
70
4
71
3
72
8
73
4
74
0
42
0.000000001
43
0.0000000001
44
0.0000000001
40
0
40
0
40
0
40
0
40
1
40
1
40
1
40
1
41
1
41
1
41
1
41
1
10
563.06565127854742
20
420.30075759358334
30
0
10
560.88715590611935
20
422.47925296601136
30
0
10
557.93249268021816
20
423.7031174766451
30
0
10
554.85163602874513
20
423.7031174766451
30
0
0
SPLINE
5
474
100
AcDbEntity
8
0
100
AcDbSpline
70
4
71
3
72
8
73
4
74
0
42
0.000000001
43
0.0000000001
44
0.0000000001
40
0
40
0
40
0
40
0
40
1
40
1
40
1
40
1
41
1
41
1
41
1
41
1
10
554.85163602874513
20
400.47037114984562
30
0
10
557.93249268021816
20
400.47037114984562
30
0
10
560.88715393665507
20
401.69423566047925
30
0
10
563.06565127854742
20
403.87273103290738
30
0
0
SPLINE
5
475
100
AcDbEntity
8
0
100
AcDbSpline
70
4
71
3
72
8
73
4
74
0
42
0.000000001
43
0.0000000001
44
0.0000000001
40
0
40
0
40
0
40
0
40
1
40
1
40
1
40
1
41
1
41
1
41
1
41
1
10
546.63762077894285
20
403.87273103290738
30
0
10
548.81610433458513
20
401.69423566047925
30
0
10
551.77077937727211
20
400.47037114984562
30
0
10
554.85163602874513
20
400.47037114984562
30
0
0
SPLINE
5
476
100
AcDbEntity
8
0
100
AcDbSpline
70
4
71
3
72
8
73
4
74
0
42
0.000000001
43
0.0000000001
44
0.0000000001
40
0
40
0
40
0
40
0
40
1
40
1
40
1
40
1
41
1
41
1
41
1
41
1
10
563.06565127854742
20
403.87273103290738
30
0
10
565.24414665097561
20
406.051210649621
30
0
10
566.4680091921449
20
409.00588766177236
30
0
10
566.4680091921449
20
412.08674431324533
30
0
0
SPLINE
5
477
100
AcDbEntity
8
0
100
AcDbSpline
70
4
71
3
72
8
73
4
74
0
42
0.000000001
43
0.0000000001
44
0.0000000001
40
0
40
0
40
0
40
0
40
1
40
1
40
1
40
1
41
1
41
1
41
1
41
1
10
543.23526286534548
20
412.08674431324533
30
0
10
543.23526286534548
20
409.00588766177236
30
0
10
544.45912343705049
20
406.051210649621
30
0
10
546.63762077894285
20
403.87273103290738
30
0
0
SPLINE
5
478
100
AcDbEntity
8
0
100
AcDbSpline
70
4
71
3
72
8
73
4
74
0
42
0.000000001
43
0.0000000001
44
0.0000000001
40
0
40
0
40
0
40
0
40
1
40
1
40
1
40
1
41
1
41
1
41
1
41
1
10
566.4680091921449
20
412.08674431324533
30
0
10
566.4680091921449
20
415.16760096471836
30
0
10
565.24414665097561
20
418.12226222115521
30
0
10
563.06565127854742
20
420.30075759358334
30
0
0
SPLINE
5
479
100
AcDbEntity
8
0
100
AcDbSpline
70
4
71
3
72
8
73
4
74
0
42
0.000000001
43
0.0000000001
44
0.0000000001
40
0
40
0
40
0
40
0
40
1
40
1
40
1
40
1
41
1
41
1
41
1
41
1
10
546.63762077894285
20
420.30075759358334
30
0
10
544.45912343705049
20
418.12226222115521
30
0
10
543.23526286534548
20
415.16760096471836
30
0
10
543.23526286534548
20
412.08674431324533
30
0
0
SPLINE
5
480
100
AcDbEntity
8
0
100
AcDbSpline
70
4
71
3
72
8
73
4
74
0
42
0.000000001
43
0.0000000001
44
0.0000000001
40
0
40
0
40
0
40
0
40
1
40
1
40
1
40
1
41
1
41
1
41
1
41
1
10
563.38774534942877
20
350.61118228667823
30
0
10
561.2092499770007
20
352.78966584232052
30
0
10
558.25458675109951
20
354.01354020027566
30
0
10
555.17373009962648
20
354.01354020027566
30
0
0
SPLINE
5
481
100
AcDbEntity
8
0
100
AcDbSpline
70
4
71
3
72
8
73
4
74
0
42
0.000000001
43
0.0000000001
44
0.0000000001
40
0
40
0
40
0
40
0
40
1
40
1
40
1
40
1
41
1
41
1
41
1
41
1
10
554.85163602874513
20
423.7031174766451
30
0
10
551.77077937727211
20
423.7031174766451
30
0
10
548.81610433458513
20
422.47925296601136
30
0
10
546.63762077894285
20
420.30075759358334
30
0
0
SPLINE
5
482
100
AcDbEntity
8
0
100
AcDbSpline
70
4
71
3
72
8
73
4
74
0
42
0.000000001
43
0.0000000001
44
0.0000000001
40
0
40
0
40
0
40
0
40
1
40
1
40
1
40
1
41
1
41
1
41
1
41
1
10
563.06565127854742
20
403.87273103290738
30
0
10
565.24414665097561
20
406.051210649621
30
0
10
566.4680091921449
20
409.00588766177236
30
0
10
566.4680091921449
20
412.08674431324533
30
0
0
SPLINE
5
483
100
AcDbEntity
8
0
100
AcDbSpline
70
4
71
3
72
8
73
4
74
0
42
0.000000001
43
0.0000000001
44
0.0000000001
40
0
40
0
40
0
40
0
40
1
40
1
40
1
40
1
41
1
41
1
41
1
41
1
10
554.85163602874513
20
423.7031174766451
30
0
10
551.77077937727211
20
423.7031174766451
30
0
10
548.81610433458513
20
422.47925296601136
30
0
10
546.63762077894285
20
420.30075759358334
30
0
0
SPLINE
5
484
100
AcDbEntity
8
0
100
AcDbSpline
70
4
71
3
72
8
73
4
74
0
42
0.000000001
43
0.0000000001
44
0.0000000001
40
0
40
0
40
0
40
0
40
1
40
1
40
1
40
1
41
1
41
1
41
1
41
1
10
555.17373009962648
20
330.78079387347611
30
0
10
558.25458675109951
20
330.78079387347611
30
0
10
561.2092480075363
20
332.00465641464552
30
0
10
563.38774534942877
20
334.18313898555567
30
0
0
SPLINE
5
485
100
AcDbEntity
8
0
100
AcDbSpline
70
4
71
3
72
8
73
4
74
0
42
0.000000001
43
0.0000000001
44
0.0000000001
40
0
40
0
40
0
40
0
40
1
40
1
40
1
40
1
41
1
41
1
41
1
41
1
10
546.63762077894285
20
420.30075759358334
30
0
10
544.45912343705049
20
418.12226222115521
30
0
10
543.23526286534548
20
415.16760096471836
30
0
10
543.23526286534548
20
412.08674431324533
30
0
0
LWPOLYLINE
5
486
100
AcDbEntity
8
0
100
AcDbPolyline
90
12
70
1
43
0.0
10
727.76132138937191
20
200.23939246843065
10
722.25432670761336
20
208.81759572270838
10
727.76132138937191
20
208.81759572270838
10
725.00782404849258
20
213.10669734984714
10
731.43698573719485
20
213.10669734984714
10
726.3845727189323
20
217.68801028067975
10
732.47372182041727
20
217.68801028067975
10
726.3845727189323
20
221.76359984266497
10
732.47372182041727
20
221.76359984266497
10
729.42914726967479
20
223.80139462365761
10
730.05384051798853
20
227.2401733165826
10
709.42116836043851
20
213.99450724013067
0
LWPOLYLINE
5
487
100
AcDbEntity
8
0
100
AcDbPolyline
90
12
70
1
43
0.0
10
695.56213039290992
20
218.54148283494126
10
698.31562773378914
20
222.83058446208003
10
691.88646604508688
20
222.83058446208003
10
696.93887906334953
20
227.41189739291264
10
690.84972996186457
20
227.41189739291264
10
696.93887906334953
20
231.48748695489786
10
690.84972996186457
20
231.48748695489786
10
693.89430451260705
20
233.5252817358905
10
693.26961126429319
20
236.96406042881546
10
713.90228342184309
20
223.71839435236359
10
695.56213039290992
20
209.96327958066357
10
701.06912507466848
20
218.54148283494126
0
ARC
5
488
100
AcDbEntity
8
0
100
AcDbCircle
10
878.89769175106244
20
80.217064435559422
30
0
40
75.157731058638944
210
0
220
0
230
1
100
AcDbArc
50
-217.02316140741533
51
37.023161407415365
0
LWPOLYLINE
5
489
100
AcDbEntity
8
0
100
AcDbPolyline
90
8
70
1
43
0.0
10
818.89234810466849
20
125.47237651890354
42
2.0067053336377212
10
938.90303539745628
20
125.47237651890356
10
939.59612703780579
20
158.58734289144371
42
0.60294416921213112
10
927.22304016442206
20
165.45256474700005
10
904.76455241947247
20
150.78327488393032
42
0.18225323042505798
10
851.73727919257897
20
150.29556704182011
10
830.5723433377027
20
165.45256474700005
42
0.6029441692121319
10
818.19925646431898
20
158.58734289144371
0
LINE
5
490
100
AcDbEntity
8
0
100
AcDbLine
10
904.76455241947247
20
150.78327488393032
30
0
11
927.22304016442206
21
165.45256474700005
31
0
0
ARC
5
491
100
AcDbEntity
8
0
100
AcDbCircle
10
931.59787869864022
20
158.75474511673815
30
0
40
7.9999999999999254
210
0
220
0
230
1
100
AcDbArc
50
-1.1990176364289233
51
123.15150667603501
0
LINE
5
492
100
AcDbEntity
8
0
100
AcDbLine
10
939.59612703780579
20
158.58734289144371
30
0
11
938.90303539745628
21
125.47237651890356
31
0
0
LINE
5
493
100
AcDbEntity
8
0
100
AcDbLine
10
818.19925646431898
20
158.58734289144371
30
0
11
818.89234810466849
21
125.47237651890354
31
0
0
ARC
5
494
100
AcDbEntity
8
0
100
AcDbCircle
10
826.19750480348455
20
158.75474511673815
30
0
40
8.0000000000000675
210
0
220
-0
230
1
100
AcDbArc
50
56.848493323965016
51
181.19901763642892
0
LINE
5
495
100
AcDbEntity
8
0
100
AcDbLine
10
851.73727919257897
20
150.29556704182011
30
0
11
830.5723433377027
21
165.45256474700005
31
0
0
ARC
5
496
100
AcDbEntity
8
0
100
AcDbCircle
10
878.89769175106244
20
80.217064435559422
30
0
40
75.157731058639015
210
0
220
-0
230
1
100
AcDbArc
50
69.869004879858849
51
111.18489857050319
0
LWPOLYLINE
5
497
100
AcDbEntity
8
0
100
AcDbPolyline
90
8
70
1
43
0.0
10
822.92092012540377
20
124.14909976039328
42
2.056027224169497
10
934.87446337672111
20
124.14909976039328
10
935.59700286822294
20
158.67104400409096
42
0.60294416921213478
10
929.41045943153108
20
162.10365493186899
10
905.24299424253297
20
146.31810622800404
42
0.19727847475804289
10
851.1977864807418
20
145.76199511237729
10
828.32509685481659
20
162.14197880562199
42
0.59690529398503656
10
822.19838063390171
20
158.67104400409093
0
ENDSEC
0
SECTION
2
OBJECTS
0
DICTIONARY
5
C
100
AcDbDictionary
3
ACAD_GROUP
350
D
3
ACAD_MLINESTYLE
350
17
0
DICTIONARY
5
D
100
AcDbDictionary
0
DICTIONARY
5
1A
330
C
100
AcDbDictionary
0
DICTIONARY
5
17
100
AcDbDictionary
0
ENDSEC
0
EOF
